<!-- Generator: Adobe Illustrator 23.0.6, SVG Export Plug-In  -->
<svg version="1.1" xmlns="http://www.w3.org/2000/svg" xmlns:xlink="http://www.w3.org/1999/xlink" x="0px" y="0px" width="117px"
	 height="130px" viewBox="0 0 117 130" style="enable-background:new 0 0 117 130;" xml:space="preserve">
<style type="text/css">
	.st0{fill:#666666;}
	.st1{fill:#FECB2F;}
	.st2{fill:none;}
</style>
<defs>
</defs>
<g>
	<g id="XMLID_1_">
		<g>
			<path class="st0" d="M76.39,65.85c0.38,0.68,0.6,1.42,0.53,2.21c-0.04,0.52-0.12,1.04-0.22,1.55c-0.04,0.21-0.18,0.42-0.33,0.58
				c-0.46,0.51-0.93,1.02-1.44,1.48c-0.57,0.51-1.19,0.97-1.8,1.42c-0.63,0.46-1.29,0.9-1.94,1.34c-1.25,0.83-2.51,1.65-3.76,2.48
				c-1.12,0.74-2.25,1.47-3.36,2.22c-1.16,0.78-2.28,1.6-3.44,2.37c-0.76,0.51-1.57,0.95-2.34,1.45c-0.65,0.42-1.29,0.87-1.92,1.31
				c-1.13,0.78-2.25,1.58-3.38,2.36c-0.68,0.47-1.36,0.95-2.07,1.39c-0.97,0.6-1.96,1.17-2.94,1.75c-0.78,0.47-1.55,0.97-2.35,1.43
				c-1.2,0.7-2.43,1.31-3.85,1.5c-0.4,0.05-0.8,0.18-1.19,0.28c-0.46,0.12-0.79-0.21-1.17-0.33c-1.13-0.34-2.1-0.98-2.83-1.88
				c-0.31-0.38-0.68-0.71-0.99-1.08c-0.17-0.2-0.25-0.48-0.42-0.68c-0.34-0.41-0.69-0.83-1.08-1.2c-0.48-0.44-0.8-0.98-1.16-1.5
				c-0.55-0.78-1.17-1.52-1.74-2.3c-0.35-0.49-0.64-1.03-0.99-1.52c-0.67-0.97-1.39-1.91-2.05-2.88c-0.65-0.96-1.25-1.95-1.77-2.99
				c-0.33-0.65-0.83-1.21-1.24-1.82c-0.5-0.74-0.97-1.49-1.46-2.22c-0.13-0.19-0.28-0.36-0.42-0.55c-0.41-0.56-0.82-1.12-1.21-1.69
				c-0.24-0.35-0.47-0.71-0.67-1.09c-0.28-0.53-0.65-1-0.87-1.57c-0.22-0.55-0.74-0.98-1.13-1.46c-0.01-0.01-0.02-0.02-0.03-0.03
				c-0.22-0.6-0.88-0.68-1.28-1.06c-0.17-0.16-0.36-0.43-0.34-0.63c0.03-0.42-0.25-0.67-0.38-1c-0.05-0.12-0.06-0.26-0.08-0.4
				c-0.05-0.35-0.11-0.7-0.14-1.05c-0.01-0.14,0.06-0.29,0.06-0.43c0.01-0.3-0.02-0.61,0.01-0.91c0.06-0.51,0.15-1.01,0.22-1.51
				c0.01-0.1-0.02-0.2-0.01-0.3c0.03-0.31,0.06-0.62,0.1-0.92c0.01-0.08,0.06-0.17,0.04-0.23c-0.22-0.57,0.13-1.08,0.18-1.62
				c0.07-0.7,0.22-1.39,0.33-2.08c0.09-0.53,0.19-1.07,0.27-1.6c0.05-0.35,0.07-0.7,0.09-1.05c0.03-0.74,0.03-1.48,0.08-2.22
				c0.03-0.41,0.13-0.82,0.2-1.24c0-0.01,0.01-0.02,0.01-0.03c-0.21-0.58,0.12-1.11,0.15-1.67c0.06-1.15,0.14-2.3,0.22-3.45
				c0.04-0.56,0.1-1.13,0.14-1.69c0.07-1,0.21-1.97,0.47-2.95c0.23-0.84,0.63-1.66,0.55-2.57c-0.01-0.08,0.07-0.16,0.09-0.25
				c0.03-0.15,0.09-0.32,0.07-0.46c-0.07-0.41-0.09-0.78,0.23-1.13c0.13-0.14,0.32-0.35,0.14-0.61c-0.03-0.04,0.05-0.14,0.06-0.22
				c0.14-0.95,0.36-1.88,0.38-2.85c0.01-0.48,0.16-0.96,0.2-1.45c0.03-0.34-0.08-0.68-0.05-1.02c0.03-0.42,0.13-0.84,0.22-1.26
				c0.14-0.66,0.28-1.31,0.43-1.97c0.15-0.67,0.14-1.36,0.39-2.03c0.16-0.44,0.3-0.9,0.44-1.35c0.09-0.28,0.2-0.54,0.34-0.8
				c0.14-0.28,0.38-0.62,0.32-0.88c-0.08-0.41,0.03-0.75,0.19-1.06c0.38-0.77,0.77-1.12,1.67-0.68c0.32,0.16,0.65,0.31,0.97,0.45
				c0.84,0.37,1.27,1.15,1.86,1.77c0.24,0.26,0.33,0.59,0.39,0.95c0.04,0.23,0.24,0.45,0.4,0.66c0.55,0.7,1.07,1.42,1.68,2.06
				c0.79,0.82,1.2,1.83,1.69,2.81c0.13,0.26,0.32,0.49,0.45,0.75c0.56,1.16,1.1,2.34,1.66,3.5c0.14,0.3,0.31,0.59,0.48,0.87
				c0.06,0.11,0.12,0.18,0.26-0.01c0.33-0.46,0.62-0.95,1.21-1.19c0.41-0.17,0.76-0.5,1.15-0.74c0.11-0.07,0.25-0.13,0.38-0.14
				c0.88-0.03,1.75,0.04,2.54,0.44c0.72,0.36,1.3,0.89,1.78,1.53c1.03,1.39,1.94,2.86,2.77,4.38c0.18,0.33,0.32,0.34,0.61,0.08
				c0.36-0.32,0.74-0.61,1.09-0.94c0.18-0.17,0.3-0.4,0.47-0.59c0.21-0.23,0.43-0.44,0.66-0.65c0.28-0.26,0.55-0.51,0.84-0.75
				c0.62-0.5,1.27-0.97,1.88-1.5c0.66-0.57,1.38-0.59,2.18-0.4c0.81,0.19,1.46,0.61,1.99,1.24c0.54,0.64,1.12,1.25,1.64,1.9
				c0.85,1.08,1.69,2.16,2.47,3.28c0.58,0.83,1.06,1.74,1.58,2.6c1.1,1.83,2.19,3.67,3.54,5.35c0.55,0.69,0.98,1.48,1.43,2.24
				c0.97,1.64,1.91,3.29,2.86,4.94c0.88,1.54,1.75,3.1,2.63,4.65c0.09,0.16,0.24,0.29,0.36,0.47c0.25,0.4,0.5,0.76,0.74,1.13
				c0.41,0.63,0.82,1.26,1.22,1.9c0.4,0.63,0.79,1.25,1.17,1.88C75.06,63.62,75.75,64.72,76.39,65.85z M75.26,67.71
				c0.17-0.63-0.41-1.15-0.23-1.78c0.01-0.05-0.08-0.13-0.12-0.19c-0.09-0.13-0.18-0.26-0.26-0.4c-0.22-0.37-0.42-0.76-0.65-1.13
				c-0.46-0.73-0.94-1.45-1.41-2.18c-0.43-0.66-0.91-1.29-1.27-1.98c-0.51-0.97-1.34-1.69-1.92-2.61c-0.27-0.43-0.35-0.93-0.7-1.34
				c-0.35-0.41-0.53-0.97-0.8-1.45c-0.35-0.62-0.73-1.23-1.07-1.85c-0.51-0.92-0.89-1.91-1.53-2.77c-0.48-0.64-0.84-1.37-1.25-2.06
				c-0.45-0.77-0.89-1.55-1.53-2.25c-0.3-0.46-0.6-0.92-0.9-1.38c-0.16-0.24-0.41-0.46-0.5-0.72c-0.24-0.74-0.78-1.3-1.15-1.96
				c-0.3-0.55-0.73-1.01-1-1.59c-0.3-0.65-0.78-1.23-1.19-1.84c-0.03-0.04-0.07-0.07-0.1-0.1c-0.35-0.35-0.72-0.69-1.06-1.06
				c-0.24-0.26-0.44-0.56-0.66-0.84c-0.11-0.13-0.25-0.23-0.36-0.36c-0.66-0.78-1.3-1.57-1.97-2.34c-0.1-0.12-0.32-0.18-0.49-0.19
				c-0.61-0.03-1.19,0.09-1.74,0.35c-0.45,0.21-0.94,0.34-1.33,0.62c-0.75,0.54-1.51,1.04-2.16,1.71c-0.85,0.88-1.83,1.65-2.72,2.49
				c-0.81,0.76-1.6,1.56-2.39,2.34c-0.39,0.38-0.77,0.75-1.16,1.13c-0.62,0.62-1.24,1.23-1.84,1.86c-0.59,0.62-1.14,1.28-1.71,1.91
				c-0.23,0.26-0.51,0.47-0.74,0.73c-0.78,0.89-1.55,1.8-2.32,2.7c-0.4,0.47-0.81,0.93-1.2,1.4c-0.69,0.85-1.36,1.71-2.05,2.56
				c-0.56,0.69-1.15,1.37-1.72,2.05c-0.72,0.87-1.44,1.75-2.17,2.62c-0.35,0.42-0.75,0.81-1.1,1.23c-0.64,0.77-1.18,1.63-1.9,2.32
				c-1.38,1.33-2.51,2.86-3.79,4.26c-0.06,0.07-0.11,0.23-0.08,0.31c0.15,0.32,0.3,0.65,0.51,0.93c0.96,1.26,1.56,2.73,2.59,3.96
				c0.75,0.9,1.34,1.92,1.99,2.9c0.64,0.96,1.27,1.93,1.88,2.92c0.6,0.97,1.16,1.96,1.76,2.93c0.38,0.61,0.78,1.2,1.18,1.81
				c0.31,0.47,0.6,0.96,0.93,1.41c0.59,0.8,1.2,1.58,1.82,2.37c0.78,0.98,1.56,1.96,2.35,2.94c0.33,0.41,0.67,0.83,1.03,1.22
				c0.43,0.45,0.85,0.92,1.34,1.3c0.6,0.45,1.18,0.88,2.08,0.74c1.02-0.15,1.99-0.4,2.88-0.87c1.36-0.72,2.66-1.53,3.98-2.31
				c0.85-0.5,1.68-1.03,2.52-1.54c0.15-0.09,0.33-0.15,0.48-0.26c0.68-0.47,1.34-0.96,2.03-1.41c0.87-0.56,1.8-1.02,2.6-1.69
				c0.65-0.55,1.34-1.06,2.03-1.57c0.31-0.23,0.63-0.52,0.99-0.58c0.38-0.06,0.68-0.15,0.98-0.38c0.69-0.54,1.41-1.03,2.11-1.54
				c0.91-0.66,1.81-1.33,2.74-1.97c0.61-0.41,1.24-0.79,1.89-1.14c0.91-0.49,1.54-1.32,2.49-1.77c0.92-0.43,1.74-1.05,2.61-1.59
				c0.47-0.29,0.96-0.57,1.41-0.89c0.37-0.27,0.7-0.59,1.04-0.89c0.5-0.45,1.03-0.88,1.49-1.38C75.19,69.07,75.09,68.34,75.26,67.71
				z M69.5,74c0.01-0.01-0.01-0.06-0.02-0.09c-0.14,0.07-0.28,0.14-0.41,0.2c-0.01,0.01-0.02,0-0.07,0.04
				c0.01,0.06,0.02,0.12,0.03,0.18C69.18,74.22,69.34,74.12,69.5,74z M64.04,77.58c0.04-0.05,0.09-0.1,0.14-0.15
				c-0.07,0.01-0.16,0.01-0.21,0.05c-0.13,0.09-0.25,0.21-0.37,0.32C63.73,77.73,63.87,77.67,64.04,77.58z M57.75,81.66
				c0.02-0.01,0.01-0.06,0.01-0.09c-0.04,0-0.1-0.02-0.12,0c-0.13,0.09-0.26,0.2-0.42,0.33c-0.01,0.02-0.02,0.03-0.02,0.05
				c0,0.01,0.02,0.02,0.03,0.02C57.4,81.87,57.58,81.77,57.75,81.66z M44.38,36.84c0.04-0.04,0.07-0.11,0.05-0.15
				c-0.08-0.25-0.16-0.51-0.28-0.74c-0.3-0.57-0.67-1.11-0.94-1.69c-0.38-0.81-0.91-1.53-1.54-2.15c-0.49-0.48-1.11-0.85-1.71-1.19
				c-0.31-0.17-0.77-0.3-1.09-0.2c-0.49,0.14-1,0.42-1.37,0.77c-0.51,0.48-0.9,1.07-1.32,1.63c-0.13,0.17-0.17,0.4-0.25,0.6
				c-0.04,0.1-0.06,0.28-0.1,0.28c-0.4,0.01-0.5,0.34-0.65,0.59c-0.19,0.33-0.33,0.7-0.5,1.05c-0.13,0.26-0.28,0.51-0.41,0.76
				c-0.12,0.23-0.21,0.46-0.34,0.68c-0.28,0.47-0.58,0.93-0.85,1.4c-0.24,0.41-0.45,0.84-0.69,1.25c-0.47,0.82-0.95,1.63-1.42,2.46
				c-0.35,0.62-0.68,1.25-1.03,1.87c-0.28,0.49-0.59,0.97-0.87,1.47c-0.3,0.54-0.55,1.11-0.86,1.65c-0.65,1.15-1.39,2.25-1.94,3.46
				c-0.44,0.97-0.99,1.88-1.48,2.83c-0.26,0.49-0.47,1-0.73,1.49c-0.53,1.01-1.1,2-1.61,3.02c-0.46,0.91-0.88,1.83-1.29,2.76
				c-0.4,0.91-0.76,1.84-1.13,2.76c-0.03,0.06,0.02,0.15,0.03,0.23c0.07-0.04,0.15-0.06,0.2-0.12c0.22-0.28,0.42-0.57,0.65-0.84
				c0.52-0.66,1.02-1.33,1.58-1.96c0.74-0.85,1.54-1.65,2.3-2.49c0.75-0.83,1.48-1.68,2.22-2.53c0.23-0.26,0.52-0.5,0.65-0.81
				c0.13-0.29,0.29-0.5,0.55-0.66c0.09-0.06,0.16-0.14,0.23-0.23c0.74-0.84,1.48-1.69,2.22-2.53c0.29-0.33,0.59-0.66,0.89-1
				c0.53-0.58,0.91-1.28,1.51-1.82c0.66-0.6,1.19-1.34,1.77-2.02c0-0.01,0-0.02,0.04-0.07c0.56-0.62,1.11-1.24,1.68-1.85
				c0.41-0.44,0.85-0.86,1.25-1.31c0.38-0.42,0.72-0.88,1.12-1.29c0.62-0.66,1.26-1.3,1.9-1.94c0.3-0.31,0.61-0.6,0.92-0.91
				c0.35-0.34,0.7-0.69,1.05-1.03c0.28-0.27,0.58-0.51,0.87-0.78C43.89,37.33,44.14,37.09,44.38,36.84z M33.71,33.76
				c0.14-0.28,0.39-0.59,0.23-0.95c-0.25-0.57-0.5-1.13-0.76-1.69c-0.36-0.78-0.72-1.56-1.08-2.35c-0.29-0.64-0.55-1.3-0.87-1.93
				c-0.43-0.86-0.88-1.72-1.38-2.54c-0.46-0.75-0.94-1.49-1.5-2.17c-0.6-0.75-1.28-1.43-1.69-2.32c-0.03-0.07-0.09-0.18-0.13-0.18
				c-0.42-0.01-0.87-0.1-1.22,0.2c-0.57,0.51-0.96,1.17-1.13,1.89c-0.25,1.03-0.41,2.08-0.59,3.12c-0.18,0.98-0.34,1.96-0.51,2.94
				c-0.06,0.34-0.09,0.68-0.15,1.01c-0.08,0.43-0.21,0.85-0.28,1.28c-0.12,0.71-0.21,1.42-0.29,2.13c-0.11,0.91-0.2,1.83-0.29,2.74
				c-0.02,0.21,0.02,0.43-0.01,0.64c-0.14,1.01-0.29,2.03-0.43,3.04c-0.06,0.39-0.14,0.78-0.2,1.17c-0.11,0.71-0.22,1.42-0.31,2.12
				c-0.06,0.45-0.1,0.91-0.15,1.37c-0.09,0.8-0.2,1.61-0.29,2.42c-0.06,0.5-0.08,1.01-0.15,1.51c-0.11,0.77-0.26,1.54-0.35,2.32
				c-0.1,0.79-0.15,1.58-0.22,2.37c-0.03,0.36-0.05,0.71-0.1,1.07c-0.08,0.55-0.19,1.09-0.26,1.64c-0.05,0.4,0,0.82-0.09,1.22
				c-0.21,0.94-0.3,1.89-0.29,2.85c0,0.28-0.04,0.57-0.08,0.86c-0.06,0.55-0.14,1.09-0.2,1.63c-0.01,0.06,0.06,0.12,0.09,0.18
				c0.04-0.05,0.11-0.09,0.12-0.15c0.21-0.69,0.42-1.38,0.62-2.07c0.32-1.11,1.03-2.03,1.57-3.04c0.1-0.19,0.2-0.4,0.31-0.59
				c0.45-0.76,0.94-1.5,1.36-2.27c0.49-0.9,0.93-1.83,1.39-2.76c0.35-0.7,0.67-1.42,1.05-2.11c0.52-0.94,1.12-1.85,1.64-2.8
				c0.85-1.52,1.65-3.07,2.48-4.6c0.36-0.65,0.73-1.3,1.13-1.99c0.02-0.02,0.04-0.03,0.05-0.05c0.53-0.9,1.06-1.8,1.59-2.71
				C32.81,35.39,33.29,34.59,33.71,33.76z M21.06,65.2c0.02-0.03-0.02-0.1-0.03-0.15c-0.12,0.08-0.25,0.14-0.34,0.24
				c-0.04,0.04,0.02,0.16,0.07,0.2C20.86,65.4,20.97,65.31,21.06,65.2z"/>
			<path class="st1" d="M75.02,65.93c-0.18,0.63,0.4,1.16,0.23,1.78c-0.17,0.63-0.07,1.36-0.55,1.88c-0.45,0.5-0.99,0.92-1.49,1.38
				c-0.34,0.31-0.67,0.63-1.04,0.89c-0.45,0.32-0.94,0.6-1.41,0.89c-0.87,0.54-1.69,1.16-2.61,1.59c-0.95,0.45-1.58,1.29-2.49,1.77
				c-0.65,0.35-1.28,0.73-1.89,1.14c-0.93,0.63-1.83,1.31-2.74,1.97c-0.71,0.51-1.42,1.01-2.11,1.54c-0.3,0.23-0.6,0.32-0.98,0.38
				c-0.35,0.06-0.68,0.35-0.99,0.58c-0.69,0.51-1.38,1.02-2.03,1.57c-0.8,0.67-1.74,1.12-2.6,1.69c-0.69,0.45-1.35,0.94-2.03,1.41
				c-0.15,0.1-0.32,0.16-0.48,0.26c-0.84,0.51-1.67,1.04-2.52,1.54c-1.32,0.78-2.62,1.59-3.98,2.31c-0.89,0.47-1.86,0.72-2.88,0.87
				c-0.9,0.13-1.48-0.29-2.08-0.74c-0.49-0.38-0.91-0.85-1.34-1.3c-0.36-0.39-0.7-0.81-1.03-1.22c-0.79-0.98-1.57-1.95-2.35-2.94
				c-0.62-0.78-1.23-1.57-1.82-2.37c-0.33-0.45-0.62-0.94-0.93-1.41c-0.4-0.6-0.81-1.19-1.18-1.81c-0.6-0.97-1.16-1.96-1.76-2.93
				c-0.61-0.98-1.24-1.95-1.88-2.92c-0.65-0.98-1.24-2-1.99-2.9c-1.02-1.23-1.63-2.7-2.59-3.96c-0.21-0.28-0.36-0.61-0.51-0.93
				c-0.03-0.08,0.01-0.24,0.08-0.31c1.28-1.4,2.42-2.93,3.79-4.26c0.71-0.69,1.26-1.55,1.9-2.32c0.35-0.42,0.75-0.81,1.1-1.23
				c0.73-0.87,1.44-1.75,2.17-2.62c0.57-0.69,1.16-1.36,1.72-2.05c0.69-0.85,1.36-1.71,2.05-2.56c0.39-0.48,0.8-0.94,1.2-1.4
				c0.77-0.9,1.54-1.81,2.32-2.7c0.23-0.26,0.51-0.48,0.74-0.73c0.58-0.63,1.13-1.29,1.71-1.91c0.6-0.64,1.23-1.24,1.84-1.86
				c0.38-0.38,0.77-0.76,1.16-1.13c0.8-0.78,1.58-1.58,2.39-2.34c0.9-0.84,1.87-1.61,2.72-2.49c0.65-0.67,1.42-1.17,2.16-1.71
				c0.39-0.28,0.89-0.41,1.33-0.62c0.55-0.26,1.13-0.38,1.74-0.35c0.17,0.01,0.39,0.07,0.49,0.19c0.67,0.77,1.31,1.56,1.97,2.34
				c0.11,0.13,0.25,0.23,0.36,0.36c0.23,0.27,0.42,0.57,0.66,0.84c0.34,0.37,0.7,0.71,1.06,1.06c0.03,0.03,0.08,0.06,0.1,0.1
				c0.41,0.61,0.88,1.19,1.19,1.84c0.27,0.58,0.7,1.05,1,1.59c0.36,0.66,0.91,1.22,1.15,1.96c0.09,0.27,0.34,0.48,0.5,0.72
				c0.3,0.46,0.6,0.92,0.9,1.38c0.64,0.7,1.08,1.48,1.53,2.25c0.41,0.69,0.77,1.42,1.25,2.06c0.64,0.86,1.02,1.85,1.53,2.77
				c0.35,0.62,0.72,1.23,1.07,1.85c0.27,0.48,0.45,1.04,0.8,1.45c0.35,0.41,0.43,0.91,0.7,1.34c0.58,0.92,1.41,1.64,1.92,2.61
				c0.36,0.69,0.85,1.33,1.27,1.98c0.47,0.73,0.95,1.45,1.41,2.18c0.23,0.37,0.43,0.75,0.65,1.13c0.08,0.14,0.17,0.27,0.26,0.4
				C74.95,65.8,75.04,65.88,75.02,65.93z"/>
			<path class="st1" d="M44.43,36.68c0.01,0.04-0.01,0.12-0.05,0.15c-0.24,0.25-0.49,0.5-0.74,0.73c-0.28,0.27-0.58,0.51-0.87,0.78
				c-0.36,0.34-0.7,0.69-1.05,1.03c-0.31,0.3-0.62,0.6-0.92,0.91c-0.64,0.64-1.28,1.28-1.9,1.94c-0.39,0.41-0.73,0.87-1.12,1.29
				c-0.41,0.45-0.84,0.87-1.25,1.31c-0.56,0.61-1.12,1.24-1.68,1.85c-0.04,0.05-0.03,0.06-0.04,0.07c-0.58,0.68-1.11,1.42-1.77,2.02
				c-0.6,0.55-0.98,1.24-1.51,1.82c-0.3,0.33-0.59,0.66-0.89,1c-0.74,0.84-1.48,1.69-2.22,2.53c-0.07,0.08-0.14,0.17-0.23,0.23
				c-0.26,0.17-0.43,0.37-0.55,0.66c-0.13,0.31-0.42,0.55-0.65,0.81c-0.74,0.85-1.46,1.7-2.22,2.53c-0.75,0.84-1.55,1.64-2.3,2.49
				c-0.56,0.63-1.06,1.3-1.58,1.96c-0.22,0.28-0.43,0.57-0.65,0.84c-0.04,0.05-0.13,0.08-0.2,0.12c-0.01-0.08-0.05-0.17-0.03-0.23
				c0.37-0.92,0.73-1.85,1.13-2.76c0.41-0.93,0.83-1.85,1.29-2.76c0.52-1.02,1.08-2.01,1.61-3.02c0.26-0.49,0.47-1,0.73-1.49
				c0.49-0.94,1.04-1.86,1.48-2.83c0.55-1.21,1.29-2.31,1.94-3.46c0.3-0.54,0.56-1.11,0.86-1.65c0.28-0.5,0.59-0.98,0.87-1.47
				c0.35-0.62,0.67-1.25,1.03-1.87c0.47-0.82,0.95-1.64,1.42-2.46c0.24-0.41,0.45-0.84,0.69-1.25c0.28-0.47,0.58-0.93,0.85-1.4
				c0.13-0.22,0.22-0.46,0.34-0.68c0.13-0.26,0.28-0.5,0.41-0.76c0.17-0.35,0.3-0.71,0.5-1.05c0.14-0.25,0.25-0.58,0.65-0.59
				c0.04,0,0.06-0.19,0.1-0.28c0.08-0.2,0.12-0.43,0.25-0.6c0.42-0.56,0.82-1.16,1.32-1.63c0.37-0.35,0.88-0.63,1.37-0.77
				c0.32-0.09,0.78,0.03,1.09,0.2c0.61,0.33,1.22,0.71,1.71,1.19c0.63,0.61,1.16,1.34,1.54,2.15c0.27,0.58,0.64,1.12,0.94,1.69
				C44.27,36.17,44.35,36.43,44.43,36.68z"/>
			<path class="st1" d="M33.94,32.81c0.16,0.37-0.09,0.67-0.23,0.95c-0.42,0.83-0.9,1.63-1.37,2.44c-0.52,0.91-1.06,1.81-1.59,2.71
				c-0.01,0.02-0.03,0.03-0.05,0.05c-0.4,0.69-0.77,1.33-1.13,1.99c-0.83,1.53-1.64,3.07-2.48,4.6c-0.52,0.94-1.12,1.85-1.64,2.8
				c-0.38,0.69-0.7,1.41-1.05,2.11c-0.46,0.92-0.9,1.85-1.39,2.76c-0.42,0.77-0.9,1.51-1.36,2.27c-0.11,0.19-0.21,0.39-0.31,0.59
				c-0.54,1.01-1.25,1.93-1.57,3.04c-0.2,0.69-0.41,1.38-0.62,2.07c-0.02,0.06-0.08,0.1-0.12,0.15c-0.03-0.06-0.09-0.13-0.09-0.18
				c0.06-0.54,0.14-1.09,0.2-1.63c0.04-0.28,0.09-0.57,0.08-0.86c-0.01-0.96,0.08-1.91,0.29-2.85c0.09-0.39,0.04-0.81,0.09-1.22
				c0.07-0.55,0.19-1.09,0.26-1.64c0.05-0.36,0.06-0.71,0.1-1.07c0.07-0.79,0.13-1.58,0.22-2.37c0.1-0.77,0.25-1.54,0.35-2.32
				c0.07-0.5,0.1-1.01,0.15-1.51c0.09-0.81,0.2-1.61,0.29-2.42c0.05-0.46,0.09-0.92,0.15-1.37c0.09-0.71,0.2-1.42,0.31-2.12
				c0.06-0.39,0.14-0.78,0.2-1.17c0.15-1.01,0.3-2.02,0.43-3.04c0.03-0.21-0.01-0.43,0.01-0.64c0.09-0.91,0.18-1.83,0.29-2.74
				c0.08-0.71,0.18-1.42,0.29-2.13c0.07-0.43,0.2-0.85,0.28-1.28c0.07-0.33,0.09-0.68,0.15-1.01c0.17-0.98,0.33-1.96,0.51-2.94
				c0.19-1.04,0.35-2.09,0.59-3.12c0.17-0.73,0.56-1.38,1.13-1.89c0.35-0.31,0.8-0.21,1.22-0.2c0.04,0,0.1,0.11,0.13,0.18
				c0.41,0.88,1.09,1.57,1.69,2.32c0.55,0.68,1.04,1.42,1.5,2.17c0.5,0.83,0.95,1.68,1.38,2.54c0.32,0.63,0.57,1.29,0.87,1.93
				c0.36,0.78,0.72,1.56,1.08,2.35C33.45,31.68,33.7,32.24,33.94,32.81z"/>
		</g>
	</g>
	<g>
		<path class="st2" d="M117,130H0V0h117V130z M17,113h83V17H17V113z"/>
	</g>
</g>
</svg>
