<!-- Generator: Adobe Illustrator 23.0.6, SVG Export Plug-In  -->
<svg version="1.1" xmlns="http://www.w3.org/2000/svg" xmlns:xlink="http://www.w3.org/1999/xlink" x="0px" y="0px" width="117px"
	 height="130px" viewBox="0 0 117 130" style="enable-background:new 0 0 117 130;" xml:space="preserve">
<style type="text/css">
	.st0{fill:none;}
	.st1{fill:#666666;}
</style>
<defs>
</defs>
<g>
	<g>
		<path class="st0" d="M117,130H0V0h117V130z M17,113h83V17H17V113z"/>
	</g>
	<path class="st1" d="M54.77,17.36c-0.68-0.09-1.36-0.19-2.04-0.28c-0.93,0.02-1.72-0.09-2.64-0.08c-1.4,0.09-2.91,0.17-4.3,0.27
		c-0.34-0.05-0.7,0.05-1.06,0.14c-0.7,0.05-1.28,0.11-1.98,0.16c-0.93,0.02-1.25-0.17-1.19,1.13c-0.03,1.14,0.18,2.18,0.16,3.18
		c-0.04,3.01-0.22,6.14-0.27,9.15c0.06,0.44,0.02,0.72-0.03,1.14c0.01,1.72-0.12,3.57-0.24,5.42c-0.07,1.43-0.01,2.73-0.06,4.01
		c-0.07,1.43-0.23,2.7-0.4,3.97c-0.11,0.85-0.11,1.71-0.23,2.7c-0.14,1.99-0.15,3.86,0.02,5.17c0,0.86,0.01,1.72,0.01,2.59
		c0.08,1.16,0.05,2.3,0.01,3.45c0.01,1.72,0.01,3.45,0.02,5.17c-0.05,2.15-0.19,4.14-0.24,6.29c-0.05,1.29-0.31,2.4-0.68,3.5
		c-0.43,1.52-1.35,2.4-2.35,2.98c-0.87,0.45-1.81,0.61-2.75,0.77c-0.72,0.19-1.42,0.24-2.1,0.14c-0.47,0.08-0.91-0.13-1.21-0.45
		c-0.63-0.52-1.12-1.16-1.5-1.79c-0.57-0.94-1.12-2.02-1.69-2.96c-0.29-0.47-0.57-0.94-1.01-1.14c-0.76-0.39-1.51,0.08-2.15,0.56
		s-1.3,1.11-1.94,1.6c-0.79,0.75-1.58,1.5-2.48,2.24c-0.9,0.74-1.68,1.35-2.56,1.94c-0.89,0.6-1.11,1.43-0.65,2.35
		c0.38,0.63,0.65,1.24,1.03,1.86c0.68,0.96,1.25,1.9,1.94,2.85c0.7,0.81,1.52,1.65,2.22,2.46c0.51,0.5,1.02,1,1.55,1.36
		c0.53,0.36,1.19,0.6,1.72,0.96c1.08,0.58,2.25,1.32,3.44,1.91c1.08,0.58,2.31,0.89,3.46,0.91c1.15,0.02,2.3,0.03,3.47-0.09
		c0.7-0.05,1.51-0.08,2.23-0.27c1.17-0.13,2.25-0.41,3.43-0.67c1.08-0.28,2.15-0.56,3.24-0.99c1.36-0.67,2.6-1.36,3.58-2.67
		c0.43-0.66,0.96-1.16,1.5-1.8c0.81-0.89,1.41-1.96,1.9-3.04c0.64-1.35,1.08-3.01,1.4-4.55c0.13-0.99,0.48-1.94,0.48-2.81
		c0.06-3.15,0.14-6.44,0.23-9.73c-0.03-1.58,0.08-3.29,0.07-5.02c0.02-0.14,0.04-0.28,0.05-0.42c0.13-0.99,0.37-1.96,0.38-2.96
		c0.07-1.43-0.11-2.74-0.04-4.17c0-0.86,0.09-1.57,0.07-2.29c0.01-1.87-0.22-3.62-0.21-5.49c-0.01-1.72,0-3.59,0-5.31
		c0.05-0.42-0.02-0.72-0.08-1.16c0-0.86-0.12-1.74-0.01-2.59c0.16-1.27,0.33-2.54,0.49-3.81c0.01-1,0.16-2.13,0.19-3.28
		c0.01-1.86,0.14-3.71,0.15-5.58c0.02-0.14,0.02-0.14,0.04-0.28c0.15-1.13,0.31-2.4,0.36-3.68c-0.02-0.72-0.06-1.3-0.08-2.02
		C55.52,17.75,55.22,17.42,54.77,17.36z"/>
	<path class="st1" d="M97.69,60.55c-0.58-0.77-0.93-1.65-1.51-2.42c-1.07-1.39-2.26-2.8-3.75-3.69c-1.05-0.7-1.99-1.38-2.95-1.92
		c-1.28-0.73-2.59-1.18-3.76-1.89c-0.85-0.53-1.58-1.04-2.43-1.57c-0.94-0.68-1.88-1.36-2.97-1.78c-0.64-0.36-1.28-0.73-1.92-1.09
		c-0.96-0.54-1.75-1.48-2.41-2.54c-0.47-0.76-0.96-1.38-1.23-1.97c-0.47-0.76-0.59-1.6-0.59-2.44c-0.1-0.98-0.06-2.09,0.51-2.98
		c0.47-0.91,1.01-1.53,1.77-2.12c1.27-0.94,2.64-1.72,4.2-1.38c1.46,0.2,2.74,0.92,3.72,2.16c0.49,0.62,0.96,1.38,1.43,2.13
		c0.38,0.6,0.51,1.32,0.78,1.91c0.08,0.29,0.3,0.32,0.54,0.21c1.37-0.79,2.73-1.57,3.99-2.38c1.25-0.8,2.52-1.74,3.78-2.54
		c0.75-0.45,1.4-1.06,2.17-1.65c0.64-0.47,1.27-0.94,1.91-1.41c0.37-0.23,0.45-0.77,0.28-1.21c-0.08-0.29-0.26-0.59-0.34-0.88
		c-0.17-0.44-0.32-1.01-0.62-1.33c-0.89-1.09-1.79-2.04-2.81-3.01c-1.11-1.12-2.47-2.13-3.71-3.13c-0.92-0.82-1.86-1.5-2.8-2.18
		c-0.83-0.67-1.79-1.21-2.89-1.5c-1.45-0.33-3.04-0.41-4.52-0.47c-1.03,0-2.08,0.14-3.11,0.14c-0.81,0.03-1.61,0.06-2.44,0.23
		c-1.05,0.14-2.1,0.27-3.17,0.55c-1.65,0.33-3.03,1.26-4.44,2.31c-0.78,0.73-1.48,1.6-2.17,2.48c-0.84,1.13-1.68,2.27-2.52,3.4
		c-1.1,1.38-1.77,2.95-2.55,4.51c-0.61,1.16-0.89,2.37-1.17,3.58c-0.35,1.75-0.68,3.37-0.67,5.04c0.06,0.42,0.02,0.7,0.1,0.98
		c0,0.83,0.02,1.53,0.16,2.24c0.36,1.57,0.61,3.13,0.99,4.57c0.44,1.86,0.88,3.72,1.93,5.25c0.68,0.92,1.45,2,2.13,2.92
		c1.47,1.86,3.26,3.07,5.16,4.29c1.07,0.56,2.24,1.27,3.42,1.84c1.3,0.59,2.46,1.3,3.76,1.89c0.96,0.54,1.82,0.94,2.8,1.35
		c1.5,0.76,2.63,1.74,3.58,3.25c0.49,0.62,0.72,1.48,0.97,2.21c0.66,1.89,0.18,3.77-0.92,5.14c-0.84,1.13-2.06,1.66-3.26,2.06
		c-0.84,0.3-1.67,0.47-2.49,0.64c-0.94,0.15-1.89,0.44-2.79,0.32c-1.14-0.01-2.03-0.27-2.99-0.82c-1.37-0.88-2.73-1.89-3.78-3.42
		c-0.66-1.06-1.43-2.13-2.09-3.19c-0.28-0.45-0.79-0.94-1.28-0.73c-0.6,0.2-1.22,0.53-1.72,0.88c-1.78,1.29-3.57,2.71-5.35,3.99
		c-0.77,0.59-1.52,1.04-2.38,1.48c-0.64,0.47-0.97,1.26-0.61,2c0.26,0.59,0.55,1.04,0.81,1.63c0.62,1.33,1.36,2.68,2.51,3.52
		c1.13,0.98,2.28,1.83,3.54,2.69c0.94,0.68,1.88,1.36,2.84,1.91c1.05,0.7,2.22,1.41,3.4,1.98c1.5,0.76,3.16,1.25,4.83,1.62
		c1.46,0.2,2.91,0.53,4.41,0.45c0.81-0.03,1.74-0.18,2.55-0.21c0.34,0.05,0.56,0.08,0.92-0.02c0.69-0.05,1.27-0.11,1.99-0.29
		c0.69-0.05,1.29-0.24,2.01-0.42c0.84-0.3,1.65-0.33,2.38-0.65c1.2-0.39,2.34-1.21,3.37-2.04c0.75-0.45,1.29-1.07,2.04-1.53
		c1.27-0.94,2.56-2.01,3.64-3.25c0.8-0.86,1.3-2.04,2-2.92c0.56-0.76,0.91-1.68,1.26-2.6c0.39-1.19,0.44-2.44,0.47-3.54
		c0.14-1.92,0.15-3.72,0.17-5.52c0.02-0.14,0.04-0.27,0.05-0.41c0.26-1.07,0.16-2.06-0.05-3.06C99.37,64.24,98.73,62.21,97.69,60.55
		z"/>
</g>
</svg>
