<!-- Generator: Adobe Illustrator 23.0.6, SVG Export Plug-In  -->
<svg version="1.1" xmlns="http://www.w3.org/2000/svg" xmlns:xlink="http://www.w3.org/1999/xlink" x="0px" y="0px" width="117px"
	 height="130px" viewBox="0 0 117 130" style="enable-background:new 0 0 117 130;" xml:space="preserve">
<style type="text/css">
	.st0{fill:none;}
	.st1{fill:#666666;}
</style>
<defs>
</defs>
<g>
	<g>
		<path class="st0" d="M117,130H0V0h117V130z M17,113h83V17H17V113z"/>
	</g>
	<g>
		<path class="st1" d="M60.71,47.94c-0.09-0.33-0.17-0.58-0.35-0.83c-0.7-0.92-2-1.08-3.13-0.92c-1.74,0.17-3.48,0.75-4.95,1.91
			c-1.39,1.08-2.43,2.75-2.61,4.58c-0.09,0.67,0,1.41,0.26,2c0.43,1,1.48,1.66,2.61,2c2.35,0.67,4.95,0,6.69-1.83
			C60.8,53.01,61.41,50.27,60.71,47.94z"/>
		<path class="st1" d="M77.58,63.83c5.13-1,10.61-2.25,14.34-5.99c1.83-1.91,3.22-4.58,2.61-7.24c-0.7-3.33-3.91-5.32-6.95-6.66
			c-2.61-1.08-5.3-2-8-2.66c1.13-3.08,2.26-6.24,3.39-9.32c0.87-2.41,0.7-5.24-0.43-7.57c-1.83-3.99-6-6.74-10.34-6.74
			c-5.65,0-10.34,4.24-14,8.57c-0.96,1.16-2.78-0.08-3.74-1.16c-3.74-4.08-8.61-7.57-14.08-7.82c-2.09-0.08-4.26,0.33-5.65,1.91
			c-1.3,1.58-1.48,3.83-1.48,5.82c0.09,3.74,0.52,7.4,1.3,10.98c-3.3-0.33-6.61-0.33-9.74,0.75c-3.13,1.08-5.91,3.41-7.13,6.49
			c-1.3,3.33-0.52,7.15,0.61,10.48c1.56,4.41,4.17,8.98,8.52,10.57c-1.83,3.08-3.39,6.49-3.56,10.07c-0.17,3.58,1.3,7.49,4.43,9.23
			c3.74,2.08,8.43,0.58,12-1.83c3.56-2.41,6.52-5.66,10.34-7.57c0.35-0.17,0.87-0.33,1.04,0.08c2.96,4.99,6.78,9.4,11.39,12.89
			c2.35,1.83,5.04,3.49,8,3.83c2.96,0.33,6.26-0.92,7.65-3.66c0.7-1.41,0.78-3.16,0.78-4.74c0-2.41-0.26-4.74-0.7-7.07
			c0-0.08,0-0.08,0-0.17s0-0.25-0.09-0.33c-0.35-1.83-0.87-3.66-1.56-5.49c-0.35-1-0.78-2.08-0.78-3.24
			C75.84,65.16,76.53,63.99,77.58,63.83z M59.76,29.89c0-0.17,0.17-0.33,0.26-0.5c1.65-1.91,3.3-3.83,5.22-5.41
			c2-1.58,4.26-2.75,6.78-2.99c1.48-0.17,3.13,0.08,4.35,1c0.61,0.42,1.13,1.08,1.56,1.75c1.39,2.25,1.65,5.16,1.13,7.82
			s-1.74,5.07-2.96,7.49c-0.17,0.42-0.52,0.83-0.96,0.75c-2.78-0.83-5.65-1.33-8.52-1.5c-0.35,0-0.78-0.08-1.13-0.25
			c-0.26-0.17-0.43-0.42-0.61-0.67c-1.65-2.25-3.3-4.49-4.95-6.82C59.93,30.39,59.76,30.14,59.76,29.89z M70.53,47.52
			c-0.09,0.17-0.26,0.25-0.43,0.33c-0.17,0.08-0.43,0-0.43-0.25c-0.35-1.83-1.04-3.66-1.91-5.24c1.91,0.33,3.91,0.75,5.82,1.33
			C72.53,45.03,71.58,46.36,70.53,47.52z M71.14,62c-0.09,0.08-0.26,0.08-0.35,0.08c-1.39,0.17-2.69,0.33-4.09,0.5
			c-1.91,0.25-3.91,0.5-5.91,0.42c1.13-1.08,2.17-2.16,3.3-3.24c1.39-1.33,2.69-2.66,4.09-3.99c0.17-0.17,0.43-0.33,0.61-0.17
			c0,0,0.09,0.08,0.09,0.17c0.78,1.83,1.56,3.74,2.26,5.57C71.32,61.5,71.4,61.83,71.14,62z M57.41,32.3
			c0.35-0.08,0.61,0.25,0.87,0.5c1.13,1.58,2.17,3.24,3.13,4.99c-2.43-0.42-4.95-0.92-7.39-0.75c-0.09,0-0.17,0-0.26,0
			c-0.26-0.17-0.09-0.5,0.09-0.75c1.04-1.16,2.09-2.41,3.13-3.58C57.06,32.46,57.23,32.3,57.41,32.3z M37.85,21.15
			c0.61-0.25,1.22-0.33,1.83-0.25c2.96,0.17,5.74,1.33,8.17,2.99c2.43,1.66,4.61,3.74,6.69,5.82c0.26,0.25,0.52,0.5,0.43,0.83
			c0,0.25-0.17,0.42-0.35,0.67c-1.22,1.41-2.52,2.83-3.74,4.24c-0.43,0.5-0.87,1-1.48,1.16c-0.52,0.25-1.13,0.17-1.74,0.08
			c-2.43-0.25-4.78-0.42-7.22-0.67c-0.7-0.08-1.48-0.25-1.74-0.92c-1.13-2.99-1.91-6.16-2.35-9.4
			C36.2,24.06,36.29,21.98,37.85,21.15z M42.54,44.78c-0.17,0.17-0.43-0.17-0.52-0.42c-0.52-1.33-0.87-2.66-1.22-3.99
			c0-0.17-0.09-0.25,0-0.33c0.09-0.08,0.17-0.08,0.35-0.08c1.48,0.17,2.87,0.33,4.35,0.58c0.26,0,0.52,0.25,0.35,0.42
			C44.37,41.78,44.02,43.95,42.54,44.78z M45.85,63.08c0.09,0.08,0.17,0.25,0.09,0.42c-0.09,0.25-0.35,0.25-0.61,0.25
			c-3.56-0.42-7.13-1.08-10.61-2.08c-0.17-0.08-0.35-0.08-0.35-0.25c0-0.08,0-0.17,0.09-0.25c1.56-3.16,3.56-6.16,5.82-8.9
			c0.17-0.17,0.26-0.33,0.52-0.42c0.17-0.08,0.52,0,0.52,0.25C42.28,55.84,43.85,59.58,45.85,63.08z M26.46,59.67
			c-2.35-1-4.17-3.08-5.04-5.49c-0.87-2.41-0.87-5.16-0.35-7.65c0.17-0.75,0.43-1.58,0.87-2.16c0.61-0.83,1.48-1.33,2.35-1.75
			c3.74-1.83,7.91-2.58,12-2.25c0.26,0,0.52,0.08,0.78,0.25c0.26,0.17,0.35,0.5,0.43,0.75c0.61,1.83,1.22,3.66,1.91,5.57
			c0.09,0.25,0.17,0.5,0.09,0.83c-0.09,0.25-0.17,0.42-0.35,0.58c-2.87,3.66-5.74,7.24-8.61,10.9
			C29.68,60.33,27.85,60.25,26.46,59.67z M49.15,70.48c-0.09,0.17-0.17,0.33-0.35,0.5c-3.82,3.66-8.17,6.74-12.78,9.23
			c-1.13,0.58-2.26,1.16-3.48,1.25c-1.22,0.08-2.61-0.58-3.04-1.75c-0.09-0.25-0.35-0.25-0.52-0.33c-0.52-1.25-0.96-2.5-1.3-3.83
			c0.26-3.41,2-6.66,3.82-9.65c0.26-0.42,0.61-0.83,1.04-0.75c4.43,0.75,8.95,1.16,13.47,1.25c1.56,0,2.52,1.83,3.13,3.33
			C49.06,69.98,49.24,70.23,49.15,70.48z M50.54,63.58c-0.17,0-0.43,0-0.61-0.08c-0.17-0.08-0.26-0.33-0.35-0.5
			c-2.09-4.41-4-8.9-5.74-13.48c-0.09-0.33-0.26-0.67-0.17-1.08c0.09-0.42,0.35-0.67,0.52-1c1.39-1.66,2.69-3.33,4.09-4.99
			c0.61-0.75,1.39-1.58,2.35-1.66c3.3-0.08,6.69,0,10,0.33c1.22,0.08,2.69,0.42,3.22,1.58c1.04,2.5,2.09,4.99,3.13,7.49
			c0.35,0.92,0.17,1.91-0.26,2.75c-0.43,0.83-1.13,1.5-1.83,2.16c-2.61,2.41-5.22,4.83-7.82,7.24c-0.43,0.42-0.87,0.83-1.48,0.83
			C53.84,63.41,52.19,63.49,50.54,63.58z M51.76,67.82c-0.43-0.17-0.43-0.92-0.09-1.16c0.43-0.25,0.96-0.08,1.3,0.33
			C52.54,67.07,52.28,67.99,51.76,67.82z M74.79,84.21c-0.35,1.5-1.3,2.91-2.69,3.49c-2.35,1.08-4.95-0.5-6.95-2.08
			c-4.78-3.91-8.78-8.9-11.65-14.56c-0.09-0.25-0.26-0.42-0.17-0.67c0-0.17,0.17-0.33,0.26-0.42c1.39-1.66,3.04-3.41,5.22-3.49
			c4-0.17,8-0.33,12-0.58c0.26,0,0.52,0,0.7,0.08c0.17,0.17,0.35,0.42,0.43,0.58c1.56,4.16,2.52,8.57,2.96,12.98
			C75.06,81.13,75.14,82.71,74.79,84.21z M75.4,60.83c-0.35,0.08-0.7,0.17-0.96-0.08c-0.17-0.17-0.26-0.33-0.26-0.5
			c-0.87-2.5-1.74-5.07-2.61-7.57c-0.09-0.17-0.09-0.33-0.09-0.5c0-0.25,0.17-0.5,0.35-0.67c1.3-1.66,2.52-3.41,3.82-5.07
			c0.26-0.33,0.52-0.75,0.96-1c0.61-0.33,1.3-0.42,1.91-0.42c1.56,0.08,3.13,0.5,4.43,1.25c0.61,0.33,1.22,0.83,1.83,1.25
			c0.78,0.58,1.56,1.08,2.35,1.66c1.3,1,2.78,2.25,2.78,3.91c0,1.5-1.39,2.66-2.69,3.49C83.66,58.75,79.49,59.83,75.4,60.83z"/>
	</g>
</g>
</svg>
