<!-- Generator: Adobe Illustrator 23.0.6, SVG Export Plug-In  -->
<svg version="1.1" xmlns="http://www.w3.org/2000/svg" xmlns:xlink="http://www.w3.org/1999/xlink" x="0px" y="0px" width="117px"
	 height="130px" viewBox="0 0 117 130" style="enable-background:new 0 0 117 130;" xml:space="preserve">
<style type="text/css">
	.st0{fill:#666666;}
	.st1{fill:#F3817E;}
	.st2{fill:#FFFFFF;}
	.st3{fill:#404041;}
	.st4{fill:none;}
</style>
<defs>
</defs>
<g>
	<g id="XMLID_1_">
		<g>
			<path class="st0" d="M58.73,31.17c-0.6,0.31-1.1,0.72-1.5,1.13c-0.2,0.2-0.3,0.51-0.6,0.71c-0.1,0.1-0.1,0.21,0,0.31
				c0.1,0.1,0.2,0,0.3-0.1c0.2-0.31,0.6-0.52,0.8-0.72c0.3-0.31,0.6-0.61,0.9-0.92C58.73,31.48,58.83,31.38,58.73,31.17z
				 M78.82,19.42c0,0.2,0,0.41,0,0.62c0,0.3-0.1,0.51-0.1,0.81c0,0.41-0.1,0.92-0.1,1.33c0,0.1,0,0.31,0,0.41
				c-0.1,0.51-0.1,1.02,0,1.53c0,0.31,0,0.51,0,0.82c0,0.2,0,0.41,0,0.51c0,0.2-0.1,0.51-0.3,0.62c-0.3,0.2-0.5,0.51-0.8,0.61
				c-0.1,0.1-0.2,0.21-0.3,0.31c-0.2,0.31-0.5,0.62-0.8,0.92c-0.3,0.2-0.5,0.61-0.6,0.92c-0.2,0.31-0.41,0.62-0.8,0.62
				c-0.1,0-0.3,0.1-0.41,0.1c-0.2-0.3-0.6-0.2-0.9-0.2c-0.2,0-0.5,0.1-0.7,0c-0.1,0-0.2,0-0.31,0c-0.5,0-1.1,0-1.6,0.1
				c-0.3,0-0.61,0.1-0.91,0.1c-0.4,0-0.7,0-1.1,0c-0.3,0-0.5,0-0.7,0.1s-0.3,0.2-0.3,0.41c0,0.3-0.1,0.71-0.1,1.02v0.1
				c-0.2,0.41-0.2,0.92-0.3,1.43c-0.1,0.51-0.2,1.02-0.2,1.53c-0.1,0.51-0.1,1.13-0.1,1.64c0,0.1,0,0.31,0,0.41
				c0,0.51-0.1,1.02-0.1,1.64c0,0.62,0,1.13,0,1.74c0,0.41,0.1,0.81,0.1,1.22c0,0.41,0,0.71,0,1.13c0,0.61,0,1.12,0,1.74
				s0.1,1.33,0,1.95c0,0.51,0,1.02,0,1.53c0,0.41,0,0.71,0.1,1.13c0,0.2,0,0.3,0.1,0.51c0.2,0.41,0.1,0.82,0.1,1.22
				c0,0.31,0,0.51,0,0.82c0,0.62,0,1.22-0.1,1.74v0.1c0.2,0.51-0.1,0.82-0.4,1.22c-0.41,0.41-0.91,0.72-1.31,1.13
				c-0.1,0.1-0.3,0.2-0.41,0.31c-0.3-0.2-0.4-0.1-0.5,0c0,0.1,0.1,0.31,0.1,0.41c-0.1,0.1-0.2,0.21-0.4,0.21c-0.2,0-0.5,0.1-0.71,0
				c-0.4-0.21-0.71-0.1-1.1-0.21c-0.2,0-0.4,0-0.6,0c-0.41,0.1-0.8,0.1-1.2,0.1c-0.41,0-0.8-0.1-1.21,0.1c-0.6,0.2-1.1,0-1.71,0.2
				c-0.2,0.1-0.5,0-0.8-0.1c-0.1,0-0.1-0.1-0.1-0.31c0.1-0.1,0.2-0.3,0.3-0.41c0-0.31-0.3-0.2-0.5-0.41c0-0.2,0.1-0.41,0.1-0.71
				c0-0.1,0-0.2,0-0.31c0-0.41-0.1-0.51-0.5-0.51c-0.1-0.1-0.1-0.2,0-0.31c0.2-0.1,0.3-0.3,0.3-0.61c0-0.2,0-0.31,0-0.51
				c0-0.21-0.1-0.21-0.3-0.21c-0.1,0-0.1,0.1-0.2,0.1s-0.1,0-0.2,0c0-0.1,0-0.2,0-0.31c0-0.1,0.1-0.1,0.2-0.1
				c0.5-0.41,0.6-1.03,0.4-1.54c-0.1-0.3-0.2-0.61,0-0.92c0-0.1,0-0.2,0-0.2c0-0.31-0.1-0.41-0.4-0.41c-0.1,0-0.2,0-0.3,0
				c0.1-0.41,0.1-0.82,0.4-1.02c0,0,0.1-0.1,0.1-0.2c0-0.41,0-0.82,0-1.13c0-0.2,0-0.31,0-0.51c0-0.51-0.1-1.02-0.1-1.43
				c0-0.1,0-0.31,0-0.41c0-0.31,0-0.62,0-0.82c0-0.2-0.1-0.31-0.3-0.31c-0.3,0-0.3-0.1-0.3-0.31c0-0.1,0-0.1,0-0.2
				c0.2-0.61,0.1-1.33,0-1.94c-0.1-0.62,0-1.13-0.2-1.74c0.1-0.41-0.1-0.71,0-1.13c-0.1-0.81,0.1-1.63,0.1-2.45c0-0.2,0-0.31,0-0.51
				c0-0.31,0.1-0.51,0-0.82c0-0.1,0-0.2,0.1-0.31c0.2-0.41,0.3-0.82,0.3-1.22c0-0.41,0.1-0.72,0.3-1.03c0-0.1,0.1-0.2,0.1-0.3
				c0-0.1-0.1-0.1-0.1-0.21c-0.1,0-0.2-0.1-0.3-0.1c-0.8,0-1.71-0.2-2.51-0.1c-0.3,0-0.6,0-0.9-0.1c-0.8-0.1-1.51-0.1-2.31,0
				c-0.1,0-0.2,0-0.31,0c-0.3,0-0.4-0.21-0.3-0.41c0.1-0.2,0.2-0.51,0.41-0.62c0.3-0.41,0.2-0.71,0.1-1.12
				c-0.1-0.21-0.2-0.51-0.2-0.82c0-0.1,0-0.2-0.1-0.31c-0.2-0.31-0.2-0.71-0.3-1.13c0-0.1-0.1-0.31-0.2-0.41
				c-0.1-0.2-0.3-0.2-0.5-0.1c0-0.31,0.1-0.51,0.1-0.71c-0.1,0-0.2,0-0.3,0c-0.1-0.1-0.1-0.31-0.1-0.51c0-0.1,0.1-0.31,0-0.41
				c0-0.2,0-0.3,0.1-0.41c0.2,0,0.4,0,0.5,0c0.1-0.1,0.2-0.2,0.3-0.31c0.1-0.1,0.1-0.2,0.2-0.2c0.61-0.51,1.21-1.02,1.61-1.74
				c0.3-0.61,0.71-1.12,1.01-1.74c0.1-0.1,0.1-0.31,0.1-0.41c0-0.1,0.1-0.21,0.1-0.41c0.71,0,1.41,0,2.11,0c0.6,0,1.2,0,1.71,0
				c0.2,0,0.3,0,0.5,0c0.2,0,0.4,0.1,0.6-0.1c0,0,0.1,0,0.2,0c0.6,0.21,1.2,0.1,1.8,0.1c0.8,0,1.51,0,2.31,0c0.5,0,1.1,0,1.61,0
				c0.5,0,1,0.1,1.5,0c0.9-0.1,1.8,0,2.61-0.1c0.3,0,0.5,0,0.8,0c0.71-0.1,1.41,0,2.01-0.2h0.1c0.5,0.1,0.9,0,1.41,0
				c0.3,0,0.7,0,1.01,0c0.4,0,0.9-0.1,1.3-0.1c0.5,0,1.01-0.1,1.41-0.1c0.71,0,1.41,0.1,2.01,0.1c0.6,0,1,0.51,1.1,1.02
				C78.82,19.11,78.82,19.21,78.82,19.42z M77.4,20.95c0.1-0.41,0.1-0.82,0.1-1.22c0-0.21-0.1-0.31-0.2-0.51
				c-0.1-0.1-0.2-0.1-0.3-0.21c-0.2-0.1-0.3-0.2-0.5-0.2c-0.1,0-0.2-0.1-0.2-0.1c-0.6,0-1.2,0-1.8,0c-0.5,0-1.01,0.2-1.5,0.2
				c-0.71,0.1-1.31,0.2-2.01,0.1c-0.1,0-0.2,0-0.3,0c-0.4,0-0.8,0-1.3,0c-0.41,0-0.8,0-1.21,0.1c-1.31,0.1-2.61,0.1-3.92,0.1
				c-0.3,0-0.6-0.1-0.8-0.1c-0.6,0.1-1.31,0-1.91,0.1c-0.2,0-0.4,0-0.6,0c-0.5,0-1,0.1-1.5,0.1c-0.6,0-1.31-0.1-1.91-0.1
				c-0.2,0-0.5,0-0.71,0c-0.6,0-1.1,0.1-1.6,0.2c-0.41,0-0.71,0.31-0.8,0.71c-0.1,0.31-0.1,0.71-0.2,1.02
				c-0.1,0.31-0.1,0.51-0.1,0.82c0,0.62,0,1.13,0,1.74c0,0.3-0.1,0.71,0.2,0.81c0.41,0,0.71,0,1.01,0c0.4,0,0.8,0.1,1.2,0.1
				c0.2,0,0.41,0,0.5,0.1c0.1,0,0.3,0.1,0.4,0.1c0.41,0,0.71,0,1.01-0.1c0.41,0,0.9,0,1.31-0.1c0.2,0,0.4,0,0.5,0c0.2,0,0.4,0,0.6,0
				c0.4,0,0.8,0,1.2,0.1c0.3,0.1,0.41,0.31,0.41,0.61c0,0.21-0.1,0.41-0.1,0.62c-0.1,0.1-0.1,0.2-0.1,0.41c0,0.1,0,0.3-0.1,0.41
				c-0.1,0.41-0.1,0.92-0.2,1.33c0,0.1,0,0.2,0,0.31c-0.2,0.61-0.2,1.33-0.2,1.94c-0.1,0.51-0.1,0.92-0.1,1.43
				c-0.1,0.62-0.1,1.33-0.2,1.95c0,0.41,0,0.82-0.1,1.22c-0.1,0.82-0.3,1.64-0.3,2.46c0,0.61-0.1,1.12-0.1,1.74
				c0,0.51,0,1.13,0.1,1.64c0,0.51,0.1,1.02,0.2,1.43c0,0.41,0.1,0.72,0,1.13c0,0.51-0.1,1.13-0.1,1.64c0,0.41,0,0.82,0,1.22
				c0,0.31-0.1,0.62,0,0.92c0,0.1,0,0.2,0,0.31c0,0.2,0,0.41,0,0.71c0,0.31,0.1,0.62,0.1,0.92c0,0.41,0,0.81,0,1.22
				c-0.1,0.41,0.1,0.82,0.1,1.22c0,0.1,0.1,0.31,0.3,0.31c0.3,0.1,0.6,0.1,0.9,0.2c0.2,0,0.5,0,0.7,0c0.41,0,0.91,0,1.31,0
				c0.1,0,0.3-0.1,0.41,0c0.2,0.1,0.5,0.1,0.7,0.1c0.41,0,0.41,0,0.41-0.41c0-0.41,0-0.92,0.1-1.33c0-0.71,0.1-1.43,0.1-2.04
				c0-0.51,0-0.92-0.1-1.43c-0.1-0.62,0-1.23,0-1.84c0-0.51-0.1-1.13-0.1-1.64c0-0.31,0-0.62,0-0.92c0-0.1,0-0.1,0-0.2
				c-0.1-0.41,0.1-0.71,0.1-1.13c0-0.2,0-0.3,0-0.51c0-0.1-0.1-0.31,0-0.41c0-0.1,0-0.2,0-0.31c0-0.2,0-0.51,0-0.71
				c0-0.41,0-0.82,0-1.23c0-0.2-0.1-0.3-0.1-0.51c0-0.61,0-1.12,0.1-1.74c0-0.41,0.1-0.92,0.1-1.33c0-0.71,0.1-1.53,0.2-2.25
				c0.1-0.41,0-0.81,0.1-1.12c0.1-0.51,0.2-0.92,0.2-1.43c0.1-0.71,0.2-1.43,0.2-2.15v-0.1c0.1-0.51,0.2-1.03,0.2-1.54
				c0-0.51,0.5-1.02,1.1-0.92c0.3,0.1,0.7,0,1,0c0.3-0.1,0.6-0.1,1.01-0.1c0.3,0,0.6,0,0.9,0.1c0.9,0.1,1.81,0,2.71-0.1
				c0.3,0,0.5,0,0.8,0c0.4,0,0.7-0.1,1.1,0c0.3,0,0.6,0.1,0.9,0.1c0.3-0.31,0.5-0.31,0.6-0.31c0.2-0.62,0.1-1.22,0.1-1.84
				c0-0.2,0-0.41,0-0.71s0-0.62,0-0.92C77.4,21.05,77.4,20.95,77.4,20.95z M75.8,26.47c0.1-0.1,0.1-0.31,0-0.41
				c-0.1-0.1-0.2,0-0.3,0c-0.1,0.1-0.31,0.2-0.41,0.41c-0.2,0.2-0.4,0.51-0.6,0.71c-0.1,0.21-0.3,0.31-0.6,0.21
				c-0.1,0.51-0.71,0.61-0.8,1.02c0.3,0.1,0.4,0.1,0.6,0c0.2-0.1,0.3-0.2,0.5-0.31c0.1-0.1,0.3-0.1,0.4-0.2
				c0.3-0.21,0.5-0.51,0.8-0.82C75.6,26.88,75.7,26.67,75.8,26.47z M72.99,26.37c0.1-0.1,0.1-0.31-0.1-0.41c-0.2,0-0.4-0.1-0.5,0.1
				c-0.1,0.1-0.3,0.2-0.4,0.41c-0.2,0.31-0.41,0.51-0.6,0.71c-0.2,0.21-0.5,0.51-0.71,0.72c0,0,0,0.1,0.1,0.31
				c0.4-0.21,0.8-0.52,1.2-0.72c0.2-0.2,0.5-0.51,0.7-0.71C72.79,26.67,72.89,26.47,72.99,26.37z M72.89,27.6
				c0.1-0.1,0.1-0.2-0.1-0.31c-0.2,0.1-0.41,0.31-0.5,0.41c-0.3,0.21-0.4,0.31-0.2,0.72C72.38,28.11,72.68,27.91,72.89,27.6z
				 M71.08,26.27l-0.1-0.1c0,0-0.1,0-0.1,0.1c-0.3,0.62-0.9,0.92-1.31,1.33c-0.2,0.2-0.3,0.41-0.4,0.62c-0.1,0.1-0.1,0.2-0.1,0.3
				c0.41,0.1,0.41,0.1,0.61-0.1c0.3-0.31,0.5-0.62,0.8-1.02c0.2-0.21,0.41-0.41,0.5-0.72C71.08,26.58,71.08,26.37,71.08,26.27z
				 M70.08,26.27c0-0.2-0.1-0.31-0.3-0.31c-0.2,0-0.5,0.1-0.71,0.2c-0.2,0.1-0.4,0.21-0.4,0.41c0,0.31-0.1,0.51-0.2,0.82
				c0,0.1,0,0.2,0.1,0.3c0.1,0.1,0.2,0,0.3-0.1c0.2-0.31,0.5-0.51,0.7-0.82C69.78,26.67,69.87,26.47,70.08,26.27z M66.16,53.78
				c0.1-0.1,0.1-0.21,0-0.31c-0.1-0.2-0.2-0.2-0.41-0.2c-0.1,0-0.1,0.1-0.2,0.2c0.1,0.31,0.1,0.41,0.1,0.51
				C65.86,53.98,66.06,53.88,66.16,53.78z M65.06,53.36c0.1-0.1,0.1-0.2-0.1-0.31c-0.1-0.1-0.3,0-0.41,0.1c0,0,0,0,0,0.1
				c-0.1,0.3-0.4,0.51-0.7,0.82c-0.3,0.2-0.5,0.51-0.71,0.71c-0.1,0.1-0.2,0.31-0.2,0.51c0.41,0.1,0.61,0.1,1.01-0.1
				c-0.1-0.1-0.1-0.2-0.2-0.31c-0.1-0.1-0.1-0.3,0.1-0.41c0.2-0.1,0.4-0.31,0.6-0.51C64.66,53.78,64.96,53.57,65.06,53.36z
				 M63.45,53.78c0.2-0.21,0.41-0.31,0.3-0.62c-0.2-0.1-0.4,0-0.6,0.1c-0.3,0.3-0.6,0.51-0.9,0.82c-0.3,0.2-0.5,0.51-0.8,0.71
				c0,0.2-0.1,0.31-0.3,0.41c0.3,0.21,0.4,0.21,0.6,0c0.1-0.1,0.2-0.2,0.3-0.31c0.2-0.2,0.41-0.3,0.6-0.51
				C62.94,54.18,63.15,53.98,63.45,53.78z M62.04,53.78c0.2,0,0.2-0.1,0-0.41c-0.3,0.31-0.7,0.51-1,0.82
				c-0.31,0.31-0.61,0.62-0.91,0.82c0.1,0.2,0.3,0.2,0.41,0.1c0.2-0.1,0.3-0.21,0.5-0.41C61.34,54.39,61.74,54.09,62.04,53.78z
				 M61.34,53.47c0.2,0,0.3-0.1,0.2-0.41c-0.1,0-0.2,0-0.3,0c-0.3,0.1-0.6,0.31-0.9,0.41c-0.1,0-0.2,0.1-0.2,0.2
				c-0.4,0.41-0.9,0.71-1.2,1.22c-0.1,0.21-0.2,0.21-0.5,0.1c-0.2-0.1-0.5,0-0.5,0.2c0,0.1,0,0.21,0,0.31c0.41,0.1,0.8,0.1,1.1-0.2
				c0.2-0.2,0.41-0.41,0.71-0.62C60.24,54.29,60.84,53.88,61.34,53.47z M60.43,28.51c0.2-0.2,0.2-0.41,0.2-0.71
				c-0.1,0-0.3,0-0.3,0.1c-0.4,0.41-0.9,0.82-1.31,1.33c-0.1,0.2-0.3,0.41-0.5,0.61c-0.3,0.31-0.6,0.51-0.9,0.92
				c0,0.1-0.2,0.31-0.3,0.41l-0.1,0.1c-0.1,0.1-0.3,0.2-0.41,0.31c-0.1,0.2-0.1,0.2,0.2,0.41c0.1-0.1,0.3-0.31,0.4-0.41
				c0.1-0.2,0.1-0.2-0.1-0.41c0.2,0.1,0.41,0,0.6-0.1c0.3-0.31,0.6-0.62,0.91-0.92C59.33,29.64,59.83,29.03,60.43,28.51z
				 M60.13,33.12c0.1-0.1,0.1-0.2,0-0.31c-0.1-0.1-0.2,0-0.3,0.1c-0.4,0.31-0.7,0.71-1.1,1.02c-0.3,0.31-0.6,0.71-0.8,1.02
				c0,0.1-0.1,0.1-0.1,0.2c-0.1,0,0,0.1,0,0.1c0.1,0,0.2-0.1,0.3-0.1c0.1-0.1,0.2-0.1,0.3-0.2c0.5-0.51,1.01-1.02,1.51-1.53
				C60.04,33.32,60.04,33.22,60.13,33.12z M59.83,27.6c0.1-0.1,0.41-0.1,0.3-0.41C59.94,27.29,59.83,27.39,59.83,27.6z M59.94,35.16
				c0.3-0.2,0.4-0.61,0-0.82c-0.2,0.21-0.5,0.31-0.71,0.51c-0.6,0.62-1.31,1.02-1.91,1.64c-0.1,0.2-0.3,0.31-0.3,0.51
				c0,0.1,0,0.2,0.1,0.2c0.1,0,0.2,0,0.3,0c0.61-0.51,1.21-1.02,1.81-1.53C59.43,35.47,59.74,35.27,59.94,35.16z M59.94,50.71
				c0-0.1,0-0.1,0-0.2c-0.31,0-0.31,0-0.41,0.2c-0.1,0.21-0.3,0.41-0.5,0.62c-0.2,0.2-0.4,0.41-0.5,0.62
				c-0.1,0.31-0.3,0.61-0.6,0.82c-0.3,0.2-0.4,0.41-0.3,0.81c0.2,0.1,0.3,0,0.41-0.1c0.2-0.2,0.4-0.51,0.6-0.82
				c0.2-0.41,0.5-0.82,0.9-1.13C59.83,51.32,59.94,51.01,59.94,50.71z M59.63,37.51c0.1-0.2,0.41-0.41,0.2-0.71
				c-0.2,0-0.3,0.1-0.4,0.2c-0.2,0.2-0.41,0.41-0.71,0.62c-0.4,0.31-0.7,0.62-1.1,0.92c-0.2,0.21-0.4,0.51-0.6,0.72c0,0,0,0.1,0,0.2
				c-0.1,0.1-0.1,0.2-0.1,0.41c0.1,0,0.3,0.1,0.4,0c0.2-0.1,0.41-0.2,0.5-0.51c0.1-0.2,0.2-0.31,0.4-0.41c0.1,0,0.2-0.1,0.3-0.2
				C58.93,38.33,59.33,37.93,59.63,37.51z M59.83,47.23c0.1-0.21,0.2-0.31,0-0.41c-0.1-0.1-0.2-0.1-0.4,0.1
				c-0.1,0.2-0.2,0.31-0.41,0.51c-0.5,0.51-1,1.02-1.5,1.64c-0.2,0.2-0.2,0.51-0.2,0.71c0,0.1,0.1,0.31,0.2,0.41
				c0.1-0.1,0.2-0.2,0.3-0.31c0.4-0.51,0.7-1.02,1.1-1.53C59.23,47.95,59.53,47.64,59.83,47.23z M59.74,44.16
				c0.2-0.2,0.2-0.41,0.1-0.62c-0.4-0.1-0.5,0.21-0.7,0.41c-0.61,0.62-1.21,1.22-1.81,1.84c-0.2,0.2-0.2,0.41-0.2,0.71
				c0.2-0.1,0.3-0.1,0.41-0.2c0.2-0.2,0.4-0.41,0.6-0.62c0.3-0.31,0.6-0.71,1.01-1.02C59.33,44.47,59.53,44.37,59.74,44.16z
				 M60.04,49.59c-0.1-0.1-0.2-0.21-0.2-0.21c-0.1,0-0.1,0.1-0.2,0.21l0.1,0.1C59.83,49.68,59.83,49.68,60.04,49.59z M59.53,49.07
				c0.1,0,0.3,0,0.3,0c-0.1-0.31-0.1-0.41-0.1-0.52h-0.1c-0.1,0.1-0.1,0.31-0.2,0.41C59.43,48.97,59.43,48.97,59.53,49.07z
				 M59.74,45.8c0.3-0.31,0.2-0.41,0-0.62c-0.3,0.31-0.5,0.51-0.71,0.72c-0.3,0.3-0.6,0.61-0.8,1.02c0,0.1-0.1,0.1-0.2,0.2
				c-0.2,0.2-0.41,0.41-0.61,0.51l-0.1,0.1c-0.1,0.1-0.1,0.2,0,0.3c0.1,0,0.2,0,0.3,0c0.1,0,0.1-0.1,0.1-0.1
				c0.1-0.1,0.3-0.31,0.4-0.41C58.73,47.02,59.23,46.42,59.74,45.8z M59.74,36.29c0-0.1,0-0.2,0-0.41c-0.1,0-0.2,0-0.3,0.1
				c-0.5,0.31-1.01,0.62-1.41,1.13c-0.3,0.31-0.61,0.51-0.8,0.82c-0.1,0.1-0.2,0.2-0.2,0.31c0,0,0,0.1,0.1,0.2h0.2
				c0.2-0.1,0.3-0.2,0.5-0.41c0.4-0.41,0.8-0.71,1.31-1.12C59.33,36.7,59.53,36.49,59.74,36.29z M59.43,31.59
				c0.3-0.1,0.4-0.2,0.2-0.41c-0.2,0.21-0.5,0.41-0.7,0.51c-0.1,0.1-0.2,0.21-0.41,0.31c-0.2,0.2-0.4,0.41-0.6,0.62
				c-0.3,0.31-0.5,0.62-0.8,0.82c-0.2,0.1-0.1,0.2-0.1,0.41c0.2,0,0.3-0.2,0.4-0.31c0.1-0.1,0.1-0.2,0.31-0.3
				c0.3-0.21,0.6-0.52,0.8-0.82C58.83,32.1,59.13,31.79,59.43,31.59z M59.74,42.52c-0.3-0.1-0.41-0.1-0.5,0.21c0,0.1,0,0.2,0,0.2
				c0.1,0,0.2,0.1,0.2,0C59.74,42.94,59.74,42.83,59.74,42.52z M59.43,41.1c0.2-0.2,0.2-0.31,0.1-0.62c-0.1,0-0.1,0-0.2,0.1
				c-0.5,0.41-1,0.82-1.41,1.33c-0.2,0.3-0.5,0.51-0.8,0.82c0,0,0,0.1,0,0.3c0.1,0,0.2-0.1,0.3-0.1
				C58.13,42.32,58.73,41.71,59.43,41.1z M59.13,53.67c0.3-0.2,0.5-0.51,0.4-0.92c0-0.1,0-0.21-0.1-0.31c-0.1,0-0.2,0-0.3,0.1
				c-0.41,0.51-0.8,1.02-1.21,1.43c-0.1,0.41-0.2,0.51-0.1,0.71c0.2,0,0.3-0.1,0.4-0.2C58.53,54.18,58.83,53.88,59.13,53.67z
				 M59.03,26.47c0.1-0.1,0.1-0.2,0.1-0.41c-0.41,0.1-0.71,0.31-1.01,0.61c-0.3,0.31-0.71,0.62-1.01,0.92c-0.4,0.2-0.7,0.41-1,0.71
				c0.1,0.1,0.2,0.1,0.3,0.2c0.6-0.2,1-0.51,1.5-0.92c0.1-0.1,0.2-0.2,0.3-0.31C58.43,26.98,58.73,26.67,59.03,26.47z M58.73,50.61
				c0.2-0.21,0.3-0.41,0.1-0.72c-0.1,0.1-0.31,0.1-0.41,0.21c-0.4,0.3-0.7,0.71-1.01,1.12c-0.1,0.21-0.2,0.41,0,0.62
				c0.1,0,0.2,0,0.2,0c0.2-0.31,0.5-0.41,0.71-0.71C58.43,50.92,58.53,50.71,58.73,50.61z M58.73,28.51c0.1-0.1,0.2-0.2,0-0.41
				c-0.3,0.1-0.5,0.31-0.6,0.62C58.33,28.82,58.43,28.82,58.73,28.51z M58.53,43.85c0.1-0.1,0.2-0.2,0.1-0.41
				c-0.5,0-0.6,0.2-0.6,0.62C58.33,44.16,58.33,43.96,58.53,43.85z M58.43,27.8c0-0.1,0-0.2,0-0.2c-0.1-0.1-0.2,0-0.2,0
				c-0.5,0.41-1,0.92-1.5,1.33c-0.2,0.31-0.4,0.51-0.4,0.82c0.2,0.1,0.3,0,0.4-0.1c0.2-0.31,0.4-0.62,0.7-0.82
				c0-0.2,0.31-0.31,0.41-0.41c0.1-0.1,0.3-0.31,0.4-0.41C58.33,27.91,58.33,27.91,58.43,27.8z M58.33,42.94
				c0.2-0.1,0.1-0.31-0.1-0.41c-0.1,0.31-0.7,0.41-0.7,1.02c0.2,0,0.4,0,0.5-0.2C58.13,43.14,58.22,43.04,58.33,42.94z M57.83,34.25
				c0.1,0,0.1-0.1-0.1-0.21c-0.61,0.52-0.71,0.72-0.61,0.92c0.1,0,0.2,0,0.2-0.1C57.53,34.65,57.73,34.45,57.83,34.25z M57.73,41.5
				c0.1,0,0-0.1,0-0.2c-0.2,0.1-0.41,0.2-0.5,0.31c-0.1,0.1-0.1,0.2-0.2,0.31c0,0.1,0.1,0.3,0.2,0.2
				C57.42,41.92,57.62,41.71,57.73,41.5z M57.62,44.88c0,0,0-0.1,0-0.2c0,0-0.1-0.1-0.2,0c-0.1,0-0.3,0.1-0.3,0.41
				c0.1,0,0.2,0,0.3,0C57.53,45.09,57.62,44.98,57.62,44.88z M56.82,26.88c0.3-0.31,0.5-0.51,0.41-0.82c-0.2,0.1-0.41,0.1-0.6,0.2
				c-0.3,0.2-0.61,0.51-0.91,0.82c-0.4,0.41-0.9,0.92-1.3,1.43c-0.2,0.21-0.41,0.41-0.61,0.72c-0.1,0.2-0.2,0.41-0.2,0.51
				c0.4,0.2,0.5,0.1,0.6-0.31c0-0.1,0.1-0.2,0.1-0.31c0.41-0.41,0.8-0.82,1.21-1.13c0.2-0.2,0.3-0.41,0.5-0.51
				C56.22,27.29,56.52,27.09,56.82,26.88z M56.72,36.09c0-0.41,0-0.92-0.1-1.33c0-0.1,0-0.2,0-0.31s-0.1-0.1-0.2-0.1
				s-0.2,0-0.2,0.21c0,0.1,0,0.1,0,0.2c0,0.51,0,1.12-0.1,1.64c0,0.1,0,0.3,0,0.41c0.2-0.2,0.3-0.1,0.4-0.1
				C56.72,36.49,56.72,36.29,56.72,36.09z M56.42,39.15c0.1-0.1,0.2-0.2,0.1-0.41c0,0-0.1,0-0.2-0.1
				C56.22,38.84,56.22,39.05,56.42,39.15z M56.62,37.72c0-0.1,0-0.31-0.2-0.41c-0.1,0.1-0.1,0.2-0.1,0.31s0,0.1,0,0.2
				C56.42,37.82,56.52,37.82,56.62,37.72z M55.92,29.44c0-0.1-0.1-0.2-0.1-0.31c-0.1,0.1-0.2,0.1-0.3,0.2c-0.1,0-0.2,0.1-0.2,0.2
				c0,0.1,0,0.21,0,0.21c0.1,0,0.3,0.1,0.4,0.1C55.82,29.75,55.92,29.64,55.92,29.44z M55.52,26.58c0.1,0,0.2-0.1,0.2-0.31
				c-0.1,0-0.2-0.1-0.3-0.1c-0.2,0-0.5,0-0.7,0.1c-0.1,0-0.3,0.1-0.41,0.2c-0.4,0.51-0.8,1.13-1.3,1.53
				c-0.31,0.31-0.61,0.62-0.91,1.02c-0.1,0.1-0.1,0.31,0.1,0.41c0.1,0.1,0.3,0.1,0.4-0.1c0.1-0.31,0.41-0.41,0.6-0.61
				c0.5-0.51,1.1-0.92,1.61-1.43C55.02,27.09,55.32,26.78,55.52,26.58z M53.81,26.06c-0.1,0-0.2,0.1-0.3,0.1
				c-0.1,0.1-0.3,0.31-0.4,0.51c0,0,0,0.1,0.1,0.21C53.71,26.67,53.81,26.47,53.81,26.06z M52.7,22.68c0.1-0.1,0.1-0.2,0-0.3
				c-0.1-0.1-0.3,0-0.3,0.1c-0.2,0.2-0.4,0.41-0.5,0.62c-0.2,0.2-0.41,0.51-0.61,0.82c-0.1,0.1-0.2,0.31-0.2,0.51
				c0,0,0.1,0.1,0.2,0.1c0.2-0.2,0.41-0.51,0.61-0.71l0.1-0.1C52.2,23.3,52.4,22.99,52.7,22.68z M52.6,25.76
				c0.1-0.2,0.2-0.31,0-0.41c-0.1-0.1-0.2,0-0.4,0.1c-0.2,0.2-0.41,0.31-0.6,0.51c-0.1,0.1-0.1,0.2-0.2,0.31
				c0,0.31,0.1,0.41,0.4,0.41c0.1-0.1,0.2-0.1,0.3-0.3C52.3,26.16,52.4,25.96,52.6,25.76z M52.7,27.6c0-0.1-0.1-0.2-0.1-0.2
				s-0.2,0-0.2,0.1c-0.1,0.1-0.1,0.2-0.2,0.31C52.51,27.91,52.7,27.8,52.7,27.6z M51.9,25.14c0.3,0,0.4-0.1,0.5-0.51
				C52.1,24.63,51.9,24.74,51.9,25.14z M51.8,28.51c-0.4-0.1-0.8,0-0.9,0.41c0,0.1-0.1,0.2-0.2,0.31c-0.1,0.1-0.1,0.2,0,0.3
				c0.1,0.1,0.3,0.1,0.41,0c0.1-0.1,0.2-0.2,0.2-0.3c0-0.1,0.1-0.1,0.1-0.21C51.7,28.93,51.7,28.72,51.8,28.51z M51.2,27.18
				c0-0.3-0.1-0.3-0.4-0.3c-0.1,0.2-0.2,0.41-0.1,0.61C50.99,27.49,51.1,27.39,51.2,27.18z M50.69,25.45c0-0.2,0-0.31-0.1-0.31
				c-0.2,0-0.41,0.1-0.5,0.2c-0.1,0.21-0.1,0.41,0.1,0.62c0.1,0.2,0.2,0.2,0.31,0.1C50.6,25.85,50.6,25.65,50.69,25.45z M50.5,24.22
				c0,0,0-0.1-0.1-0.1c0,0-0.1,0-0.2,0c0,0.1-0.1,0.2-0.1,0.31C50.39,24.43,50.5,24.32,50.5,24.22z"/>
			<path class="st1" d="M78.71,99.59c0.2,0.62-0.3,1.43-1,1.43c-0.31,0-0.5-0.1-0.8-0.1c-0.71-0.2-1.41,0.31-1.41,1.02
				c0,0.31-0.1,0.62,0,0.92c0,0.1,0.1,0.31,0.2,0.31c0.2,0.1,0.41,0.1,0.6,0.1c0.61,0,1.01,0.21,1.41,0.62
				c0.1,0.1,0.1,0.31,0.2,0.51c0.2,0.51,0.1,1.13,0,1.64c0,0.31,0,0.62,0,1.02c0,0.2,0,0.41-0.1,0.62c-0.1,0.2-0.1,0.51-0.2,0.82
				c0,0.2-0.1,0.41-0.3,0.51c-0.2,0.2-0.4,0.51-0.6,0.61c-0.2,0.1-0.41,0.31-0.6,0.41c-0.41,0.1-0.91,0.2-1.31,0.31
				c-0.6,0.2-1.1,0-1.61-0.31c-0.2-0.1-0.2-0.31-0.2-0.51c0-0.05,0.01-0.1,0.01-0.15c0.06-0.34,0.34-0.59,0.69-0.67
				c0.2,0,0.41,0,0.6-0.1c0.71-0.2,1.31-0.41,1.61-1.13c0.3-0.61,0.2-1.33,0.2-1.94c0.2-0.2,0.1-0.31,0-0.41
				c-0.5,0.1-0.91,0.1-1.31,0.21c-0.2,0-0.4,0.1-0.6,0c-0.2-0.21-0.41-0.41-0.6-0.62c-0.19-0.38-0.3-0.76-0.33-1.17
				c-0.02-0.24-0.01-0.5,0.03-0.78c0.1-0.51,0.1-1.02,0.1-1.53c0-0.41,0.1-0.71,0.3-1.02c0.3-0.31,0.5-0.71,0.9-0.92
				c0.2-0.1,0.5-0.2,0.71-0.3c0.6-0.21,1.2-0.31,1.8-0.31c0.3,0,0.71-0.1,1.01,0.2C78.41,99.08,78.61,99.28,78.71,99.59z"/>
			<path class="st0" d="M58.03,81.8c0-0.03,0-0.06,0-0.1c-0.2-0.1-0.3-0.1-0.41,0c-0.2,0.2-0.4,0.41-0.6,0.62
				c-0.4,0.51-0.8,1.02-1.1,1.53c-0.1,0.1-0.1,0.2,0,0.31c0,0,0.1,0,0.1-0.1c0.31-0.31,0.61-0.71,1.01-1.02S57.62,82.2,58.03,81.8z
				 M57.32,79.03c-0.3-0.1-0.5,0.1-0.7,0.2c-0.3,0.41-0.71,0.82-1.01,1.23v0.2c0,0,0.1,0,0.2,0l0.1-0.1c0.41-0.41,0.8-0.82,1.2-1.22
				C57.22,79.24,57.22,79.14,57.32,79.03z M57.22,86.19c-0.2,0-0.2,0-0.3,0.1c-0.3,0.3-0.5,0.61-0.8,0.92
				c-0.2,0.2-0.3,0.71-0.2,1.02c0.1-0.1,0.2-0.1,0.3-0.2C56.62,87.42,57.02,86.81,57.22,86.19z M78.21,89.47
				c0.2,0.2,0.1,0.81-0.2,1.02c-0.1,0.1-0.3,0.31-0.5,0.31c-0.6,0.2-1.01,0.71-1.41,1.12c-0.41,0.41-0.8,0.82-1.31,1.13
				c-0.1,0.1-0.1,0.2-0.1,0.31c0,0.2,0.1,0.41-0.1,0.51c-0.2,0.1-0.4,0.31-0.6,0.2c-0.3,0-0.6,0-0.9,0.1c-0.41,0-0.8-0.1-1.2-0.1
				l-0.1-0.1c-0.5,0-1,0-1.41,0.1c-0.1,0-0.3,0-0.4,0c-0.2,0-0.3-0.2-0.41-0.41c0.1,0,0.2,0,0.41,0c0.1-0.31,0.1-0.62,0.2-0.92
				c0.1-0.31,0.1-0.62,0.1-0.82c-0.71,0.1-1.41,1.02-1.41,1.95c-0.41,0-0.71,0.31-0.91,0.71c-0.4-0.1-0.6,0-0.7,0.1
				c-0.1-0.2-0.1-0.41,0-0.62c0.1-0.1,0.2-0.31,0.1-0.41c-0.2,0-0.5,0-0.7-0.1v-0.1c0.2-0.3,0.4-0.51,0.7-0.81
				c0.3-0.21,0.5-0.52,0.8-0.82c0.2-0.31,0.5-0.41,0.71-0.62c0.1-0.1,0.3-0.31,0.4-0.51c0.2-0.2,0.1-0.41-0.2-0.41
				c-0.2,0-0.4,0-0.6,0.1c-0.2,0-0.3,0.1-0.4,0.31c-0.2,0.51-0.6,0.82-1.01,1.22c-0.2,0.2-0.3,0.41-0.4,0.62
				c-0.1,0.31-0.2,0.71-0.3,1.02c-0.5-0.1-0.91,0.1-1.21,0.41c-0.2,0.2-0.2,0.1-0.4,0.1c0-0.1,0.1-0.31,0.1-0.41
				c-0.2-0.21-0.5-0.1-0.7-0.21c-0.71-0.1-1.41-0.1-2.01-0.1c-0.2,0-0.4,0-0.6,0.1c-0.1,0-0.3,0.1-0.4,0.21
				c-0.41-0.62-0.9-0.62-1.51-0.62c-0.3,0-0.6-0.1-0.9,0.2c-0.1,0-0.2,0-0.3,0c-0.5-0.41-0.9-0.1-1.31,0.1c-0.1,0.1-0.3,0.2-0.4,0.2
				s-0.3-0.1-0.5-0.1c-0.1,0-0.2,0.1-0.4,0.1c-0.1-0.31,0-0.51,0.1-0.71c0.1-0.1,0.2-0.31,0.3-0.41c0-0.1,0.1-0.1,0.1-0.2
				c0-0.51,0.4-0.71,0.7-1.02c0.1-0.2,0.3-0.41,0.4-0.51c0.2-0.2,0.31-0.51,0.5-0.71c0.1-0.1,0.2-0.21,0.2-0.41
				c0.1-0.41,0.2-0.71,0.5-1.02c0.2-0.2,0.2-0.62,0-0.92c-0.5,0.2-0.8,0.81-1.21,1.32c-0.1,0.1-0.1,0.31-0.1,0.41s0.1,0.2,0.1,0.31
				c-0.2,0.2-0.4,0.41-0.6,0.51c-0.4,0.2-0.6,0.62-0.6,1.13c0,0.2,0,0.3-0.1,0.41c-0.1,0.1-0.5,0-0.6-0.1c-0.1-0.1-0.1-0.3-0.1-0.51
				c0.1-0.2,0.1-0.51,0.2-0.71c0-0.2,0-0.51,0-0.71c-0.1-0.62-0.1-1.13-0.3-1.64c0-0.1,0-0.2,0-0.2c0.2-0.72,0-1.43,0-2.15
				c0-0.31,0-0.62-0.41-0.62c-0.1-0.31-0.1-0.61,0.1-0.82c0.3-0.41,0.2-0.82,0.1-1.22c0-0.2-0.1-0.41-0.1-0.62c0-0.1,0-0.2,0-0.31
				c0-0.1,0-0.3,0-0.41c0.2-0.41,0-0.82,0-1.22c0-0.21-0.2-0.21-0.41-0.21c0-0.41-0.1-0.61,0.2-0.92c0.2-0.2,0.1-0.51,0-0.82
				c0-0.1-0.1-0.31-0.1-0.41c0-0.41-0.1-0.92-0.1-1.33c0-0.1-0.1-0.21-0.1-0.21c-0.1-0.1-0.1-0.2-0.2-0.3
				c0.3-0.62,0.2-1.23,0.1-1.85c0.01-0.07,0.01-0.15,0.01-0.21c0-0.71-0.41-1.29-0.31-2.04c0-0.2-0.1-0.41-0.1-0.62
				c-0.1-0.31-0.2-0.61-0.3-0.92c-0.1-0.2-0.1-0.41,0.1-0.51c0.2-0.2,0.2-0.51,0.1-0.82c0-0.31-0.2-0.51-0.41-0.62
				c-0.1-0.2,0-0.41,0.1-0.51c0.2-0.2,0.3-0.51,0.2-0.82c-0.1-0.2-0.1-0.41,0-0.51c0.1-0.2,0-0.31-0.1-0.41
				c-0.1,0.1-0.2,0.2-0.3,0.31c-0.1-0.1-0.1-0.1-0.1-0.21c0-0.41-0.1-0.71-0.1-1.12c0.1-0.51,0-1.13-0.3-1.64
				c-0.2-0.2-0.2-0.41,0.1-0.62c0.2-0.1,0.3-0.2,0.5-0.31c0.1-0.1,0.2-0.1,0.3-0.2c0.5-0.71,1.1-1.22,1.81-1.64
				c0.1-0.1,0.2-0.2,0.3-0.31c0.2-0.41,0.41-0.61,0.71-0.92c0.2-0.2,0.5-0.41,0.8-0.41c0.41,0,0.8,0.1,1.21,0.1c0.1,0,0.3,0,0.4,0
				c0.6,0,1.21,0,1.81,0c1,0,2.01,0,3.01,0c0.5,0,0.9-0.1,1.41-0.1c0.3,0,0.5,0.1,0.8,0.21c0.1,0.1,0.2,0.3,0.3,0.41
				c0,0.1,0,0.31,0,0.51c-0.1,0.71,0,1.43,0.1,2.15c0.3,1.22,0.1,2.35,0,3.58c0,0.52-0.1,1.03-0.1,1.64c0,0.41-0.1,0.72-0.1,1.13
				c0,0.31,0,0.62,0,0.92c0,0.51,0.1,1.02,0.1,1.53c0,0.51,0,1.02,0.1,1.43c0.1,0.51,0.2,1.02,0.1,1.53c0,0.1,0,0.1,0,0.21
				c0.1,0.82,0.1,1.74,0.2,2.55c0,0.41,0,0.82,0.1,1.13c0.1,0.41,0.1,0.71,0.2,1.13c0.2,0.61,0.1,1.22,0.1,1.94
				c0,0.41,0,0.71,0.1,1.13c0,0.2,0.1,0.31,0.3,0.31c0.5,0.1,1.01,0.2,1.5,0.31c0.5,0.2,1.1,0.2,1.71,0c0.2-0.1,0.4,0,0.5-0.1
				c0.71-0.1,1.51-0.1,2.21-0.2c0.1,0,0.2,0,0.2,0c0.5,0.1,1.01,0,1.5-0.1c0.41-0.1,0.8-0.2,1.21-0.1c0.4,0.1,0.7,0.2,1.1,0.3
				c0.1,0.31,0.2,0.51,0,0.82c-0.1,0.2,0,0.51,0,0.82c0,0.1,0,0.2,0,0.31c-0.2,0.71,0,1.43,0.1,2.04c0.1,0.41,0.1,0.92,0.1,1.33
				C77.71,88.75,77.81,89.16,78.21,89.47z M76.61,88.65c0.2-0.21,0-0.41,0-0.62c0-0.62,0-1.22-0.1-1.74c0-0.51-0.1-0.92-0.2-1.43
				c-0.1-0.41-0.1-0.92-0.2-1.33c-0.3-0.31-0.6-0.2-0.91-0.2c-0.4,0-0.9,0.31-1.3,0.1h-0.1c-0.4,0.1-0.7,0.1-1.1,0
				c-0.1,0-0.1,0-0.2,0c-0.8,0.1-1.61,0.1-2.41,0.21c-0.4,0-0.7,0.1-1.1,0.1c-0.4,0-0.8,0-1.2-0.1c-0.41-0.21-0.91-0.21-1.31-0.1
				c-0.2,0-0.3,0-0.4-0.2c-0.1-0.2-0.2-0.41-0.31-0.62c-0.4-0.2-0.5-0.41-0.4-0.71c0.2-0.2,0.3-0.31,0.4-0.51
				c0.1-0.41,0.2-0.82,0.1-1.23c-0.1-0.81-0.3-1.63-0.41-2.45c-0.2-0.92-0.2-1.95-0.2-2.86c0-0.21,0-0.31,0-0.52
				c0-0.51-0.1-0.92-0.1-1.43c0-0.41,0-0.92,0-1.33c-0.1-0.92-0.2-1.84-0.3-2.76c-0.1-0.82,0-1.63,0.2-2.35
				c0.1-0.51,0.1-0.92,0.1-1.43c0-0.2,0-0.41,0-0.62c0.1-0.92-0.1-1.74-0.2-2.55c-0.1-0.41-0.3-0.82-0.5-1.23
				c-0.1-0.2-0.2-0.3-0.41-0.3c-0.4,0-0.7-0.1-1.1,0c-0.3,0.1-0.7,0.1-1.1,0.1c-0.8-0.1-1.6,0-2.41,0.1c-0.5,0-1.1,0.1-1.61,0.2
				c-0.41,0-0.41,0-0.41,0.51c0,0.41,0.1,0.82,0.1,1.33c0,0.41,0,0.82,0.1,1.13c0.2,0.1,0.3,0.2,0.5,0.2c0,0.1-0.1,0.31-0.1,0.41
				c-0.1,0.21-0.2,0.31-0.1,0.52c0,0.3,0,0.61,0.1,0.81c0,0.41,0.1,0.72,0.2,1.13c0.1,0.92,0.1,1.74,0.1,2.66
				c0,0.62-0.1,1.13,0.1,1.74c0,0.1,0,0.21,0,0.31c0,0.21-0.1,0.41-0.1,0.62c0.1,0.51,0.2,1.13,0.3,1.64c0,0.31,0,0.71,0.1,1.02
				c0.2,0.62,0.1,1.33,0.3,1.95c0.1,0.2,0.1,0.51,0.2,0.81c-0.1,0.41-0.1,0.92,0,1.33c0.1,0.41,0.1,0.82,0.2,1.33
				c0,0.41,0.1,0.82,0.1,1.23c0,0.31,0.1,0.71,0.1,1.02c0,0.51,0,0.92,0,1.43c0,0.41,0.1,0.82,0.1,1.13c0.1,0.62,0.2,1.13,0.4,1.74
				c0,0.2,0.1,0.41,0.2,0.51c0.1,0.31,0.2,0.51,0.1,0.82c0,0.2-0.1,0.51,0.2,0.61c0.3,0.2,0.6,0.41,1.01,0.41c0.6,0,1.2,0,1.8,0
				c0.6,0,1.21,0.2,1.81,0.2c0.3,0,0.6,0.1,0.9,0.1c0.4,0,0.8,0,1.31,0c0.3,0,0.5,0,0.8,0c0.2,0,0.3,0,0.5,0
				c0.91-0.21,1.91-0.1,2.81-0.21c0.61,0,1.31-0.1,1.91-0.1c0.41,0,0.71-0.1,1.1-0.1c0.5,0,1.01-0.1,1.51-0.1
				C76.3,88.95,76.4,88.75,76.61,88.65z M75.3,91.2c0.3-0.2,0.4-0.51,0.3-0.82c-0.1,0-0.1,0-0.2,0c-0.2,0.31-0.5,0.62-0.7,0.92
				c-0.1,0.1-0.2,0.3,0,0.51C74.89,91.61,75.1,91.31,75.3,91.2z M72.99,93.35c0.5,0,0.6-0.2,0.5-0.92c-0.1-0.1-0.3-0.2-0.4,0
				C72.79,92.74,72.89,93.04,72.99,93.35z M72.89,91.2c-0.3-0.2-0.4,0-0.6,0.2c0,0,0,0.1,0,0.2c0.1,0,0.2,0.1,0.2,0
				C72.59,91.51,72.68,91.31,72.89,91.2z M72.19,92.84c0-0.1,0-0.31,0-0.31c-0.2,0-0.41-0.1-0.5-0.2c0,0.41-0.2,0.41-0.41,0.51
				c-0.2,0.1-0.3,0.2-0.2,0.51c0.2,0,0.4,0,0.6,0c0.1,0,0.1-0.1,0.2-0.1C71.99,93.15,72.08,92.94,72.19,92.84z M71.48,90.9
				c0.41,0.1,0.5,0,0.41-0.41C71.78,90.69,71.68,90.8,71.48,90.9z M71.18,90.69c0.1-0.2,0.1-0.41-0.1-0.41c-0.3,0-0.5,0-0.71,0.21
				c-0.1,0.1-0.2,0.2-0.1,0.31c0,0.2,0.1,0.2,0.2,0.3C70.78,91,71.08,91,71.18,90.69z M67.36,90.69v-0.1c-0.3-0.2-0.5-0.2-0.8,0
				c-0.3,0.21-0.5,0.51-0.8,0.72c-0.5,0.41-0.6,1.22-1,1.74c0.1,0.1,0.1,0.1,0.1,0.2c0.3,0,0.5-0.2,0.71-0.41
				c0.3-0.41,0.6-0.72,1-1.02C66.86,91.51,67.17,91.1,67.36,90.69z M65.45,90.8c0-0.1,0.1-0.21,0-0.31c0-0.1-0.2-0.1-0.3-0.1
				c-0.2,0-0.3,0.1-0.4,0.2c-0.41,0.31-0.71,0.72-1.01,1.13c-0.2,0.41-0.2,0.41,0,0.82c0.41-0.41,0.71-0.71,1.01-1.02
				c0.2-0.2,0.3-0.41,0.5-0.51C65.36,91,65.45,90.9,65.45,90.8z M63.15,91.41c-0.1-0.1-0.3,0-0.4,0.1c-0.2,0.2-0.41,0.41-0.61,0.61
				c-0.1,0.21-0.3,0.41-0.1,0.72c0.41-0.1,0.71-0.51,0.9-0.82C63.05,91.82,63.15,91.71,63.15,91.41z M62.55,90.49
				c0,0,0-0.21-0.1-0.21c0,0-0.1,0-0.2,0c-0.1,0.1-0.2,0.31-0.2,0.62C62.34,90.9,62.45,90.69,62.55,90.49z M61.04,90.49
				c-0.2-0.21-0.2-0.21-0.41,0c-0.3,0.31-0.7,0.71-1.01,1.02c-0.1,0.1-0.1,0.2-0.1,0.31C59.94,91.71,60.73,91,61.04,90.49z
				 M59.94,90.8c0.2-0.1,0.1-0.31,0.2-0.41c-0.6-0.41-1.2-0.2-1.5,0.2c-0.2,0.21-0.2,0.31,0,0.51c-0.3,0.51-0.71,0.72-1.21,0.82
				c-0.2,0-0.4,0.1-0.6,0.2c-0.2,0.1-0.3,0.31-0.5,0.41c-0.2,0.2-0.2,0.31-0.1,0.51c0.2-0.1,0.5-0.2,0.71-0.2
				c0.2-0.1,0.5-0.1,0.8-0.2c0.3-0.1,0.6-0.1,0.8-0.41c0.2-0.2,0.41-0.51,0.61-0.71C59.33,91.2,59.63,91,59.94,90.8z M58.33,86.5
				c0.2-0.31,0.2-0.31,0-0.82c-0.1,0.1-0.2,0.31-0.3,0.41c-0.2,0.41-0.5,0.72-0.71,1.02c-0.2,0.31-0.4,0.72-0.6,1.03
				c-0.1,0.2-0.1,0.3,0,0.51c0.1-0.1,0.1-0.1,0.2-0.1c0.4-0.62,0.8-1.33,1.3-1.95L58.33,86.5z M57.83,83.43c0.1-0.1,0.2-0.3,0-0.51
				c-0.1,0.1-0.2,0.1-0.3,0.21c-0.1,0.1-0.2,0.2-0.3,0.3c-0.3,0.31-0.6,0.62-0.9,1.03c-0.2,0.3-0.5,0.61-0.71,0.92
				c0,0.1,0,0.2,0,0.41c0.3,0.1,0.4-0.1,0.5-0.21C56.72,84.86,57.32,84.15,57.83,83.43z M57.73,77.81c0-0.21,0-0.41-0.1-0.62
				c-0.3-0.1-0.4,0-0.6,0.2c-0.4,0.51-0.8,1.02-1.2,1.43c-0.1,0.1-0.2,0.31-0.3,0.51c0.2,0.2,0.4,0.2,0.6,0
				c0.4-0.51,0.9-0.82,1.41-1.22C57.62,78.01,57.73,77.91,57.73,77.81z M57.02,75.66c0.3-0.2,0.4-0.41,0.2-0.71
				c-0.2,0.1-0.41,0.2-0.5,0.41c-0.2,0.2-0.4,0.41-0.6,0.62c-0.3,0.31-0.5,0.51-0.8,0.82c-0.2,0.2-0.2,0.3,0,0.61
				c0.1,0,0.1,0,0.2-0.1C56.12,76.79,56.62,76.28,57.02,75.66z M57.02,74.53c0.1-0.2,0-0.31-0.1-0.51c-0.2,0.2-0.41,0.41-0.6,0.62
				c-0.2,0.2-0.41,0.41-0.61,0.61c-0.2,0.21-0.3,0.41-0.2,0.72c0.1,0,0.2-0.1,0.2-0.1C56.12,75.46,56.52,74.95,57.02,74.53z
				 M56.72,73.62c0.3-0.21,0.4-0.51,0.3-0.82c-0.2-0.21-0.3,0-0.5,0.1c-0.3,0.31-0.6,0.62-0.9,0.92c-0.1,0.2-0.3,0.31-0.4,0.51
				c-0.1,0.1-0.2,0.31-0.31,0.41c0,0.1,0,0.21,0,0.31h0.2c0.1-0.31,0.5-0.41,0.71-0.62C56.12,74.13,56.42,73.82,56.72,73.62z
				 M56.92,72.08c0.1-0.1,0.1-0.3,0-0.41c-0.1-0.1-0.2-0.1-0.3,0.1c-0.1,0.1-0.2,0.2-0.2,0.2c-0.3,0.41-0.71,0.82-0.9,1.33
				c0,0.1-0.1,0.2-0.2,0.2c-0.41,0-0.5,0.2-0.3,0.51c0.2-0.1,0.4-0.2,0.4-0.31c0.1-0.41,0.41-0.51,0.6-0.71
				C56.32,72.69,56.62,72.39,56.92,72.08z M56.82,70.65c0.1-0.1,0.1-0.2,0-0.51c-0.1,0-0.2,0.1-0.3,0.2
				c-0.6,0.51-1.1,1.13-1.71,1.64c-0.2,0.2-0.2,0.41-0.2,0.61c0.1,0.31,0.3,0.41,0.5,0.21c0.2-0.31,0.5-0.51,0.71-0.92
				c0-0.1,0.1-0.2,0.2-0.31C56.32,71.26,56.62,70.96,56.82,70.65z M56.62,77.4c0.2-0.1,0.3-0.31,0.2-0.51c-0.3-0.1-0.3,0.1-0.4,0.2
				c-0.3,0.31-0.6,0.62-0.9,0.92c-0.1,0.1-0.1,0.31,0,0.51c0.1-0.1,0.2-0.2,0.3-0.31C56.12,77.91,56.32,77.7,56.62,77.4z
				 M56.82,69.01c-0.2-0.2-0.2,0-0.3,0.1c-0.4,0.51-0.9,0.92-1.3,1.43c-0.2,0.2-0.31,0.31-0.5,0.51c-0.1,0.1-0.1,0.1-0.1,0.2
				c-0.1,0.1,0,0.21,0.1,0.21c0.1,0,0.1,0,0.2-0.1c0.2-0.2,0.41-0.41,0.61-0.51c0.2-0.2,0.4-0.41,0.6-0.62
				C56.42,69.94,56.82,69.63,56.82,69.01z M56.42,68.4c0.4-0.2,0.4-0.51,0.4-0.92c-0.1,0-0.3,0-0.4,0.1
				c-0.41,0.41-0.71,0.82-1.01,1.23c-0.2,0.31-0.5,0.61-0.8,0.92c-0.3,0.21-0.3,0.41-0.1,0.82c0.1-0.1,0.2-0.1,0.2-0.2
				C55.32,69.73,55.92,69.12,56.42,68.4z M56.22,86.3c0.5-0.21,0.8-0.62,1.01-1.13C56.72,85.48,56.42,85.68,56.22,86.3z
				 M56.22,64.41c0.1-0.1,0.2-0.41,0.1-0.71c-0.1,0.1-0.2,0.1-0.31,0.2c-0.4,0.41-0.9,0.92-1.3,1.33c-0.1,0.1-0.3,0.31-0.1,0.62
				c0.3,0.1,0.5-0.2,0.71-0.41C55.62,65.13,55.92,64.82,56.22,64.41z M56.02,89.57c0.31-0.1,0.31-0.1,0.41-0.51
				C56.12,89.06,56.02,89.16,56.02,89.57z M55.82,67.68c0.1-0.1,0.2-0.31,0.2-0.31c-0.4,0-0.5,0.31-0.7,0.62
				c-0.2,0.2-0.5,0.41-0.5,0.82c0.1,0,0.1,0,0.1,0c0.2-0.2,0.41-0.31,0.5-0.51C55.62,68.1,55.62,67.89,55.82,67.68z M55.52,62.78
				c0.1,0,0.2-0.1,0.3-0.31c-0.5,0-1.21,0.71-1.21,1.13C55.11,63.6,55.22,62.98,55.52,62.78z M55.32,61.96
				c0.1-0.1,0.1-0.31,0.1-0.41c-0.1,0.1-0.2,0.1-0.3,0.21c-0.3,0.3-0.6,0.61-0.9,0.81c-0.2,0.21-0.2,0.31-0.2,0.62
				C54.21,63.08,55.32,62.16,55.32,61.96z"/>
			<path class="st1" d="M77.81,113.29v0.1c0,0.2-0.6,1.13-0.9,1.22c0-0.41-0.61-0.41-0.8-0.61c-0.41,0-0.91-0.1-1.31-0.1
				c-0.5,0-1.1,0-1.61,0c-0.7,0-1.41-0.1-2.21-0.1c-0.9-0.1-1.8-0.2-2.71-0.3c-0.61-0.1-1.21-0.1-1.71-0.1c-0.3,0-0.7-0.1-1-0.1
				c-0.52-0.06-1.02-0.08-1.52-0.11h13.75C77.8,113.21,77.8,113.25,77.81,113.29z"/>
			<path class="st1" d="M77.78,113.18H64.04c-0.35-0.02-0.71-0.05-1.09-0.09c-0.8,0-1.5-0.1-2.31,0c-1.14,0-2.28,0-3.5,0.09H35.93
				c0.41-0.03,0.84-0.09,1.21-0.09c1.31-0.1,2.71-0.1,4.02-0.2c0.8,0,1.61-0.1,2.41-0.2c1.41-0.1,2.71-0.21,4.11-0.21
				c0.61,0,1.21-0.1,1.91-0.1c0.33,0,0.67-0.02,1.02-0.05c0.71-0.05,1.42-0.12,2.09-0.06c0.31,0,0.71-0.1,1.01-0.1
				c0.71,0,1.51,0,2.21,0c0.41,0,0.8-0.1,1.31-0.1c0.52,0,1.06,0,1.58,0c0.17,0,0.35,0,0.52,0c0.3,0,0.61,0,1.01,0
				c0.8,0.1,1.71-0.1,2.51,0.1c0.1,0,0.3,0,0.4,0c1.41,0.1,2.82,0.2,4.12,0.3c0.41,0,0.8,0.1,1.1,0.1c0.8,0.1,1.61,0.1,2.41,0.2
				c0.9,0,1.71,0.1,2.61,0.1c0.41,0,0.8,0,1.21,0c0.6,0.1,1-0.2,1.5-0.41c0.3-0.1,0.5-0.1,0.8,0
				C77.37,112.67,77.66,112.77,77.78,113.18z"/>
			<path class="st2" d="M77.51,19.72c0,0.41,0,0.82-0.1,1.22c0,0,0,0.1,0,0.2c0,0.31,0,0.62,0,0.92s0,0.51,0,0.71
				c0,0.62,0.1,1.22-0.1,1.84c-0.1,0-0.3,0-0.6,0.31c-0.3,0-0.6-0.1-0.9-0.1c-0.41-0.1-0.71,0-1.1,0c-0.3,0-0.5,0-0.8,0
				c-0.9,0.1-1.81,0.21-2.71,0.1c-0.3-0.1-0.6-0.1-0.9-0.1c-0.41,0-0.71,0-1.01,0.1c-0.3,0-0.7,0.1-1,0c-0.61-0.1-1.1,0.41-1.1,0.92
				c0,0.51-0.1,1.03-0.2,1.54v0.1c0,0.72-0.1,1.43-0.2,2.15c0,0.51-0.1,0.92-0.2,1.43c-0.1,0.31,0,0.71-0.1,1.12
				c-0.1,0.72-0.2,1.54-0.2,2.25c0,0.41-0.1,0.92-0.1,1.33c-0.1,0.62-0.1,1.13-0.1,1.74c0,0.21,0.1,0.31,0.1,0.51
				c0,0.41,0,0.82,0,1.23c0,0.2,0,0.51,0,0.71c0,0.1,0,0.2,0,0.31c-0.1,0.1,0,0.31,0,0.41c0,0.21,0,0.31,0,0.51
				c0,0.41-0.2,0.72-0.1,1.13c0,0.1,0,0.1,0,0.2c0,0.31,0,0.62,0,0.92c0,0.51,0.1,1.13,0.1,1.64c0,0.61-0.1,1.22,0,1.84
				c0.1,0.51,0.1,0.92,0.1,1.43c0,0.62-0.1,1.33-0.1,2.04c-0.1,0.41-0.1,0.92-0.1,1.33c0,0.41,0,0.41-0.41,0.41
				c-0.2,0-0.5,0-0.7-0.1c-0.1-0.1-0.3,0-0.41,0c-0.4,0-0.9,0-1.31,0c-0.2,0-0.5,0-0.7,0c-0.3-0.1-0.6-0.1-0.9-0.2
				c-0.2,0-0.3-0.2-0.3-0.31c0-0.41-0.2-0.82-0.1-1.22c0-0.41,0-0.82,0-1.22c0-0.31-0.1-0.62-0.1-0.92c0-0.31,0-0.51,0-0.71
				c0-0.1,0-0.2,0-0.31c-0.1-0.31,0-0.62,0-0.92c0-0.41,0-0.82,0-1.22c0-0.51,0.1-1.13,0.1-1.64c0.1-0.41,0-0.71,0-1.13
				c-0.1-0.41-0.2-0.92-0.2-1.43c-0.1-0.51-0.1-1.13-0.1-1.64c0-0.62,0.1-1.13,0.1-1.74c0-0.82,0.2-1.64,0.3-2.46
				c0.1-0.41,0.1-0.82,0.1-1.22c0.1-0.62,0.1-1.33,0.2-1.95c0-0.51,0-0.92,0.1-1.43c0-0.61,0-1.33,0.2-1.94c0-0.1,0-0.2,0-0.31
				c0.1-0.41,0.1-0.92,0.2-1.33c0.1-0.1,0.1-0.31,0.1-0.41c0-0.21,0-0.31,0.1-0.41c0-0.2,0.1-0.41,0.1-0.62
				c0-0.3-0.1-0.51-0.41-0.61c-0.4-0.1-0.8-0.1-1.2-0.1c-0.2,0-0.41,0-0.6,0c-0.1,0-0.3,0-0.5,0c-0.41,0.1-0.9,0.1-1.31,0.1
				c-0.3,0.1-0.6,0.1-1.01,0.1c-0.1,0-0.3-0.1-0.4-0.1c-0.1-0.1-0.3-0.1-0.5-0.1c-0.4,0-0.8-0.1-1.2-0.1c-0.3,0-0.6,0-1.01,0
				c-0.3-0.1-0.2-0.51-0.2-0.81c0-0.62,0-1.13,0-1.74c0-0.31,0-0.51,0.1-0.82c0.1-0.31,0.1-0.71,0.2-1.02
				c0.1-0.41,0.4-0.71,0.8-0.71c0.5-0.1,1-0.2,1.6-0.2c0.2,0,0.5,0,0.71,0c0.6,0,1.31,0.1,1.91,0.1c0.5,0,1-0.1,1.5-0.1
				c0.2,0,0.41,0,0.6,0c0.6-0.1,1.31,0,1.91-0.1c0.2,0,0.5,0.1,0.8,0.1c1.31,0,2.61,0,3.92-0.1c0.41-0.1,0.8-0.1,1.21-0.1
				c0.5,0,0.9,0,1.3,0c0.1,0,0.2,0,0.3,0c0.71,0.1,1.31,0,2.01-0.1c0.5,0,1-0.2,1.5-0.2c0.6,0,1.2,0,1.8,0c0,0,0.1,0.1,0.2,0.1
				c0.2,0,0.3,0.1,0.5,0.2c0.1,0.1,0.2,0.1,0.3,0.21C77.4,19.42,77.51,19.51,77.51,19.72z"/>
			<path class="st2" d="M76.61,88.03c0,0.2,0.2,0.41,0,0.62c-0.2,0.1-0.31,0.3-0.5,0.3c-0.5,0-1.01,0.1-1.51,0.1
				c-0.4,0-0.7,0.1-1.1,0.1c-0.6,0-1.3,0.1-1.91,0.1c-0.9,0.1-1.9,0-2.81,0.21c-0.2,0-0.3,0-0.5,0c-0.31,0-0.5,0-0.8,0
				c-0.5,0-0.91,0-1.31,0c-0.3,0-0.6-0.1-0.9-0.1c-0.6,0-1.21-0.2-1.81-0.2c-0.6,0-1.2,0-1.8,0c-0.41,0-0.71-0.21-1.01-0.41
				c-0.3-0.1-0.2-0.41-0.2-0.61c0.1-0.31,0-0.51-0.1-0.82c-0.1-0.1-0.2-0.31-0.2-0.51c-0.2-0.62-0.3-1.13-0.4-1.74
				c0-0.31-0.1-0.71-0.1-1.13c0-0.51,0-0.92,0-1.43c0-0.31-0.1-0.71-0.1-1.02c0-0.41-0.1-0.82-0.1-1.23c-0.1-0.51-0.1-0.92-0.2-1.33
				c-0.1-0.41-0.1-0.92,0-1.33c-0.1-0.3-0.1-0.61-0.2-0.81c-0.2-0.62-0.1-1.33-0.3-1.95c-0.1-0.31-0.1-0.71-0.1-1.02
				c-0.1-0.51-0.2-1.13-0.3-1.64c0-0.2,0.1-0.41,0.1-0.62c0-0.1,0-0.2,0-0.31c-0.2-0.61-0.1-1.12-0.1-1.74c0-0.92,0-1.74-0.1-2.66
				c-0.1-0.41-0.2-0.71-0.2-1.13c-0.1-0.2-0.1-0.51-0.1-0.81c-0.1-0.21,0-0.31,0.1-0.52c0-0.1,0.1-0.3,0.1-0.41
				c-0.2,0-0.3-0.1-0.5-0.2c-0.1-0.31-0.1-0.72-0.1-1.13c0-0.51-0.1-0.92-0.1-1.33c0-0.51,0-0.51,0.41-0.51
				c0.5-0.1,1.1-0.2,1.61-0.2c0.8-0.1,1.61-0.2,2.41-0.1c0.41,0,0.8,0,1.1-0.1c0.41-0.1,0.71,0,1.1,0c0.2,0,0.3,0.1,0.41,0.3
				c0.2,0.41,0.4,0.82,0.5,1.23c0.1,0.82,0.3,1.64,0.2,2.55c0,0.2,0,0.41,0,0.62c0,0.51,0,0.92-0.1,1.43
				c-0.2,0.72-0.3,1.53-0.2,2.35c0.1,0.92,0.2,1.84,0.3,2.76c0,0.41,0,0.92,0,1.33c0,0.51,0.1,0.92,0.1,1.43c0,0.21,0,0.31,0,0.52
				c0,0.92,0,1.94,0.2,2.86c0.1,0.82,0.3,1.64,0.41,2.45c0.1,0.41,0,0.82-0.1,1.23c-0.1,0.2-0.2,0.31-0.4,0.51
				c-0.1,0.31,0,0.51,0.4,0.71c0.1,0.2,0.2,0.41,0.31,0.62c0.1,0.2,0.2,0.2,0.4,0.2c0.4-0.1,0.9-0.1,1.31,0.1
				c0.4,0.1,0.8,0.1,1.2,0.1c0.41,0,0.71-0.1,1.1-0.1c0.8-0.1,1.61-0.1,2.41-0.21c0.1,0,0.1,0,0.2,0c0.41,0.1,0.71,0.1,1.1,0h0.1
				c0.4,0.21,0.9-0.1,1.3-0.1c0.31,0,0.61-0.1,0.91,0.2c0.1,0.41,0.1,0.92,0.2,1.33c0.1,0.51,0.2,0.92,0.2,1.43
				C76.61,86.81,76.61,87.42,76.61,88.03z"/>
			<path class="st1" d="M73.19,99.18c0,0.36,0.08,0.64-0.03,0.98c-0.02,0.05-0.04,0.1-0.06,0.15c-0.3,0.1-0.6,0.1-0.9,0.1
				c-0.41,0-0.91,0.1-1.31,0.2c-0.1,0-0.2,0.31-0.3,0.41c-0.1,0.41-0.1,0.71-0.2,1.13c-0.1,0.3,0,0.51,0.3,0.61
				c0.1,0,0.1,0.1,0.2,0.1c0.5-0.2,1.01-0.2,1.5,0.1c0.27,0.16,0.39,0.38,0.39,0.6c0,0.19-0.1,0.38-0.29,0.52
				c-0.3,0.2-0.5,0.31-0.91,0.31c-0.3,0-0.7,0.2-1,0.31c-0.3,0.1-0.3,0.41-0.3,0.62c-0.1,0.61-0.1,1.33,0,1.94
				c0.1,0.41,0.3,0.71,0.8,0.82c0.2,0,0.4,0,0.6,0.1c0.5,0.1,0.8,0.51,0.8,1.02v0.01c-0.11,0.51-0.71,0.91-1.21,0.81
				c-0.4,0-0.8-0.1-1.2,0c-0.3,0-0.4,0-0.6-0.2c-0.2-0.21-0.5-0.41-0.71-0.62c-0.2-0.2-0.3-0.41-0.4-0.62
				c-0.1-0.31-0.1-0.71-0.1-1.02s-0.1-0.51-0.1-0.82c0-0.2-0.1-0.31,0-0.51c0.3-0.71,0.1-1.43,0.1-2.15c0-0.2,0.1-0.31,0.1-0.51
				c0.1-0.2,0.2-0.51,0-0.71c-0.1-0.2-0.1-0.41,0-0.71c0.1-0.52,0.2-1.13,0.2-1.64c0-0.41,0.3-0.62,0.2-1.02
				c0.3-0.41,0.61-0.82,1.1-0.92c0.41,0,0.8-0.1,1.21,0c0.2,0,0.4,0,0.5,0c0.61-0.1,1.01,0.1,1.51,0.41
				C73.19,98.98,73.19,99.18,73.19,99.18z"/>
			<path class="st1" d="M67.17,108.79c0.1,0.21,0,0.41,0,0.51c-0.1,0.52-0.71,0.92-1.21,0.92s-1.1-0.62-1-1.13
				c0.2-0.61,0-1.22,0-1.94c0-0.35,0-0.7,0-1.04c0-0.27,0-0.53,0-0.8c0-0.31,0-0.62,0-0.92c0-1.02,0.1-2.04,0.1-3.07
				c0-0.1,0-0.19-0.01-0.29c-0.01-0.62-0.09-1.23-0.09-1.76c0-0.1-0.1-0.2-0.1-0.3c-0.1-0.31,0-0.41,0.41-0.52
				c0.3,0,0.5,0.21,0.7,0.21c0.3,0.1,0.2,0.31,0.2,0.61c0,0.31,0.1,0.72,0.2,1.03c0.2,1.02,0.2,2.04,0.2,3.07
				c0,0.51,0.1,1.02,0,1.43c-0.2,1.03,0.2,1.95,0.41,2.87C67.06,108.08,66.97,108.38,67.17,108.79z"/>
			<path class="st1" d="M63.75,100.71c0.03,0.12,0.03,0.24,0.03,0.36c0,0.38-0.13,0.76-0.43,1.07c-0.3,0.41-0.6,0.81-0.9,1.22
				c-0.1,0.2-0.2,0.41,0,0.62c0.3,0.3,0.5,0.61,0.5,1.12c0,0.21,0.2,0.31,0.3,0.51c0.12,0.18,0.17,0.33,0.17,0.5
				c0,0.13-0.02,0.26-0.06,0.43c0,0.1-0.1,0.2-0.1,0.31c0,0.51-0.2,1.02-0.4,1.43c-0.1,0.1-0.2,0.21-0.3,0.31
				c-0.41,0.51-0.9,0.92-1.61,1.13c-0.1,0-0.2,0.2-0.4,0.31c-0.3,0.2-0.71,0.41-1.01,0.51c-0.23,0.08-0.48,0.13-0.73,0.13
				c-0.39,0-0.77-0.12-1.08-0.43c-0.2-0.2-0.31-0.41-0.31-0.62c-0.07-0.22-0.09-0.48-0.09-0.72c-0.01-0.1-0.01-0.21-0.01-0.3
				c0-0.41,0-0.82,0.1-1.22c-0.1-0.41-0.1-0.62-0.2-0.82c0-0.2,0.1-0.41,0.2-0.62c0.1-0.61,0.1-1.33,0.1-1.94
				c0-0.62,0-1.13,0.1-1.74c0-0.62,0-1.13-0.2-1.74c-0.1-0.2-0.1-0.41-0.2-0.51c-0.3-0.51-0.1-0.92,0.2-1.33
				c0.2-0.31,0.61-0.41,1.01-0.31c0.1,0,0.3,0,0.41,0c0.1,0,0.2,0,0.2-0.1c0.1-0.31,0.41-0.31,0.6-0.51
				c0.41-0.31,0.71-0.31,1.21-0.1c0.6,0.3,1.3,0.61,1.8,1.12c0.2,0.21,0.3,0.41,0.5,0.72C63.35,99.9,63.65,100.31,63.75,100.71z
				 M61.74,101.12c0.1-0.41-0.1-0.71-0.3-1.02s-0.5-0.71-0.9-0.82c-0.5-0.1-0.8,0.1-1.21,0.31c-0.1,0-0.1,0.1-0.1,0.2
				c-0.2,0.92-0.2,1.95-0.1,2.87c0,0.3,0.2,0.41,0.4,0.3c0.2,0,0.41-0.1,0.6-0.2c0.41-0.31,0.8-0.61,1.21-0.82
				C61.64,101.74,61.74,101.43,61.74,101.12z M61.44,106.24c0.1-0.51-0.1-0.92-0.3-1.33c0-0.1-0.1-0.1-0.2-0.1c-0.5,0-1,0-1.5,0
				c-0.2,0-0.3,0.1-0.3,0.31c0.1,0.92,0.1,1.74,0.2,2.66c0,0.2,0.2,0.41,0.2,0.51c0.71-0.31,1.31-0.51,1.61-1.12
				C61.34,106.85,61.34,106.54,61.44,106.24z"/>
			<path class="st1" d="M57.13,113.18c-0.07,0-0.14,0.01-0.21,0.01c-0.91,0-1.81,0-2.71,0.1c-1.71,0.1-3.41,0.21-5.13,0.31
				c-0.7,0-1.5,0-2.2,0.1c-0.2,0-0.41,0.1-0.61,0.1c-0.4,0-0.8,0.1-1.2,0.1c-1.71,0.1-3.52,0.2-5.22,0.31
				c-1.3,0.1-2.51,0.2-3.82,0.2c-1.71,0.1-3.41,0.1-5.12,0.1c-1.8,0-3.52-0.1-5.32-0.1c-0.9,0-1.71,0-2.62-0.1
				c-0.9-0.1-1.8-0.2-2.71-0.3c-0.3,0-0.71-0.1-1.01-0.21c-0.26-0.08-0.52-0.41-0.59-0.62h10.74c0.34,0.01,0.66,0.01,0.99,0.01
				c0.8,0,1.51,0,2.31,0c0.9,0,1.9,0,2.81,0c0.13,0,0.25-0.01,0.39-0.01H57.13z"/>
			<path class="st1" d="M56.12,103.27c0,0.21,0,0.41,0,0.62c0,0.41-0.1,0.71-0.3,1.13c0,0.51-0.2,1.02-0.2,1.53
				c0,0.71,0.3,1.33,0.4,2.04c0,0.13,0.05,0.22,0.05,0.34c0,0.05-0.01,0.1-0.05,0.17c-0.1,0.41-0.2,0.72-0.6,0.82
				c-0.5,0.2-0.8,0-1.1-0.2c-0.2-0.1-0.3-0.31-0.4-0.51c0-0.1-0.1-0.2,0-0.2c0.3-0.41,0.1-0.92,0-1.43c-0.1-0.51-0.1-1.02,0-1.64
				c0-0.1,0-0.2,0-0.31c0-0.41-0.2-0.51-0.5-0.41c-0.4,0.1-0.9,0.1-1.31,0.31c-0.3,0.1-0.5,0.31-0.5,0.61c0,0.62-0.1,1.13-0.2,1.64
				c-0.1,0.51-0.2,0.92,0,1.43c0.1,0.2,0.1,0.31-0.1,0.51c-0.1,0.1-0.1,0.2-0.1,0.2c-0.1,0.1-0.2,0.31-0.3,0.41
				c-0.12,0.06-0.27,0.12-0.43,0.12c-0.12,0-0.24-0.03-0.37-0.12c-0.7-0.31-1.01-0.62-0.8-1.43c0.2-0.62,0.3-1.33,0.3-2.04
				c0-0.51,0.1-1.13,0.2-1.64c0.1-0.51,0.2-1.13,0.3-1.64c0.1-0.31,0.1-0.71,0.2-1.02c0.1-0.92,0.2-1.84,0.1-2.86v-0.1
				c-0.1-0.2-0.2-0.51,0-0.71c0.2-0.2,0.5-0.51,0.9-0.41c0.61,0.1,1.1-0.1,1.61-0.2c0.41-0.1,0.9-0.1,1.21,0.2
				c0.3,0.31,0.7,0.62,1,0.92s0.5,0.51,0.71,0.82c0.2,0.2,0.3,0.51,0.3,0.82C56.12,101.74,56.12,102.45,56.12,103.27z M53.2,103.78
				c0.91-0.1,1.21-0.51,1.1-1.33c-0.1-0.71-0.2-1.53-0.8-2.04c-0.3-0.31-0.4-0.31-0.7,0c-0.5,0.41-0.6,1.02-0.71,1.64
				c-0.2,0.1-0.2,0.41-0.2,0.82c0,0.1-0.1,0.1-0.1,0.2c-0.1,0.51,0.1,0.71,0.6,0.71C52.7,103.78,52.9,103.78,53.2,103.78z"/>
			<path class="st0" d="M32.12,79.55c0.1-0.1,0.1-0.2,0.2-0.31c0.3-0.31,0.6-0.71,1.01-0.92c0.2-0.1,0.2-0.2,0.1-0.41
				c0-0.1-0.1-0.1-0.2-0.2c-0.5,0.41-0.8,0.92-1.1,1.53C32.12,79.34,32.12,79.45,32.12,79.55z M28.3,74.74c0.2-0.1,0.3-0.2,0.5-0.41
				c0.2-0.31,0.5-0.62,0.71-0.92c0.1-0.1,0.1-0.3,0.2-0.41c-0.2-0.1-0.2-0.1-0.3,0.1c-0.3,0.41-0.61,0.81-0.91,1.32
				C28.4,74.43,28.4,74.64,28.3,74.74z M42.36,69.32c-0.3,0.2-0.4,0.51-0.6,0.71h0.1C42.06,69.83,42.36,69.63,42.36,69.32z
				 M18.96,80.88c-0.1,0.1-0.3,0.2-0.3,0.2c-0.2,0.31-0.5,0.62-0.8,0.92c-0.2,0.2-0.4,0.41-0.5,0.51c-0.03,0.03-0.07,0.08-0.1,0.11
				c0-0.32,0-0.68,0-1.04c0-0.1,0-0.2-0.1-0.3c-0.2-0.31-0.2-0.62,0-1.03c0-0.1,0-0.1,0-0.2c0-0.31,0-0.61,0.1-0.92
				c0-0.21,0-0.31,0-0.51c0-0.03,0-0.07,0-0.1c0.1-0.2,0.5-0.31,0.3-0.62c0-0.27-0.08-0.38-0.3-0.4c0-0.03,0-0.08,0-0.11
				c0.03-0.31,0.06-0.64,0.07-0.94c0.08-0.13,0.15-0.22,0.23-0.38c0.1-0.1,0.3-0.31,0.4-0.41c0.41-0.41,0.8-0.82,1.21-1.23
				c0.1-0.1,0.2-0.1,0.3-0.1c0.3-0.1,0.3-0.2,0.3-0.41c-0.1,0-0.2,0-0.2,0c-0.3,0.21-0.5,0.41-0.8,0.62c-0.2,0.1-0.3,0.41-0.5,0.51
				c-0.39,0.2-0.59,0.5-0.89,0.8c0.02-0.38,0.05-0.76,0.09-1.11c0-0.07,0-0.13,0-0.2c0.6-0.51,1.1-1.13,1.5-1.84c-0.1,0-0.2,0-0.2,0
				c-0.3,0.31-0.5,0.62-0.8,0.92c-0.17,0.17-0.27,0.36-0.5,0.4c0-0.17,0-0.34,0-0.5c0-0.2,0-0.41,0-0.71
				c0.08-0.17,0.03-0.38,0.01-0.57c0.02,0.02,0.05,0.04,0.08,0.06c0.5-0.41,1.01-0.92,1.41-1.43c-0.3,0-0.4,0.2-0.5,0.31
				c-0.4,0.2-0.6,0.62-0.9,0.82c-0.03,0.03-0.08,0.08-0.1,0.12c0-0.01,0-0.01,0-0.02c0-0.2-0.1-0.51,0-0.71
				c0.08-0.15,0.03-0.31,0.01-0.47c0.02-0.02,0.04-0.04,0.08-0.04c0.1-0.1,0.2-0.31,0.4-0.41c0.61-0.51,1.21-1.13,1.81-1.64
				c0.2-0.2,0.3-0.31,0.3-0.51c-0.1,0-0.2,0.1-0.2,0.1c-0.5,0.31-0.9,0.72-1.41,1.02c-0.3,0.21-0.6,0.52-0.9,0.82
				c-0.03,0.03-0.06,0.07-0.09,0.1c-0.01-0.68,0.01-1.38,0.09-2.15c0-0.03,0-0.06,0-0.1c0.46-0.48,0.94-0.96,1.41-1.43
				c0.1,0,0.1,0,0.1-0.1c-0.1,0-0.2,0-0.3,0c-0.3,0.31-0.7,0.41-0.9,0.82c-0.08,0.08-0.17,0.24-0.3,0.29c0-0.17,0-0.34,0-0.49
				c0-0.51,0.1-1.02,0.1-1.43c0-0.3,0.1-0.61,0-1.02c-0.1-0.1,0-0.31,0.1-0.41c0.7-0.71,1.5-1.43,2.21-2.15
				c0.2-0.2,0.4-0.41,0.6-0.71c0.1-0.1,0.1-0.31,0.1-0.41c0-0.31,1.81-0.61,2.11-0.61c0.5-0.1,0.9-0.1,1.3-0.31
				c0.5-0.1,1.1-0.1,1.61-0.21c0.71-0.1,1.51-0.1,2.21-0.2c0.3,0,0.6,0,0.9-0.1c0.2,0,0.31,0.1,0.41,0.3c0.1,0.41,1,0.52,1.2,0.82
				c0.2,0.41,0.41,0.82,0.6,1.23c0.1,0.1,0.1,0.2,0.2,0.31c0.2,0.3,0.3,0.61,0.5,0.92c0.2,0.31,0.3,0.71,0.6,1.02
				c0.2,0.2,0.3,0.51,0.6,0.72c0.3,0.2,0.5,0.41,0.71,0.71c0,0,0,0,0,0.1c0.1,0.41,0.4,0.62,0.6,0.82c0.5,0.72,0.8,1.02,1.31,1.74
				l0.2-0.82c0.2-0.31,0.41-0.71,0.5-0.92c0.41-1.12,0.8-1.53,1.31-2.55c0.3-0.62,0.6-1.33,0.9-1.95c0.2-0.51,2.01-0.82,2.21-1.33
				c0.1-0.2,0.2-0.3,0.5-0.3c0.8,0,1.61,0,2.51,0c0.3,0,0.5-0.1,0.8-0.1c0.8-0.1,3.21-0.41,4.01-0.41c0.2,0,0.41,0.1,0.6,0.1
				c0,0.62,0.1,1.22,0.1,1.74c0,0.3,0,0.61,0.1,0.92c0,0.1,0,0.31,0,0.41c0,0.21,0,0.41,0,0.72s0.1,0.71,0.1,1.02
				c0,0.2,0,0.31,0,0.51c0,0.41,0,0.71,0,1.13c0,0.1,0.1,0.2,0.1,0.41c0,0.51,0,1.02,0.1,1.43v0.1c0.1,0.31,0.1,0.62-0.1,1.02
				c-0.1,0.1,0,0.31,0,0.41c0,0.2,0,0.41,0,0.62c0,0.1,0,0.1,0,0.2c0.2,0.41,0.1,0.71,0.1,1.13c0,0.61,0,1.22,0.1,1.84
				c0.1,0.41,0,0.81,0,1.22c0,0.2,0,0.41,0.1,0.62c0.1,0.3,0.1,0.61,0.1,1.02c0,0.61,0,1.12,0.1,1.74c0,0.1,0,0.2,0,0.31
				c0,0.71-0.1,1.43-0.1,2.15c0,0.31,0,0.71,0,1.02c-0.1,0.62-0.1,1.22-0.1,1.84c-0.2,0.41,0,0.82-0.1,1.22c0,0.1,0,0.1,0,0.21
				c0.1,0.2,0.1,0.41,0,0.61c0,0.1,0,0.1,0,0.21c0.1,0.3,0.1,0.51,0,0.81c-0.1,0.62-0.2,1.23-0.2,1.84c0,0.51,0,1.03-0.1,1.64
				c0,0.2-0.1,0.51-0.1,0.72c0,0.2-0.2,0.3-0.3,0.41c-0.6,0.51-2.81,1.33-3.41,1.84c-0.1,0.1-0.1,0.2-0.2,0.2c0,0.1,0.1,0.1,0.1,0.2
				c0,0.21-0.3,0.31-0.4,0.31c-0.3,0-0.71-0.1-1.01-0.1c-0.5,0-0.9,0-1.41-0.1c-0.4,0-0.7,0-1.1-0.1c-0.2,0-0.4-0.1-0.6-0.2
				l-0.1-0.1c-0.3,0.1-0.5-0.1-0.71-0.21c0-0.41,0-0.71,0.1-1.02c0-0.2,0-0.41-0.2-0.51c-0.1-0.1-0.1-0.31,0-0.41
				c0.2-0.2,0.2-0.51,0.2-0.82c0-0.71,0-1.53,0-2.25c0-0.51,0-1.02,0-1.53c0-0.41,0-0.82-0.1-1.22c0-0.1,0-0.2-0.1-0.31
				s-0.1-0.31-0.1-0.51c0-0.1,0-0.31,0-0.51c-0.1-0.2-0.1-0.31,0-0.41c0.1-0.3,0.1-0.3-0.1-0.51c-0.3-0.2-0.3-0.3-0.1-0.51
				c0.2-0.2,0.2-0.51,0.2-0.82c0-0.61,0-1.12-0.1-1.74c0-0.1,0-0.31,0-0.41c0-0.1,0-0.21,0-0.21c-0.2-0.2-0.1-0.51,0-0.71
				c0.1-0.31,0-0.62,0-0.92c0-0.3,0.1-0.61,0.1-0.92c0-0.41,0-0.71,0-1.13c0-0.71-0.1-1.43,0-2.15c0-0.2,0-0.3,0-0.61
				c-0.1,0.1-0.2,0.2-0.2,0.31c-0.2,0.51-0.41,1.02-0.71,1.53c-0.2,0.51-0.5,0.92-0.7,1.43c-0.41,0.62-0.71,1.23-1.1,1.74
				c-0.41,0.51-0.71,1.02-1.21,1.43c-0.2,0.21-0.3,0.41-0.4,0.62c-0.1,0.2-0.2,0.31-0.3,0.31s-0.2,0.1-0.3,0.2
				c-0.2,0.2-0.3,0.41-0.5,0.62c-0.1,0.1-0.1,0.1-0.2,0.2c-0.4,0.1-0.6,0.41-0.8,0.71c0,0.1-0.1,0.1-0.1,0.2
				c-0.1,0.21-0.3,0.1-0.4-0.1c-0.1-0.1-0.1-0.2-0.2-0.31c0-0.1-0.1-0.1-0.1-0.2c-0.2-0.62-0.61-1.13-0.91-1.74
				c-0.1-0.1-0.1-0.2-0.2-0.3c-0.2-0.31-0.31-0.52-0.61-0.72s-0.5-0.51-0.7-0.82c-0.1-0.1-0.1-0.1-0.2-0.2
				c-0.1-0.2-0.3-0.31-0.5-0.1c0-0.3-0.2-0.61-0.4-0.81c-0.2-0.21-0.3-0.31-0.41-0.51c-0.1-0.21-0.3-0.31-0.5-0.21
				c-0.1-0.51-0.41-0.82-0.71-1.12c-0.2,0.1-0.2,0.2-0.2,0.3c0,0.82,0.1,1.64,0,2.46c-0.1,0.62,0,1.13,0,1.74
				c0,0.3-0.1,0.71-0.1,1.02c0,0.2,0,0.51,0,0.71c0,0.62,0,1.22,0,1.74c0,0.41,0.1,0.72,0.1,1.13c0,0.41,0,0.82,0,1.22
				c0,0.82,0,1.64,0,2.46c0,0.2,0,0.31,0.1,0.51c0.2,0.51-0.1,0.82-0.5,0.92c-0.3,0.1-0.5,0.2-0.71,0.41
				c-0.4,0.41-0.8,0.82-1.3,1.23c-0.2,0.2-0.3,0.41-0.5,0.51c0,0,0,0.1-0.1,0.1c-0.31,0.1-2.21,0.41-2.52,0.51
				c-0.1,0-0.3-0.1-0.4-0.2c0,0-0.1,0.1-0.2,0.1c-0.2,0.1-0.3,0.1-0.4-0.1c0-0.1-0.2-0.1-0.2-0.1c-0.7,0-1.31-0.1-1.91-0.3
				c-0.3-0.1-0.4-0.21-0.6-0.51c-0.5,0.2-1.01,0.2-1.5,0c-0.1-0.41,0-0.72,0.1-1.03c0-0.1,0.01-0.2,0.02-0.29
				c0.18,0.08,0.19-0.01,0.28-0.11c0.3-0.41,0.6-0.82,0.9-1.22c0.1-0.1,0.2-0.31,0.3-0.41c-0.1,0-0.2,0-0.2,0.1
				c-0.3,0.31-0.6,0.51-1.01,0.82c-0.17,0.06-0.24,0.22-0.28,0.4c0-0.03-0.01-0.06-0.02-0.1c0-0.1,0-0.2,0-0.3
				c0.2-0.21,0.2-0.51,0.2-0.82c0.01,0.06,0.05,0.13,0.1,0.2c0.1-0.1,0.2-0.2,0.3-0.31c0.2-0.31,0.41-0.51,0.71-0.82
				c0.2-0.31,0.4-0.51,0.6-0.82c0.1-0.1,0.1-0.2,0-0.3c-0.3,0.2-0.6,0.51-0.8,0.81c-0.1,0.1-0.2,0.21-0.3,0.31
				c-0.2,0.2-0.41,0.41-0.5,0.62c-0.03,0-0.07,0.03-0.09,0.08c0-0.2,0.02-0.36,0.09-0.59c0-0.31,0.1-0.51,0.1-0.82
				c0-0.1-0.1-0.2-0.1-0.31c-0.2-0.31-0.2-0.31,0-0.62c0.2-0.3,0.3-0.51,0.1-0.92c-0.1-0.1,0-0.31,0-0.41c0-0.27,0.08-0.55,0.1-0.82
				l0.01,0.01c0.1-0.1,0.2-0.21,0.3-0.31c0.4-0.51,0.8-0.92,1.2-1.43C18.87,81.29,19.06,81.18,18.96,80.88z M19.87,88.85
				c-0.3,0.1-0.5,0.2-0.6,0.31c-0.4,0.31-0.7,0.61-1.1,0.82c-0.1,0.1-0.2,0.1-0.1,0.2c0.1,0.1,0.2,0.1,0.3,0.1
				c0.1,0,0.2-0.1,0.3-0.2C19.17,89.77,19.47,89.26,19.87,88.85z M18.06,84.25c0.4-0.2,0.8-0.51,1.1-0.82c0.1-0.1,0.2-0.2,0-0.41
				c-0.3,0.31-0.71,0.62-1.01,1.02C18.06,84.15,18.06,84.25,18.06,84.25z M33.42,80.77c0.1,0,0.3,0,0.2-0.3
				C33.52,80.67,33.42,80.77,33.42,80.77z M17.46,84.25c-0.1,0-0.2,0.1-0.2,0.1s0,0,0.1,0.1C17.36,84.35,17.46,84.35,17.46,84.25z
				 M42.16,80.57c-0.2,0.1-0.31,0.2-0.41,0.31s-0.2,0.2-0.3,0.31c-0.3,0.31-0.6,0.51-0.9,0.82c-0.2,0.2-0.2,0.41-0.1,0.62
				c0.1-0.1,0.2-0.1,0.3-0.21C41.16,81.9,41.76,81.39,42.16,80.57z M33.51,78.85c-0.2,0.19-0.39,0.3-0.39,0.6
				C33.42,79.15,33.42,79.04,33.51,78.85z M33.72,80.36c0.5-0.31,0.71-0.51,0.6-0.71C34.13,79.85,33.93,80.16,33.72,80.36z
				 M41.16,73.2c0.1,0,0.2-0.2,0.3-0.31c0.2-0.2,0.3-0.41,0.5-0.61c0.4-0.31,0.6-0.72,0.6-1.13c0-0.2,0-0.41,0.1-0.51
				c-0.2,0.1-0.2,0.1-0.3,0.2c-0.3,0.71-0.6,1.43-1,2.04C41.25,73,41.25,73.11,41.16,73.2z M48.39,80.47c0.1-0.82,0.2-1.54,0-2.35
				c-0.1-0.31,0-0.62,0-1.03c0-0.3,0-0.71-0.1-1.02c-0.1-0.31-0.2-0.71-0.1-1.02c0-0.2,0.1-0.41,0.1-0.62c0-0.71-0.1-1.43-0.1-2.14
				c0-0.82,0-1.64,0-2.35c0-0.31,0-0.72,0-1.03c0-0.51-0.1-1.12-0.2-1.63c0-0.21,0-0.41-0.1-0.62c0-0.1,0-0.31,0.1-0.62
				c0-0.1,0-0.2,0-0.2c0-0.31,0-0.71,0-1.02s0.1-0.51,0-0.82c0-0.31,0-0.62,0-0.92c0.1-0.51,0.2-1.02,0-1.53
				c-0.1-0.41-1.8-0.2-2.31-0.31c-0.9-0.2-1.8-0.1-2.71,0h-0.1c-0.2,0-0.3,0-0.5,0.1c-0.3,0.1-0.5,0.1-0.7,0.41
				c-0.2,0.41-1.91,0.41-2.01,0.81c-0.1,0.31-0.1,0.62-0.3,0.72c-0.2,0.2-0.3,0.51-0.4,0.82c-0.1,0.2-0.1,0.3-0.2,0.51
				c-0.3,0.41-0.6,0.2-0.7,0.61c0,0.1-0.3,0.62-0.41,0.72c-0.4,0.51-0.2,0.71-0.5,1.33c-0.1,0.2,0.1,0.41,0,0.51
				c-0.2,0.2-0.3,0.41-0.4,0.61c-0.2,0.62,0.2,0.51-0.3,0.82c-0.1,0.1-0.2,0.1-0.2,0.2l-1,0.82c-0.2-0.1-0.61,0-0.8-0.2
				c-0.1-0.1-0.2-0.31-0.3-0.41c-0.3-0.21,0.2,0-0.1-0.31c-0.09-0.19-0.18-0.2-0.27-0.29c-0.11-0.35-0.29-0.62-0.53-0.94
				c-0.5-0.52-1-1.13-1.5-1.64c-0.2-0.21-0.3-0.31-0.41-0.51c0-0.1-0.1-0.21-0.2-0.31c-0.3-0.2-0.41-0.41-0.6-0.71
				c-0.2-0.31-0.41-0.72-0.61-1.03c-0.3-0.41-0.6-0.92-0.9-1.33c-0.1-0.1-0.1-0.2-0.1-0.3c-0.1-0.21-0.2-0.31-0.2-0.51
				c0-0.1-0.1-0.21-0.1-0.31c-0.1-0.51-1.1-0.41-1.41-0.72c-0.2,0-0.3,0-0.5,0c-0.1,0-0.2-0.1-0.41,0c-0.7,0.1-1.5,0.1-2.21,0.31
				c-0.5,0.1-2.41,0.51-2.51,1.02c-0.2,1.02,0,2.05-0.1,3.07c0,0.1,0,0.2-0.2,0.31c-0.1,0-0.1,0.1-0.1,0.2c0,0.1,0,0.2,0,0.31
				c0,0.92-0.1,1.84-0.1,2.76c0,0.51-0.1,1.02,0,1.64c0,0.41,0,0.82,0,1.22c0,0.92-0.1,1.84-0.2,2.76c-0.1,0.82-0.2,1.74-0.41,2.55
				c-0.1,0.82-0.2,1.64-0.2,2.46c0,0.71,0.1,1.43,0,2.15c0,0.71,0,1.53,0,2.25c0,0.31,0,0.62,0,0.82c0.1,0.51,0.1,1.02,0.1,1.64
				c0,0.2,0.1,0.51,0.1,0.82c0,0.2,0.2,0.31,0.3,0.31c0.2,0,0.5,0.1,0.71,0.1c0.8,0,3.22,0,3.92-0.41c0.3-0.1,0.6-0.51,0.6-0.82
				s0-0.62,0-0.92c0-0.61,0.1-1.33,0.1-1.94c0-0.41-0.1-0.82-0.1-1.13c0-0.92,0-1.74,0-2.66c0-0.51,0-1.02,0-1.64
				c0-0.2,0.1-0.51,0.1-0.71c0-0.62-0.1-1.22,0-1.84c0-0.41,0-0.92,0-1.33c0-0.31,0-0.51,0-0.82c0-0.51-0.1-0.92-0.1-1.43
				c0-0.41-0.1-0.82,0-1.33c0-0.21,0-0.41-0.1-0.51c-0.1-0.31-0.2-0.72-0.2-1.03c-0.1-0.61-0.1-1.33-0.2-2.04
				c0-0.2,0.1-0.41,0.1-0.62c0-0.1,0.1-0.1,0.2-0.1c0.5-0.2,1.2,0.1,1.41,0.62c0.3,0.61,0.5,1.22,0.8,1.84
				c0.2,0.3,0.3,0.51,0.5,0.81c0.2,0.21,0.41,0.52,0.5,0.72c0.3,0.41,0.6,0.92,1.01,1.33c0.3,0.31,0.6,0.61,0.9,0.92v0.1
				c0,0.2,0.2,0.31,0.3,0.51c0.1,0.1,0.2,0.2,0.3,0.41c0.3,0.31,0.5,0.72,0.8,1.02c0.41,0.41,0.71,0.82,1.1,1.23
				c0.1,0.1,0.2,0.2,0.3,0.31c0.41,0.51,0.8,1.02,1.1,1.53c0.1,0.2,0.2,0.31,0.3,0.51c0.2-0.1,0.3-0.2,0.41-0.41
				c0.1-0.1,0.2-0.2,0.2-0.3c0.1-0.21,0.3-0.41,0.41-0.62c0.1-0.1,0.2-0.31,0.2-0.41c0.3-0.52,0.7-1.03,1-1.54
				c0.2-0.2,0.3-0.51,0.41-0.71c0.4-0.92,0.8-1.95,1.41-2.76c0.4-0.61,0.8-1.22,1.1-1.84c0.2-0.41,0.5-0.81,0.6-1.22
				c0.1-0.41,0.1-0.92,0.3-1.33c0.1-0.2,0.3-0.41,0.6-0.51c0.41-0.1,0.8,0,1.1,0.2c0.1,0.1,0.2,0.21,0.2,0.31
				c0.1,0.31,0.1,0.62,0.1,0.82c0,0.51,0,0.92,0.1,1.43c0,0.2,0.1,0.51,0.1,0.82c-0.1,0.71,0,1.32-0.2,2.04
				c-0.2,0.92-0.2,1.74-0.3,2.66v0.1c0,0.62-0.1,1.13-0.1,1.74c0,0.31-0.1,0.61,0.1,0.92c0,0,0,0.1,0,0.2c-0.2,0.41-0.1,0.72,0,1.13
				c0.1,0.72,0.2,1.43,0.2,2.04c0,0.31-0.1,0.62-0.1,0.82c0,0.51,0,1.03,0,1.64c0,0.2,0,0.41,0,0.71c0.1,0.41,0.2,0.82,0.3,1.33
				c0.2,0.52,0.31,1.13,0.5,1.64c0.1,0.2,0.1,0.41,0.1,0.62c-0.1,0.41,0,0.82,0.1,1.22c0.1,0.2,0.2,0.31,0.4,0.31
				c0.61,0.1,2.92-0.1,3.52-0.41c0-0.1,0.1-0.31,0.1-0.41c0-0.1,0-0.2,0-0.31c0-0.2,0.1-0.41,0.2-0.61c0.1-0.21,0.1-0.41,0.1-0.72
				c0-0.51,0-0.92-0.1-1.43c0-0.2,0-0.31,0-0.51c0-0.72,0.1-1.43,0.1-2.25C48.29,81.8,48.39,81.08,48.39,80.47z M47.98,90.39
				c-0.1-0.1-0.2-0.1-0.3,0c-0.25,0.21-0.78,0.5-1.36,0.8c-0.35,0.14-0.64,0.26-0.75,0.33c-0.06,0.04-0.1,0.08-0.16,0.13
				c-0.49,0.26-0.93,0.5-1.15,0.69c-0.2,0.2-0.4,0.31-0.5,0.51c-0.1,0-0.1,0.1-0.1,0.2c0.2,0,0.5,0,0.8,0
				c-0.3-0.31-0.3-0.41-0.1-0.51c0.35-0.27,0.7-0.61,1.05-0.89c0.29-0.15,0.61-0.31,0.91-0.46C46.99,90.92,47.86,90.59,47.98,90.39z
				 M45.28,90.49c-0.2-0.1-0.41-0.1-0.6,0c-0.5,0.31-0.91,0.71-1.41,1.02c-0.4,0.31-0.7,0.61-1,1.02c-0.1,0.1-0.2,0.2-0.2,0.31
				c0.2,0.2,0.3,0.1,0.41,0c0.2-0.2,0.4-0.41,0.6-0.51C43.67,91.71,44.37,91,45.28,90.49z M44.47,91.71c-0.1,0-0.1,0-0.2,0
				c-0.4,0.41-0.9,0.71-1.31,1.13c0,0,0,0.1,0,0.2C43.46,92.53,43.97,92.12,44.47,91.71z M43.87,90.69c0.2-0.2,0.2-0.2,0-0.31
				c-0.71,0.2-1.21,0.71-1.71,1.22c-0.2,0.21-0.41,0.41-0.61,0.62c-0.3,0.1-0.3,0.31-0.1,0.62c0,0,0.1,0,0.1-0.1
				c0.5-0.41,0.91-0.92,1.41-1.33C43.26,91.1,43.57,90.9,43.87,90.69z M42.76,89.87c0.1-0.1,0-0.2-0.1-0.31
				c-0.6,0.62-1.2,1.23-1.8,1.84c-0.2-0.2-0.2-0.2-0.1-0.41c0.1-0.1,0.1-0.2,0.2-0.31c0.3-0.31,0.6-0.62,0.9-0.92
				c0.2-0.2,0.31-0.41,0.5-0.61c0,0,0,0-0.1-0.1c-0.1,0.1-0.3,0.2-0.41,0.31c-0.1,0.1-0.2,0.2-0.4,0.31c-0.2,0.2-0.5,0.41-0.71,0.51
				c-0.3,0.2-0.5,0.51-0.4,0.92c0,0,0,0,0,0.1c0,0.31-0.1,0.51,0.1,0.82C40.86,91.71,42.56,90.28,42.76,89.87z M42.46,88.65
				c0.3-0.1,0.3-0.21,0.2-0.62c-0.1,0.1-0.2,0.1-0.3,0.2c-0.4,0.41-0.9,0.82-1.2,1.33c-0.1,0.1-0.2,0.2-0.3,0.1
				c-0.1-0.1-0.1-0.2-0.1-0.31s0.1-0.1,0.1-0.1c0.2-0.2,0.3-0.31,0.5-0.51c0.4-0.41,0.9-0.71,1.2-1.12c0.3-0.41,0.3-0.41,0-0.82
				c-0.1,0.1-0.2,0.3-0.3,0.41c-0.2,0.51-0.6,0.92-0.9,1.33c-0.2,0.2-0.41,0.41-0.61,0.62c0,0.1-0.1,0.1-0.1,0.2
				c0,0.2,0,0.41-0.1,0.62c0.1,0,0.1,0,0.2,0c0.41-0.31,0.8-0.62,1.1-0.92C42.06,88.85,42.16,88.75,42.46,88.65z M42.46,86.19
				c-0.1-0.1-0.2,0-0.2,0.1c-0.3,0.51-0.71,0.92-1.2,1.43c-0.2,0.2-0.31,0.51-0.41,0.71c0,0.1,0,0.1,0,0.21c0,0,0.1,0,0.1,0.1
				c0.1-0.1,0.1-0.1,0.2-0.2c0.3-0.41,0.6-0.82,0.9-1.22C42.06,86.81,42.16,86.5,42.46,86.19z M42.26,85.68c0.1-0.2,0.1-0.31,0-0.51
				c-0.1,0.1-0.2,0.2-0.3,0.31c-0.1,0.2-0.3,0.31-0.41,0.51c-0.2,0.31-0.5,0.51-0.8,0.82c-0.2,0.2-0.2,0.41-0.1,0.71
				c0.1,0,0.1,0,0.1,0c0.31-0.31,0.61-0.51,0.8-0.82C41.86,86.4,42.06,86.09,42.26,85.68z M41.96,82.2c0.3-0.31,0.4-0.62,0.3-1.02
				c-0.1,0.1-0.1,0.1-0.2,0.1c-0.3,0.41-0.6,0.81-1,1.22c-0.2,0.2-0.41,0.41-0.61,0.62c-0.1,0.1-0.2,0.3,0,0.51
				c0.2-0.1,0.3-0.21,0.5-0.41C41.36,82.92,41.66,82.51,41.96,82.2z M41.86,73c0.31-0.1,0.5-0.2,0.41-0.51
				C42.06,72.59,41.96,72.8,41.86,73z M42.16,79.96c0.1-0.1,0.1-0.21,0-0.31C42.06,79.85,42.06,79.85,42.16,79.96z M41.96,78.42
				c0.2-0.3,0.3-0.61,0.2-1.02c-0.2,0.31-0.41,0.51-0.5,0.82c-0.3,0.31-0.5,0.71-0.8,1.02c-0.1,0.1-0.2,0.31-0.41,0.41
				c-0.1,0.31-0.1,0.61-0.1,0.92c0.2-0.1,0.3-0.31,0.4-0.41C41.06,79.55,41.46,78.93,41.96,78.42z M42.06,83.43
				c0.1-0.2,0.2-0.41,0.1-0.81c-0.1,0.1-0.2,0.1-0.2,0.2c-0.41,0.41-0.71,0.71-1.1,1.12c-0.41,0.31-0.3,0.62-0.2,1.13
				c0.1-0.1,0.2-0.2,0.3-0.31C41.36,84.35,41.66,83.84,42.06,83.43z M41.86,84.76c0.31-0.2,0.41-0.51,0.2-0.92
				c-0.1,0.1-0.3,0.2-0.3,0.31c-0.3,0.41-0.6,0.82-1.01,1.12c-0.2,0.21-0.2,0.31-0.1,0.62c0,0,0,0,0.1,0
				C41.06,85.48,41.36,85.07,41.86,84.76z M41.56,76.28c0.61-0.21,0.71-0.41,0.5-0.82C41.96,75.76,41.76,75.97,41.56,76.28z
				 M41.86,75.05c0.1-0.1,0.2-0.2,0.1-0.41h-0.1c-0.3,0.31-0.6,0.51-0.9,0.82c-0.3,0.3-0.4,0.71-0.7,0.92c0,0,0,0.1,0,0.2
				c0,0.21,0,0.51,0,0.72c0,0.1,0,0.2,0,0.41c0.3-0.1,0.3-0.1,0.4-0.2c-0.2-0.2-0.2-0.41-0.1-0.62c0.1-0.2,0.3-0.41,0.4-0.61
				C41.25,75.86,41.56,75.46,41.86,75.05z M41.66,71.57c0-0.2,0.1-0.41,0.2-0.71c-1.3,1.33-1.71,2.55-1.41,3.58
				c0.1-0.2,0.2-0.3,0.3-0.51c-0.3-0.3-0.3-0.3-0.1-0.61l0.1-0.1C41.06,72.69,41.36,72.18,41.66,71.57z M41.46,79.85
				c0.2-0.31,0.5-0.51,0.5-0.82C41.76,79.24,41.46,79.45,41.46,79.85z M41.96,73.82c-0.3,0.2-1.01,1.02-1.01,1.33
				C41.36,74.74,41.86,74.13,41.96,73.82z M41.76,76.89c-0.2,0.1-0.3,0.2-0.4,0.31c-0.3,0.41-0.71,0.82-1.01,1.22
				c-0.1,0.1-0.2,0.31,0,0.51C40.86,78.52,41.66,77.4,41.76,76.89z M41.46,80.57c-0.1,0.1-0.2,0.1-0.3,0.2c0.1,0.1,0.1,0,0,0
				C41.25,80.77,41.36,80.67,41.46,80.57z M40.56,71.88c0.3-0.31,0.3-0.31,0.1-0.41C40.45,71.67,40.45,71.67,40.56,71.88z
				 M33.83,79.34c0.3-0.1,0.3-0.1,0.1-0.41C33.83,79.03,33.72,79.14,33.83,79.34z M32.92,80.77c0.2-0.1,0.2-0.2,0.2-0.41
				c-0.2,0-0.3,0.2-0.3,0.31C32.82,80.67,32.92,80.67,32.92,80.77z M32.62,77.3c0.3-0.21,0.3-0.21,0-0.51
				c-0.2,0.2-0.4,0.41-0.6,0.61c-0.2,0.2-0.4,0.51-0.6,0.72c-0.1,0.1-0.1,0.2,0,0.41c0.1,0.1,0.2,0.1,0.4,0c0.1,0,0.1-0.1,0.1-0.2
				C32.12,78.01,32.42,77.7,32.62,77.3z M32.02,75.97c0-0.1,0-0.1-0.1-0.21c-0.3,0.41-0.71,0.82-0.8,1.33c0.3-0.2,0.6-0.51,0.8-0.81
				C31.92,76.17,32.02,76.07,32.02,75.97z M31.12,76.17c0.3-0.41,0.4-0.51,0.4-0.82C31.31,75.56,31.21,75.86,31.12,76.17z
				 M31.12,77.91c0.1-0.2,0.2-0.31,0.3-0.41C31.21,77.6,31.21,77.6,31.12,77.91z M30.71,74.53c0-0.1,0-0.2,0-0.2
				c-0.1-0.1-0.2-0.1-0.2,0c-0.1,0.1-0.2,0.2-0.31,0.31c-0.1,0.2-0.3,0.41-0.4,0.51c-0.2,0.2-0.3,0.41-0.4,0.71
				c-0.2,0.31-0.1,0.31,0.1,0.41c0.4-0.52,0.6-1.03,1.1-1.54C30.61,74.74,30.71,74.64,30.71,74.53z M30.51,76.07
				c0.4-0.2,0.4-0.2,0.4-0.71C30.82,75.56,30.51,75.76,30.51,76.07z M30.41,77.3c0-0.1,0.1-0.21,0.1-0.31
				c-0.41-0.1-0.41-0.2-0.2-0.51c0,0,0.1-0.1,0.1-0.2c-0.2,0.2-0.5,0.2-0.4,0.51C30.11,76.99,30.31,77.09,30.41,77.3z M30.11,74.13
				c0.1-0.1,0.1-0.21,0.1-0.31c-0.4,0-0.5,0.31-0.6,0.51c-0.2,0.41-0.6,0.71-0.7,1.33C29.41,75.25,29.71,74.64,30.11,74.13z
				 M28.8,72.8c0.1-0.21,0.2-0.41,0.1-0.62c-0.1,0.1-0.2,0.1-0.3,0.2c-0.3,0.41-0.71,0.82-1.01,1.23c0,0.1-0.1,0.1-0.1,0.2
				c-0.1,0.1,0,0.2,0.1,0.31C28,73.62,28.4,73.2,28.8,72.8z M28.5,71.98c0.1-0.1,0.1-0.31,0-0.41c-0.1,0.1-0.1,0.1-0.2,0.21
				c-0.3,0.41-0.61,0.81-0.91,1.12c-0.1,0.1-0.1,0.21-0.2,0.31c-0.2,0.1-0.2,0.2,0.1,0.41c0.3-0.41,0.6-0.72,0.8-1.13
				C28.2,72.29,28.3,72.18,28.5,71.98z M28.2,74.02c0.2-0.1,0.3-0.31,0.41-0.51C28.3,73.62,28.2,73.82,28.2,74.02z M28,71.36
				c0-0.1,0-0.2,0-0.31c0-0.1-0.1-0.1-0.1-0.1c-0.1,0-0.1,0-0.2,0.1c-0.2,0.31-0.4,0.62-0.6,0.92c-0.1,0.31-0.2,0.51,0,0.71
				c0.1-0.1,0.2-0.2,0.2-0.31C27.6,72.08,27.8,71.78,28,71.36z M27,71.47c0.7-0.62,0.7-1.23,0-1.74C27,70.34,26.7,70.85,27,71.47z
				 M25.49,89.36c0-0.41,0.1-0.51,0.2-0.62c-0.5-0.31-0.6-0.31-1,0.1c-0.41,0.31-2.51,0.82-3.01,1.22c-0.1,0-0.1,0.1-0.1,0.1
				c-0.2,0.31-0.3,0.31-0.6,0.31c-0.1-0.21,0-0.31,0.1-0.31c0.5-0.41,2.61-0.92,3.11-1.33c0.1-0.1,0.2-0.2,0.3-0.2
				c-0.2-0.1-0.41-0.1-0.6,0c-0.1,0.1-1.91,0.3-2.01,0.51c-0.6,0.61-1.1,1.12-1.71,1.74c-0.1,0.1-0.1,0.1-0.1,0.2
				c0.3,0.1,1.01,0.1,1.2,0.1c0,0,0.1,0,0.1-0.1c0.6-0.41,2.81-0.92,3.31-1.53C24.89,89.26,25.09,89.16,25.49,89.36z M21.57,88.54
				c-0.1,0-0.1,0-0.2,0c-0.8,0.62-1.61,1.43-2.41,2.25c0.1,0,0.1,0.1,0.2,0.1c0.1,0,0.3-0.1,0.4-0.2c0.1-0.1,0.2-0.2,0.3-0.31
				c0.5-0.51,1.01-1.02,1.51-1.53C21.47,88.75,21.47,88.65,21.57,88.54z M20.27,62.98c0.1-0.1,0.1-0.31,0.1-0.41
				c0-0.1,0-0.2-0.2-0.2l-0.1,0.1c-0.2,0.2-0.3,0.41-0.5,0.51c-0.6,0.41-1,1.02-1.5,1.64c-0.1,0-0.2,0.2,0,0.41
				c0.1-0.1,0.2-0.1,0.3-0.2c0.4-0.41,0.7-0.82,1.1-1.13C19.77,63.39,20.07,63.18,20.27,62.98z M20.07,65.13c0.2-0.1,0.1-0.1,0-0.2
				c-0.4,0.3-0.8,0.61-1.1,0.92c-0.1,0,0,0.1-0.1,0.2c0.2-0.1,0.3-0.2,0.4-0.31C19.56,65.64,19.77,65.33,20.07,65.13z M20.07,71.36
				c0-0.2,0-0.41,0-0.51c0-0.2,0-0.2,0-0.41c-0.2,0.1-0.3,0.2-0.4,0.3c-0.41,0.41-0.8,0.82-1.21,1.23c-0.3,0.31-0.6,0.61-0.8,0.92
				c-0.1,0.1-0.2,0.21-0.1,0.31c0.3,0,0.4-0.1,0.6-0.31c0.5-0.51,1.1-1.02,1.71-1.33C19.97,71.57,20.07,71.47,20.07,71.36z
				 M20.07,69.52c0-0.1,0-0.2,0-0.31c-0.8,0.41-1.2,1.02-1.81,1.53c-0.1,0.1-0.1,0.1-0.1,0.21v0.1c0.1,0,0.1,0,0.1,0
				c0.5-0.41,0.91-0.82,1.51-1.22C19.87,69.73,19.97,69.63,20.07,69.52z M19.77,73.51c0.3-0.2,0.4-0.62,0.2-1.02
				c-0.1,0.1-0.2,0.1-0.3,0.2c-0.31,0.41-0.71,0.82-1.01,1.22c-0.3,0.41-0.71,0.72-1.01,1.03c-0.2,0.1-0.2,0.2-0.1,0.3
				c0.2-0.2,0.5-0.3,0.7-0.51C18.76,74.33,19.26,73.92,19.77,73.51z M19.97,67.79c0.2-0.21,0.2-0.21,0-0.31
				C19.97,67.58,19.97,67.68,19.97,67.79z M19.47,76.07c0.1-0.1,0.1-0.2,0-0.31c-0.2,0.31-0.5,0.62-0.71,0.82
				C19.17,76.58,19.26,76.28,19.47,76.07z M19.06,77.5c0.3-0.1,0.41-0.41,0.3-0.71c-0.4,0.2-0.6,0.61-0.9,0.81
				c-0.2,0.21-0.3,0.41-0.4,0.52c-0.2,0.2-0.3,0.41-0.5,0.61c0,0,0,0.1,0,0.2c0.2-0.1,0.3-0.3,0.4-0.41
				C18.36,78.22,18.66,77.81,19.06,77.5z M19.26,64.62c0.3-0.31,0.71-0.31,0.71-0.82C19.47,64,19.26,64.21,19.26,64.62z
				 M19.26,75.56c0.3-0.31,0.3-0.31,0.41-0.51C19.26,75.25,19.17,75.25,19.26,75.56z M19.47,88.44c-0.1,0-0.1,0.1-0.2,0.1
				c-0.2,0.1-0.3,0.31-0.5,0.41c-0.2,0.1-0.5,0.3-0.5,0.61C18.56,89.36,19.47,88.65,19.47,88.44z M18.06,83.13
				c0.4-0.41,0.8-0.82,1.2-1.23c0-0.2,0-0.31-0.1-0.31c-0.2,0.1-0.3,0.31-0.5,0.51c-0.1,0.21-0.3,0.31-0.41,0.52
				c-0.1,0.2-0.3,0.3-0.3,0.51H18.06z M19.17,86.3l0.1-0.1c0-0.1,0-0.2-0.1-0.2c0,0.1-0.1,0.1-0.1,0.2L19.17,86.3z M19.06,79.03
				c0.2-0.2,0.2-0.51,0.1-0.82c-0.1,0.1-0.1,0.1-0.2,0.2c-0.1,0.1-0.2,0.31-0.3,0.41c-0.41,0.41-0.71,0.71-1.1,1.13
				c-0.1,0.1-0.2,0.3-0.3,0.41c0.1,0,0.2,0,0.2,0c0.2-0.2,0.5-0.41,0.7-0.62C18.46,79.55,18.76,79.24,19.06,79.03z M18.56,88.14
				c0.5-0.1,0.6-0.1,0.7-0.92c-0.1,0.1-0.3,0.2-0.4,0.41C18.76,87.73,18.46,87.83,18.56,88.14z M18.76,67.99
				c0.3,0.1,0.3-0.1,0.41-0.2C18.96,67.79,18.96,67.89,18.76,67.99z M18.66,84.66c0.1-0.1,0.1-0.2,0.1-0.31
				c-0.2,0.1-0.3,0.1-0.4,0.2c-0.3,0.31-0.6,0.62-0.9,0.82c-0.31,0.2-0.31,0.41-0.2,0.71c0.1,0,0.1-0.1,0.1-0.1
				C17.76,85.58,18.26,85.07,18.66,84.66z M18.87,68.19c-0.1,0-0.2,0-0.2,0.1c-0.2,0.2-0.41,0.41-0.6,0.51c-0.1,0-0.1,0.1-0.1,0.2
				c0.1,0,0.1,0,0.1,0C18.36,68.7,18.56,68.5,18.87,68.19z M18.46,80.87c0.3-0.2,0.5-0.51,0.71-0.92c-0.6,0.2-1.61,1.43-1.61,1.84
				C17.96,81.59,18.06,81.18,18.46,80.87z M18.36,80.06c-0.1,0-0.1,0-0.1,0c-0.3,0.2-0.6,0.41-0.8,0.62c-0.1,0.2-0.31,0.31-0.2,0.71
				c0.2-0.2,0.4-0.41,0.6-0.62C18.06,80.57,18.26,80.36,18.36,80.06z M18.16,77.4c0.2-0.1,0.41-0.31,0.5-0.61
				C18.46,76.99,18.26,77.19,18.16,77.4z M17.96,76.89c0.3-0.31,0.61-0.61,0.8-0.92C18.36,76.17,18.16,76.58,17.96,76.89z"/>
			<path class="st1" d="M49.09,106.13c0,0.1-0.1,0.21-0.1,0.31c-0.2,0.72-0.6,1.23-1.1,1.64c-0.2,0.2-0.4,0.51-0.7,0.82
				c-0.1,0.1-0.2,0.2-0.3,0.31c-0.1,0.1-0.2,0.1-0.2,0.2c-0.41,0.51-0.9,0.71-1.51,0.82c-0.1,0-0.1,0-0.2,0
				c-0.5,0.31-1.01,0.1-1.51,0c-0.1,0-0.2-0.1-0.3-0.2c-0.2-0.31-0.4-0.72-0.7-1.02c-0.2-0.31-0.3-0.51-0.2-0.92
				c0-0.62,0.2-1.22,0.3-1.84c0.2-0.92,0.4-1.84,0.5-2.76c0.1-0.82,0-1.64,0.1-2.46c-0.4-0.62-0.1-1.23,0.2-1.74
				c0-0.1,0.1-0.2,0.1-0.3c0-0.1,0.1-0.21,0.2-0.21c0.3-0.1,0.4-0.31,0.5-0.51c0.2-0.61,0.6-0.82,1.2-0.82c0.2,0,0.5,0,0.71-0.1
				c0.4-0.1,0.7,0.1,1,0.41c0.2,0.2,0.3,0.51,0.6,0.71c0.5,0.41,0.5,0.92,0.71,1.54c0,0.1,0.1,0.2,0.1,0.41c0,0.1,0.1,0.2,0.1,0.41
				c0,0.3-0.1,0.61-0.1,0.92c0,0.31-0.1,0.51-0.1,0.82c0,0.2-0.2,0.51-0.1,0.71c0,0.21,0.3,0.41,0.4,0.51c0.1,0.1,0.1,0.21,0.1,0.31
				c0.2,0.41,0.2,0.92,0.41,1.33C49.09,105.62,48.99,105.93,49.09,106.13z M46.78,106.24c0.3-0.41,0-0.92-0.1-1.33
				c-0.1-0.31-0.3-0.62-0.71-0.51c-0.4,0-0.7,0.1-1,0.1c-0.41,0.1-0.41,0.1-0.5,0.51c0,0.41,0,0.82-0.1,1.22
				c-0.1,0.62-0.3,1.22,0,1.84c0.2,0.41,0.5,0.51,0.8,0.31c0.2-0.2,0.5-0.31,0.71-0.51C46.18,107.26,46.68,106.85,46.78,106.24z
				 M45.67,101.84c0.41-0.51,0.5-1.13,0.5-1.84c0-0.41-0.3-0.82-0.71-0.92c-0.4,0.1-0.8,0.41-1,0.92c0,0.2-0.1,0.51-0.1,0.71
				c0.1,0.41,0.1,0.71,0.1,1.02c0,0.41,0.1,0.51,0.5,0.51C45.28,102.25,45.47,102.15,45.67,101.84z"/>
			<path class="st2" d="M33.83,69.31c-0.02-0.1-0.05-0.19-0.08-0.27c0.09,0.08,0.18,0.1,0.27,0.29c0.3,0.31-0.2,0.1,0.1,0.31
				c0.1,0.1,0.2,0.31,0.3,0.41c0.2,0.2,0.6,0.1,0.8,0.2l1-0.82c0-0.1,0.1-0.1,0.2-0.2c0.5-0.31,0.1-0.2,0.3-0.82
				c0.1-0.2,0.2-0.41,0.4-0.61c0.1-0.1-0.1-0.31,0-0.51c0.31-0.62,0.1-0.82,0.5-1.33c0.1-0.1,0.41-0.62,0.41-0.72
				c0.1-0.41,0.4-0.2,0.7-0.61c0.1-0.21,0.1-0.31,0.2-0.51c0.1-0.31,0.2-0.62,0.4-0.82c0.2-0.1,0.2-0.41,0.3-0.72
				c0.1-0.41,1.81-0.41,2.01-0.81c0.2-0.31,0.4-0.31,0.7-0.41c0.2-0.1,0.3-0.1,0.5-0.1h0.1c0.91-0.1,1.81-0.2,2.71,0
				c0.5,0.1,2.21-0.1,2.31,0.31c0.2,0.51,0.1,1.02,0,1.53c0,0.31,0,0.62,0,0.92c0.1,0.31,0,0.51,0,0.82s0,0.71,0,1.02
				c0,0,0,0.1,0,0.2c-0.1,0.31-0.1,0.51-0.1,0.62c0.1,0.2,0.1,0.41,0.1,0.62c0.1,0.51,0.2,1.12,0.2,1.63c0,0.31,0,0.72,0,1.03
				c0,0.71,0,1.53,0,2.35c0,0.71,0.1,1.43,0.1,2.14c0,0.21-0.1,0.41-0.1,0.62c-0.1,0.31,0,0.71,0.1,1.02c0.1,0.31,0.1,0.72,0.1,1.02
				c0,0.41-0.1,0.72,0,1.03c0.2,0.81,0.1,1.53,0,2.35c0,0.61-0.1,1.33-0.1,1.94c0,0.82-0.1,1.53-0.1,2.25c0,0.2,0,0.31,0,0.51
				c0.1,0.51,0.1,0.92,0.1,1.43c0,0.31,0,0.51-0.1,0.72c-0.1,0.2-0.2,0.41-0.2,0.61c0,0.1,0,0.21,0,0.31c0,0.1-0.1,0.31-0.1,0.41
				c-0.6,0.3-2.91,0.51-3.52,0.41c-0.2,0-0.3-0.1-0.4-0.31c-0.1-0.41-0.2-0.82-0.1-1.22c0-0.2,0-0.41-0.1-0.62
				c-0.2-0.51-0.3-1.12-0.5-1.64c-0.1-0.51-0.2-0.92-0.3-1.33c0-0.3,0-0.51,0-0.71c0-0.61,0-1.13,0-1.64c0-0.2,0.1-0.51,0.1-0.82
				c0-0.61-0.1-1.32-0.2-2.04c-0.1-0.41-0.2-0.71,0-1.13c0-0.1,0-0.2,0-0.2c-0.2-0.31-0.1-0.61-0.1-0.92c0-0.62,0.1-1.13,0.1-1.74
				v-0.1c0.1-0.92,0.1-1.74,0.3-2.66c0.2-0.72,0.1-1.33,0.2-2.04c0-0.31-0.1-0.62-0.1-0.82c-0.1-0.51-0.1-0.92-0.1-1.43
				c0-0.2,0-0.51-0.1-0.82c0-0.1-0.1-0.2-0.2-0.31c-0.3-0.2-0.7-0.31-1.1-0.2c-0.3,0.1-0.5,0.31-0.6,0.51
				c-0.2,0.41-0.2,0.92-0.3,1.33c-0.1,0.41-0.41,0.82-0.6,1.22c-0.3,0.62-0.71,1.23-1.1,1.84c-0.61,0.82-1.01,1.85-1.41,2.76
				c-0.1,0.2-0.2,0.51-0.41,0.71c-0.3,0.51-0.7,1.02-1,1.54c0,0.1-0.1,0.3-0.2,0.41c-0.1,0.2-0.3,0.41-0.41,0.62
				c0,0.1-0.1,0.2-0.2,0.3c-0.1,0.21-0.2,0.31-0.41,0.41c-0.1-0.2-0.2-0.31-0.3-0.51c-0.3-0.51-0.7-1.02-1.1-1.53
				c-0.1-0.1-0.2-0.21-0.3-0.31c-0.4-0.41-0.7-0.82-1.1-1.23c-0.3-0.3-0.5-0.71-0.8-1.02c-0.1-0.2-0.2-0.3-0.3-0.41
				c-0.1-0.2-0.3-0.31-0.3-0.51v-0.1c-0.3-0.31-0.6-0.61-0.9-0.92c-0.41-0.41-0.71-0.92-1.01-1.33c-0.1-0.2-0.3-0.51-0.5-0.72
				c-0.2-0.3-0.3-0.51-0.5-0.81c-0.31-0.62-0.5-1.23-0.8-1.84c-0.2-0.52-0.91-0.82-1.41-0.62c-0.1,0-0.2,0-0.2,0.1
				c0,0.21-0.1,0.41-0.1,0.62c0.1,0.71,0.1,1.43,0.2,2.04c0,0.31,0.1,0.72,0.2,1.03c0.1,0.1,0.1,0.3,0.1,0.51
				c-0.1,0.51,0,0.92,0,1.33c0,0.51,0.1,0.92,0.1,1.43c0,0.31,0,0.51,0,0.82c0,0.41,0,0.92,0,1.33c-0.1,0.62,0,1.22,0,1.84
				c0,0.2-0.1,0.51-0.1,0.71c0,0.62,0,1.13,0,1.64c0,0.92,0,1.74,0,2.66c0,0.31,0.1,0.71,0.1,1.13c0,0.61-0.1,1.33-0.1,1.94
				c0,0.31,0,0.62,0,0.92s-0.3,0.71-0.6,0.82c-0.7,0.41-3.11,0.41-3.92,0.41c-0.2,0-0.5-0.1-0.71-0.1c-0.1,0-0.3-0.1-0.3-0.31
				c0-0.31-0.1-0.62-0.1-0.82c0-0.62,0-1.13-0.1-1.64c0-0.2,0-0.51,0-0.82c0-0.71,0-1.53,0-2.25c0.1-0.72,0-1.43,0-2.15
				c0-0.82,0.1-1.64,0.2-2.46c0.2-0.82,0.3-1.74,0.41-2.55c0.1-0.92,0.2-1.84,0.2-2.76c0-0.41,0-0.82,0-1.22
				c-0.1-0.62,0-1.13,0-1.64c0-0.92,0.1-1.84,0.1-2.76c0-0.1,0-0.21,0-0.31c0-0.1,0-0.2,0.1-0.2c0.2-0.1,0.2-0.21,0.2-0.31
				c0.1-1.02-0.1-2.05,0.1-3.07c0.1-0.51,2.01-0.92,2.51-1.02c0.71-0.2,1.51-0.2,2.21-0.31c0.2-0.1,0.3,0,0.41,0c0.2,0,0.3,0,0.5,0
				c0.3,0.31,1.3,0.21,1.41,0.72c0,0.1,0.1,0.2,0.1,0.31c0,0.2,0.1,0.3,0.2,0.51c0,0.1,0,0.2,0.1,0.3c0.3,0.41,0.6,0.92,0.9,1.33
				c0.2,0.31,0.41,0.72,0.61,1.03c0.2,0.3,0.3,0.51,0.6,0.71c0.1,0.1,0.2,0.2,0.2,0.31c0.1,0.2,0.2,0.3,0.41,0.51
				c0.5,0.51,1.01,1.12,1.5,1.64c0.24,0.32,0.42,0.59,0.53,0.94c-0.01-0.01-0.02-0.01-0.03-0.02
				C33.66,68.94,33.77,69.19,33.83,69.31z"/>
			<path class="st3" d="M47.68,90.39c0.1-0.1,0.2-0.1,0.3,0c-0.13,0.2-0.99,0.54-1.66,0.8C46.9,90.88,47.43,90.6,47.68,90.39z"/>
			<path class="st3" d="M46.32,91.18c-0.3,0.15-0.62,0.31-0.91,0.46c0.06-0.05,0.1-0.09,0.16-0.13
				C45.68,91.44,45.97,91.32,46.32,91.18z"/>
			<path class="st0" d="M45.17,38.95c0,0.62,0,1.13-0.1,1.74c0,0.31,0,0.51-0.1,0.82c0,0.2-0.1,0.41-0.1,0.62
				c-0.1,0.62-0.2,1.22-0.3,1.84c-0.1,0.41-0.2,0.82-0.2,1.22c0,0.41-0.1,0.82-0.1,1.23c0,0.1,0,0.2,0,0.3c0,0.21,0,0.41,0,0.52
				c0,0.41,0,0.81,0,1.22c0,0.1,0,0.2,0.1,0.31v0.1c-0.1,0.41,0.1,0.72,0.2,1.13c0,0.1,0.1,0.2,0.1,0.31c0.1,0.2,0,0.31-0.1,0.51
				c-0.2,0.41-0.7,0.62-0.9,0.92c-0.2,0.21-0.41,0.41-0.6,0.62c-0.2,0.2-0.3,0.31-0.41,0.51c0,0.1-0.1,0.1-0.2,0.2
				c-0.1,0.1-0.2,0.21-0.3,0.31c-0.31,0.31-0.5,0.72-0.71,1.02c-0.1,0.1-0.2,0.31-0.3,0.41c-0.1-0.1-0.2-0.1-0.2-0.31
				c0-0.06-0.01-0.11-0.03-0.15c0.1-0.06,0.18-0.14,0.24-0.25c0.2-0.21,0.3-0.52,0.5-0.72c0.1-0.2,0.3-0.31,0.4-0.51
				c0.3-0.31,0.6-0.61,0.9-0.92c0.2-0.1,0.2-0.31,0.1-0.51c-0.3-0.1-0.41-0.1-0.5,0.1c-0.2,0.31-0.4,0.51-0.6,0.82
				c-0.3,0.31-0.6,0.62-0.8,0.92c-0.2,0.2-0.41,0.51-0.6,0.71c0,0.07,0,0.14,0.01,0.21c-0.17,0-0.34,0.02-0.51,0.2
				c-0.2,0.21-0.2,0.21-0.3,0c-0.1-0.1-0.2-0.2-0.3-0.2c-0.19,0-0.4,0-0.61,0.01c0-0.03,0.01-0.07,0.01-0.11c0-0.1,0-0.21,0.1-0.21
				c0.1-0.2,0.3-0.41,0.5-0.61c0.3-0.31,0.5-0.72,0.7-1.02c0,0,0-0.21,0.1-0.21c0.1-0.2,0.3-0.41,0.6-0.51c0-0.1,0-0.2-0.1-0.2
				c-0.1,0-0.1,0-0.2,0c-0.1,0.1-0.3,0.2-0.41,0.31c-0.5,0.51-0.9,1.02-1.41,1.53c-0.1,0.1-0.2,0.31-0.4,0.41
				c-0.19,0.29-0.46,0.48-0.66,0.76c-0.09,0.03-0.19,0.06-0.24,0.06c-0.1,0-0.31,0.1-0.31,0.1c-0.37-0.1-0.65-0.01-1.01,0
				c0.07-0.1,0.14-0.23,0.22-0.31c0.2-0.2,0.4-0.41,0.6-0.62c0.5-0.41,1.1-0.92,1.6-1.32c0.1-0.1,0.31-0.31,0.2-0.52
				c-0.1,0-0.2,0.1-0.3,0.1c-0.5,0-0.8,0.41-1.2,0.71c-0.3,0.31-0.5,0.62-0.8,0.82c-0.3,0.31-0.71,0.62-0.9,1.02
				c-0.04,0.04-0.07,0.08-0.07,0.13c-0.17-0.06-0.22-0.26-0.34-0.74c0-0.1,0-0.21,0-0.31c0.1-0.2,0.1-0.41,0.1-0.62
				c-0.1-0.51,0-1.13,0.2-1.64c0-0.1,0-0.2,0.1-0.3c0.2-0.41,0-0.92,0.1-1.33c0-0.41,0-0.82,0-1.23c0-0.1,0-0.31-0.2-0.31
				c-0.1-0.1-0.1-0.2,0-0.41l0.1-0.1c0.12-0.15,0.19-0.33,0.22-0.52c0.31-0.06,0.46-0.34,0.38-0.71c-0.17,0.03-0.28,0.06-0.36,0.09
				c-0.01-0.13-0.02-0.26-0.05-0.4v-0.1c0.1-0.92-0.2-1.74-0.2-2.56c0-0.1-0.01-0.22-0.02-0.33l0.02,0.02l0.1-0.1v-0.1
				c0-0.2,0-0.41,0.2-0.51c0.4-0.41,0.8-0.92,1.2-1.33c0.3-0.31,0.41-0.82,0.3-1.22c-0.2,0.2-0.4,0.41-0.6,0.61
				c-0.2,0.21-0.4,0.52-0.6,0.72c0,0.1-0.1,0.1-0.1,0.2c-0.1,0.2-0.1,0.51-0.2,0.62c-0.2,0.2-0.29,0.39-0.39,0.68
				c-0.03-0.16-0.08-0.31-0.11-0.48c-0.05-0.16-0.13-0.36-0.24-0.5c0.06-0.03,0.1-0.07,0.15-0.12c0.1-0.1,0.1-0.2,0.2-0.2
				c0.41-0.41,0.71-0.82,1.01-1.33c0.1-0.1,0.2-0.2,0.1-0.31h-0.1c-0.2,0.1-0.3,0.31-0.5,0.41c-0.3,0.3-0.6,0.51-0.9,0.82
				c-0.1,0.1-0.2,0.2-0.2,0.41c0,0,0,0.06,0,0.13c-0.03-0.01-0.06-0.02-0.1-0.02c-0.1,0-0.2,0-0.2,0c-0.2,0.1-0.4,0.1-0.6,0
				c-0.1,0-0.3,0-0.41,0c-0.08,0-0.15,0-0.23,0.01c0.01-0.03,0.02-0.07,0.03-0.11c0.1-0.1,0.2-0.31,0.3-0.41
				c0.1-0.1,0.1-0.21,0-0.31h-0.1c-0.2,0.2-0.4,0.41-0.6,0.51c-0.16,0.17-0.19,0.2-0.08,0.37c-0.04,0.01-0.08,0.02-0.11,0.03
				c0,0-0.1,0-0.2,0c-0.2-0.2-0.5-0.1-0.71-0.1c-0.3,0-0.5,0.2-0.5,0.51v0.1c0.1,0.62,0,1.23,0.1,1.95c0.1,0.62,0,1.22,0.1,1.95
				c0,0.1,0,0.3,0.1,0.41c0.1,0.41,0.1,0.92,0.2,1.43c-0.1,0.41,0.2,0.81,0.2,1.22c0,0.41,0.2,0.71,0.3,1.13
				c0.1,0.41,0,0.82-0.4,1.02c-0.3,0.2-0.61,0.41-0.8,0.82c-0.2,0.31-0.5,0.61-0.8,0.92c-0.41,0.41-0.71,0.92-0.8,1.53
				c-0.3-0.1-0.5,0.41-0.71,0.41c-0.1-0.1-0.2-0.31-0.4-0.31c-0.1-0.1-0.3-0.1-0.4-0.1c-0.06-0.01-0.13-0.02-0.19-0.02
				c0.2-0.29,0.5-0.59,0.69-0.9c0.2-0.2,0.3-0.41,0.5-0.62c0.1-0.1,0.1-0.2,0-0.41c-0.5,0.31-0.9,0.61-1.2,1.12
				c-0.1,0.21-0.3,0.41-0.5,0.62c-0.08-0.08-0.1-0.02-0.03,0.13c-0.29-0.03-0.59-0.05-0.87-0.08c0.13-0.01,0.24-0.08,0.31-0.14
				c0.3-0.41,0.5-0.72,0.8-1.13c0.1-0.2,0.2-0.31,0.4-0.51c0.3-0.2,0.5-0.62,0.71-1.02c-0.1-0.1-0.2-0.21-0.3-0.1
				c-0.2,0.2-0.41,0.41-0.5,0.62c-0.2,0.31-0.41,0.61-0.71,0.82c-0.4,0.3-0.7,0.81-1,1.12c-0.1,0.1-0.1,0.21,0.1,0.31
				c0.01,0.01,0.03,0.01,0.05,0.02c-0.05-0.01-0.1-0.01-0.15-0.02c-0.2,0-0.5,0-0.71,0.2c-0.6,0.31-0.7,0.41-0.8,0.41
				c-0.1,0-0.2,0.1-0.2,0.1c-0.2,0.1-0.31,0.1-0.5,0c-0.1-0.1-0.2-0.1-0.3-0.1c-0.3,0-0.61,0-0.91,0c-0.1,0-0.3,0-0.4,0.1
				c-0.1,0.1-0.2,0.1-0.3-0.1c-0.1-0.2-0.6-0.31-0.71-0.2c-0.1,0-0.1,0.2-0.2,0.3c-0.1,0-0.1-0.1-0.2-0.1c0-0.41,0-0.71,0-1.13
				c0-0.2,0-0.31,0-0.51c0-0.1,0-0.31,0-0.41c0-0.21,0.1-0.41,0.1-0.62c0-0.51,0.1-1.13,0.1-1.64c0-0.41-0.1-0.71-0.1-1.13
				c0-0.1,0-0.2,0-0.3c0.1-0.21,0.1-0.41,0.1-0.62c-0.1-0.51-0.1-0.92-0.2-1.43c0-0.1-0.1-0.1-0.1-0.1c-0.1-0.1-0.2-0.21-0.1-0.31
				c0.1-0.2,0.2-0.51,0-0.82c0-0.1,0-0.2,0-0.31c0.1-0.2,0.1-0.51,0-0.71c0-0.1-0.1-0.2-0.2-0.2c-0.2-0.1-0.2-0.21-0.1-0.41
				c0.2-0.31,0.2-0.62,0.1-0.92c0-0.51,0-1.03,0-1.54c0-0.41,0-0.71-0.1-1.02c0-0.1,0-0.2-0.2-0.31c-0.2,0-0.3-0.2-0.2-0.41
				c0.1-0.2,0.2-0.41,0.1-0.71c0-0.1,0-0.21,0-0.31c0-0.1,0-0.2,0-0.41c0-0.1,0-0.1,0-0.2c0.1-0.41,0-0.71-0.2-1.02
				c-0.1-0.2-0.2-0.41,0-0.62c0.1-0.2,0.1-0.41,0.1-0.61c-0.1-0.41-0.1-0.82-0.1-1.13v-0.1c-0.2-0.3-0.1-0.61-0.1-0.92
				c0-0.1,0-0.1,0-0.2c0.1-0.41,0.2-0.72-0.1-1.13c0-0.1,0-0.2,0-0.31c0.2-0.2,0.2-0.51,0-0.82c0-0.1,0-0.2,0-0.31
				c0.2-0.41,0.1-0.82-0.1-1.22c-0.1-0.2-0.1-0.31-0.1-0.51c0-0.1,0-0.2,0-0.31c-0.1-0.31-0.2-0.71-0.2-1.02
				c-0.1-0.41-0.1-0.71-0.2-1.13c0-0.2-0.1-0.31-0.3-0.41c-0.1,0-0.2-0.2-0.1-0.41c0-0.1,0.1-0.2,0.1-0.41s0-0.31,0-0.51
				c0-0.31,0-0.31-0.3-0.41c-0.1,0-0.2-0.2-0.1-0.31c0-0.1,0.1-0.2,0.2-0.3c0.2-0.21,0.2-0.51,0.2-0.72c-0.1-0.3-0.1-0.71-0.2-1.12
				c-0.1,0-0.2,0.1-0.31,0.1c-0.1,0-0.2,0-0.3-0.1c-0.1-0.1,0-0.21,0.1-0.31c0.1-0.1,0.2-0.1,0.2-0.2c0.1-0.1,0.2-0.31,0.31-0.41
				c0.1-0.1,0.1-0.1,0.2-0.2c0.41-0.31,0.91-0.62,1.31-1.02c0.1-0.1,0.2-0.2,0.2-0.31c0.3-0.31,0.5-0.51,0.8-0.82
				c0.2-0.2,0.3-0.31,0.5-0.51c0.2-0.2,0.3-0.31,0.3-0.62c0-0.1,0-0.2,0.1-0.31c0.1,0,0.2,0,0.3,0c0.2,0.1,0.5,0,0.7-0.1
				c0.2-0.1,0.41-0.1,0.61-0.1c0.2,0,0.5,0,0.7,0c0.3,0,0.71-0.1,1.01-0.1c0,0,0.1,0,0.2,0c0.1,0,0.1,0.1,0.2,0.1c0.3,0,0.6,0,0.9,0
				c0.31,0,0.61,0.1,0.91,0.1c0.2,0,0.3,0,0.5,0.1c0.3,0.1,0.5,0.1,0.8,0.21c0.31,0,0.5,0.2,0.8,0.1c0.3-0.1,0.6,0,0.91,0.2
				c0.1,0.1,0.2,0.41,0.1,0.62c-0.2,0.31-0.2,0.71-0.1,1.13c0.1,0.41,0.1,0.82,0.1,1.13c0,0.3,0,0.61,0,0.92c0,0.62,0,1.13,0,1.74
				c0,0.3,0,0.61,0,0.92c0,0.2,0,0.31,0,0.51c0,1.13,0,2.25,0.2,3.48c0,0.31,0,0.62,0,0.82c0,0.41,0.1,0.82,0.2,1.22
				c0.1,0.31,0.3,0.41,0.5,0.41s0.3,0,0.5,0c0.3,0,0.71-0.1,1.01-0.1s0.4-0.1,0.4-0.41c0-0.41,0-0.82,0-1.23c0-0.1,0-0.2-0.1-0.41
				c-0.1-0.2-0.1-0.31,0-0.51c0.2-0.51,0.2-1.02,0-1.43c0-0.1,0-0.2,0-0.31c0-0.2,0.1-0.41,0.1-0.61c0-0.21,0-0.31-0.1-0.51
				c-0.2-0.31-0.2-0.62,0-0.92c0.1-0.2,0.1-0.41,0.1-0.71c-0.1-0.51,0-0.92,0-1.43c0-0.31,0.1-0.61,0.1-1.02c0-0.31,0-0.62,0.1-0.92
				c0-0.21,0.1-0.41,0.3-0.62c0.5-0.31,0.8-0.71,1.31-1.02c0.1-0.1,0.2-0.2,0.3-0.41c0.3-0.31,0.5-0.61,0.8-0.82
				c0.1-0.1,0.3-0.2,0.4-0.2c0.5,0,0.9,0,1.41,0c0.1,0,0.2,0,0.3,0.1c0.41,0.2,0.71,0.2,1.1,0.2c0.3,0,0.6,0,0.9-0.1
				c0.71,0,1.41,0,2.11-0.1c0.6,0,1.31-0.1,1.91-0.1c0.3,0,0.4,0,0.4,0.31c0,0.2,0,0.41-0.1,0.62c-0.1,0.31-0.2,0.71-0.2,1.12
				c0,0.31,0,0.62,0,0.92c0.03,0.2,0.05,0.4,0.05,0.59c0,0.37-0.05,0.71-0.05,1.05c0,0.61,0,1.13,0,1.74c0,1.23,0,2.46,0,3.68
				c0,0.51,0.1,0.92,0.1,1.43s0,1.02-0.1,1.43c0,0,0,0,0,0.1c0.1,0.71,0.1,1.53,0.2,2.25c0.2,1.03,0.2,2.15,0.3,3.17
				c0,0.52,0,1.13,0,1.64S45.17,38.44,45.17,38.95z M44.37,39.05c0-0.61,0-1.12-0.1-1.74c0-0.51-0.1-1.02,0-1.43
				c0-0.61,0-1.12-0.1-1.74c-0.1-0.62-0.2-1.13-0.2-1.74c0-0.41-0.1-0.92-0.1-1.33c0-0.31,0-0.72,0-1.02c0-0.21,0-0.41,0-0.62
				c0-0.31,0-0.51-0.1-0.82c0-0.2,0-0.41,0-0.62c0-0.41-0.1-0.71-0.1-1.12c0-0.62,0-1.13,0-1.74c0.1-0.71-0.1-1.53,0-2.25
				c0.1-0.62,0-1.33,0.1-2.05c0-0.41,0-0.81,0-1.22c0-0.2-0.1-0.31-0.1-0.51c0-0.1-0.1-0.1-0.2-0.1c-0.2,0-0.4-0.1-0.6,0
				c-0.6,0-1.2,0-1.8,0c-0.1,0-0.31,0-0.41,0c-0.5,0-1.01,0.1-1.5,0.1c-0.3,0-0.71,0-1.01,0c-0.2,0.31-0.3,0.62-0.3,0.92
				c0,0.3,0,0.51-0.1,0.71c-0.1,0.1-0.1,0.2-0.1,0.41c0,0.31-0.1,0.62-0.1,1.02c0,0.72-0.1,1.33-0.1,2.05c0,0.82,0,1.63,0,2.45
				c0,0.31,0,0.62,0,0.92c0,0.71,0,1.43,0,2.04c0,0.51-0.1,1.13,0,1.64c0,0.2-0.1,0.41-0.2,0.51c-0.41,0.31-0.9,0.41-1.31,0.2
				c-0.2-0.1-0.5-0.2-0.7-0.2c-0.5,0-0.91,0-1.41,0.1c-0.1,0-0.31,0-0.41,0c-0.5,0-1.01,0.1-1.41,0.3c-0.5,0.21-0.9,0.31-1.41,0.31
				c-0.2,0-0.41-0.1-0.5-0.31c-0.1-0.2-0.2-0.41-0.1-0.71c0-0.41,0-0.71,0-1.13c0-0.51-0.1-0.92-0.1-1.43c0-0.71-0.1-1.33-0.1-2.04
				c0-0.31,0-0.62,0-0.92c0-0.51,0.1-1.02,0.1-1.53c0-0.2,0-0.31,0-0.51c0-0.41-0.1-0.82-0.1-1.23c0-0.71,0-1.43-0.1-2.14
				c0-0.51-0.2-1.03-0.5-1.43c0-0.1-0.1-0.1-0.1-0.1c-0.31-0.1-0.61-0.3-0.91-0.3c-1-0.31-2.01-0.21-2.91-0.31c-0.1,0-0.2,0-0.3,0.1
				c-0.2,0.31-0.41,0.41-0.8,0.31c-0.1,0-0.2,0-0.41,0c-0.2,0-0.3,0.1-0.3,0.31c-0.2,0.51-0.1,1.13-0.1,1.64
				c0,0.61,0.1,1.13,0.2,1.74c0,0.2,0.1,0.41,0.1,0.51c0.1,0.72,0.1,1.33,0.1,2.05c0,0.41,0.1,0.71,0.1,1.12
				c0,0.21,0.1,0.41,0.1,0.62c0,0.1,0,0.31,0,0.41c0,0.41,0.1,0.82,0.1,1.23c0,0.61,0.1,1.33,0.1,1.94c0.1,0.62,0.1,1.33,0.1,1.95
				c0,0.2,0,0.41,0,0.62c0,0.51,0.2,1.12,0.1,1.64c0,0.1,0,0.1,0,0.2c0,0.1,0,0.2,0.1,0.31c0.1,0.51,0.1,1.12,0,1.63
				c0,0.1,0,0.21,0,0.31c0,0.41,0.1,0.82,0.1,1.23c0,0.51,0,1.02,0.1,1.53c0,0.61,0.1,1.33,0.1,1.94c0,0.21,0,0.41,0,0.62
				c0,0.31,0,0.51,0,0.82c0,0.1,0,0.2,0,0.31c0,0.41,0,0.71,0,1.13c0,0.41-0.1,0.92-0.1,1.33c0,0.71-0.1,1.43,0,2.14
				c0.1,0.41,0,0.82,0,1.23c0,0.31,0.1,0.61,0.3,0.82c0.2,0.2,0.5,0.3,0.7,0.2c0.41,0,0.9,0,1.31-0.1c0.2,0,0.4,0,0.6-0.1
				c0.2,0,0.3-0.1,0.41-0.1c0.5-0.1,1-0.1,1.41-0.1c0.1,0,0.1,0,0.2,0c0.5,0.41,0.71,0.51,0.91,0.51c0.2-0.41,0.1-0.81,0.1-1.22
				c0-0.31-0.1-0.71-0.1-1.02c0-0.2,0-0.41-0.1-0.71c0-0.2-0.1-0.41-0.1-0.62c0-0.41,0-0.92-0.1-1.33c0-0.62-0.1-1.22-0.1-1.84
				c0-0.1,0-0.1,0-0.2c0-0.41-0.1-0.92-0.1-1.33c0-0.31,0-0.62,0-0.92c0-0.61,0.1-1.22-0.1-1.84c-0.1-0.51,0-0.92,0.41-1.22
				c0.1,0,0.1-0.1,0.2-0.1c0.4-0.3,0.9-0.51,1.41-0.3c0.3,0.1,0.6,0.2,0.9,0.41c0.1,0.1,0.2,0.1,0.3,0.1c0.1,0,0.2,0,0.3,0
				c1.2,0,2.31,0,3.52,0c0.2,0,0.4-0.1,0.6-0.21c0.3-0.2,0.5-0.3,0.9-0.3c0.3,0,0.5,0.1,0.6,0.41c0.1,0.31,0.1,0.71,0,1.02
				c-0.1,0.31-0.2,0.71-0.2,1.13c0,0.2-0.1,0.31-0.1,0.51c-0.1,0.31-0.1,0.62-0.2,0.82c-0.1,0.51-0.1,1.02-0.1,1.43
				c0,0.21-0.1,0.41-0.1,0.72c0,0.2,0,0.41,0,0.51c0,0.41,0,0.82,0,1.33c0,0.31,0,0.61,0.1,0.92c0,0.31,0,0.72,0.1,1.02
				c0,0.21,0.1,0.41,0.1,0.62c0,0.1,0.1,0.2,0.1,0.41c0,0.52,0,0.92,0.1,1.43c0,0.41,0.1,0.51,0.5,0.51c0.3,0,0.61,0,0.91,0
				s0.5,0,0.8,0c0.3,0,0.6,0,0.9,0c0.1,0,0.2,0,0.3,0c0.3,0,0.7,0,1,0c0.1,0,0.2-0.1,0.2-0.2c0.1-0.41,0.1-0.71,0.2-1.13
				c0-0.71,0-1.33,0-2.04c0-0.51,0.1-1.02,0-1.53v-0.1c0.2-0.41,0.2-0.92,0.2-1.33c0.1-0.62,0.2-1.13,0.2-1.74
				c0.1-0.51,0.2-1.02,0.2-1.43C44.27,40.38,44.37,39.66,44.37,39.05z M37.84,48.46c-0.1-0.1-0.1-0.1,0-0.2
				c-0.1-0.21-0.2-0.31-0.3-0.21c-0.1,0.1-0.2,0.1-0.2,0.21c-0.2,0.2-0.4,0.41-0.5,0.61c-0.2,0.21-0.4,0.51-0.5,0.82
				c-0.1,0.31-0.31,0.62-0.5,0.92c0,0,0,0,0,0.1c0,0.1,0.1,0.1,0.2,0.21c0.31-0.52,0.61-0.92,0.91-1.43
				C37.24,49.07,37.44,48.66,37.84,48.46z M37.74,49.38C37.74,49.28,37.64,49.28,37.74,49.38c-0.41,0-0.61,0.1-0.8,0.31
				c-0.1,0.2-0.3,0.31-0.41,0.51c-0.1,0.2-0.3,0.41-0.4,0.62c-0.1,0.2-0.3,0.51-0.5,0.71c-0.1,0.1-0.1,0.2-0.2,0.2
				c-0.1,0.1-0.1,0.21,0,0.31c0.2-0.1,0.2-0.1,0.3-0.51c0.3-0.1,0.41-0.31,0.61-0.51c0.2-0.2,0.4-0.51,0.5-0.71
				c0.2-0.2,0.41-0.51,0.61-0.71C37.64,49.59,37.64,49.38,37.74,49.38z M37.44,51.32v-0.2c0,0-0.1,0-0.2,0c0,0-0.1,0-0.1,0.1
				c-0.2,0.21-0.4,0.41-0.6,0.62c-0.19,0.2-0.29,0.41-0.49,0.6c-0.01-0.03-0.01-0.04-0.01,0.01c0.01-0.01,0.01-0.01,0.01-0.01
				c0.01,0.04,0.04,0.12,0.09,0.22c0.1,0,0.1-0.1,0.2-0.1c0.1-0.1,0.2-0.2,0.3-0.3C36.94,51.94,37.14,51.63,37.44,51.32z
				 M37.34,46.82c0.1-0.1,0.1-0.2,0.1-0.31c-0.1-0.1-0.2-0.1-0.31,0c-0.1,0.1-0.3,0.2-0.4,0.41c-0.2,0.2-0.4,0.51-0.6,0.82
				c0.2,0.1,0.4,0.1,0.5-0.1C36.84,47.33,37.14,47.02,37.34,46.82z M37.34,45.09c0.1-0.1,0.1-0.41,0-0.82c-0.1,0.1-0.2,0.1-0.2,0.1
				c-0.3,0.31-0.5,0.72-0.7,1.02c-0.1,0.1-0.1,0.21,0,0.41c0.2,0.1,0.3,0,0.5-0.2C37.04,45.39,37.14,45.29,37.34,45.09z
				 M37.14,54.18c0-0.1,0-0.1-0.1-0.2c-0.1,0-0.1,0.1-0.2,0.1c0,0.1,0,0.2,0.2,0.3C37.04,54.29,37.14,54.29,37.14,54.18z
				 M36.53,21.57c0.2-0.31,0.2-0.41,0.1-0.62c-0.5,0.2-0.71,0.62-1.01,0.92c-0.2,0.2-0.5,0.51-0.71,0.71c-0.1,0.1-0.2,0.2-0.2,0.31
				c-0.1,0.31-0.3,0.51-0.6,0.61c-0.1,0.1-0.3,0.21-0.41,0.31c-0.1,0.1-0.1,0.31,0,0.41c0.1,0.1,0.2,0,0.3-0.1
				c0.2-0.1,0.3-0.31,0.41-0.41c0.4-0.41,0.9-0.82,1.3-1.23C36.03,22.17,36.34,21.87,36.53,21.57z M36.44,30.87
				c0.1-0.2,0.2-0.41,0-0.61c-0.41,0.2-0.5,0.41-0.6,0.82C36.03,31.08,36.34,31.17,36.44,30.87z M36.44,25.34
				c0.1-0.2,0.2-0.3,0-0.41c-0.2,0.2-0.5,0.41-0.71,0.62c-0.2,0.2-0.4,0.41-0.5,0.61c-0.41,0.41-0.8,0.92-1.21,1.33
				c-0.1,0.1-0.1,0.2,0,0.41c0.1,0,0.1,0,0.2-0.1c0.4-0.51,0.8-0.92,1.2-1.33C35.73,26.06,36.14,25.76,36.44,25.34z M36.44,29.24
				c0.2-0.1,0.1-0.31-0.1-0.41c-0.31,0.31-0.61,0.62-0.8,0.92c0,0.1-0.1,0.2,0,0.41c0.1-0.1,0.2-0.1,0.2-0.2
				C36.03,29.75,36.14,29.44,36.44,29.24z M36.34,26.98l0.1-0.1c-0.1-0.1-0.1-0.1-0.2-0.1c-0.7,0.82-1.5,1.43-2.1,2.35
				c0,0.1,0.1,0.1,0.1,0.2c0.2-0.2,0.4-0.41,0.7-0.71c0.31-0.31,0.61-0.71,1.01-1.02C36.14,27.39,36.23,27.18,36.34,26.98z
				 M36.03,28.42c0.1-0.1,0.1-0.31,0-0.41c-0.5,0.31-0.8,0.82-1.2,1.43c0.1,0,0.2,0,0.3-0.1C35.43,29.03,35.73,28.72,36.03,28.42z
				 M35.93,39.26c0,0,0.1-0.1,0-0.21l-0.1-0.1c-0.2,0-0.41,0.1-0.5,0.2c-0.2,0.2-0.41,0.51-0.5,0.71c-0.1,0.1-0.1,0.21-0.2,0.21
				c-0.1,0.3-0.1,0.3,0,0.41c0.3-0.2,0.61-0.41,0.8-0.71C35.63,39.66,35.73,39.46,35.93,39.26z M36.03,26.67c-0.3-0.1-0.4,0-0.5,0.1
				c0,0.1-0.1,0.2-0.1,0.2c-0.2,0-0.3,0.31-0.4,0.41c0.2,0.1,0.3,0.1,0.4-0.1c0-0.1,0.1-0.1,0.1-0.2
				C35.73,26.98,35.84,26.78,36.03,26.67z M34.83,24.94c0.2-0.1,0.2-0.2,0.1-0.51c-0.1,0.1-0.2,0.1-0.3,0.2
				c-0.2,0.1-0.4,0.31-0.6,0.51c-0.1,0-0.2,0.2-0.2,0.41c0,0.2-0.1,0.41,0.1,0.71c0.2-0.31,0.4-0.51,0.5-0.82
				C34.53,25.25,34.63,25.04,34.83,24.94z M34.93,26.06c0,0,0-0.1,0-0.21c-0.1,0-0.2,0.1-0.3,0.1c-0.3,0.2-0.4,0.51-0.7,0.71
				c0,0-0.1,0.21,0.1,0.31C34.43,26.67,34.63,26.37,34.93,26.06z M34.13,30.56c0.1-0.1,0.1-0.21,0.2-0.31c-0.1-0.1-0.2-0.2-0.3-0.1
				C33.93,30.35,33.93,30.46,34.13,30.56z M33.52,39.46c0.1-0.1,0.1-0.2,0.1-0.31c-0.41-0.1-0.6,0-0.9,0.41
				c-0.2,0.41-0.5,0.71-0.8,1.02c-0.1,0.1-0.1,0.2-0.1,0.31c0,0,0,0.1,0,0.2c0.2-0.1,0.41-0.2,0.5-0.41c0-0.1,0.1-0.2,0.2-0.2
				C32.82,40.17,33.22,39.87,33.52,39.46z M31.62,39.87c0.1-0.2,0.1-0.3-0.1-0.41c-0.3,0.2-0.4,0.41-0.5,0.71c0,0.1,0,0.31,0.2,0.31
				C31.31,40.28,31.51,40.08,31.62,39.87z M30.31,51.94c0.2-0.21,0.1-0.41-0.2-0.51c0,0,0,0-0.1,0c0,0.1-0.1,0.1-0.1,0.2
				c0,0.2-0.1,0.41-0.2,0.51c-0.1,0.1-0.1,0.31-0.2,0.51C29.91,52.45,30.11,52.25,30.31,51.94z M28.91,51.73c0.3,0,0.5-0.2,0.4-0.51
				C29.21,51.22,29,51.43,28.91,51.73z M26.29,51.94c0.1,0,0.1-0.1,0-0.41c-0.3,0.31-0.7,0.51-0.9,0.82
				c-0.5,0.51-0.9,1.13-1.31,1.74v0.2c0.1,0,0.2,0.1,0.2,0c0.1-0.1,0.2-0.2,0.3-0.31c0.3-0.31,0.5-0.62,0.8-0.92
				C25.69,52.65,25.99,52.34,26.29,51.94z M24.59,52.25c0.1-0.1,0.1-0.21,0.1-0.41c-0.1,0-0.2,0-0.3,0.1
				c-0.2,0.2-0.41,0.51-0.61,0.71c-0.1,0.2-0.1,0.31-0.2,0.41c0.2,0.1,0.3-0.1,0.5-0.2C24.28,52.65,24.39,52.45,24.59,52.25z
				 M23.98,51.94c-0.1-0.1-0.1-0.21-0.2-0.31c-0.3,0.31-0.6,0.71-0.9,1.02c-0.3,0.31-0.6,0.71-0.9,1.02c-0.1,0.1-0.1,0.2,0,0.41
				c0.2,0,0.5,0,0.7-0.21c0.2-0.2,0.3-0.51,0.5-0.71c0.1-0.2,0.3-0.41,0.41-0.71C23.68,52.25,23.78,52.04,23.98,51.94z M23.59,43.14
				c0.3-0.31,0.3-0.41,0.2-0.82c-0.2,0.1-0.2,0.1-0.3,0.2c-0.2,0.31-0.4,0.51-0.6,0.82c-0.2,0.31-0.5,0.51-0.7,0.72
				c-0.2,0.3-0.5,0.51-0.71,0.92c-0.1,0.2-0.1,0.31-0.1,0.51h0.1c0.5-0.41,0.9-1.02,1.41-1.53C23.08,43.65,23.38,43.34,23.59,43.14z
				 M23.68,41.61c0.1-0.1,0.2-0.31,0-0.51c-0.4,0.31-0.9,1.22-1.01,1.74c0.1,0,0.2,0,0.2-0.1C23.18,42.32,23.38,42.01,23.68,41.61z
				 M23.59,45.8c0.1-0.1,0.2-0.31,0.1-0.51c-0.1,0.1-0.2,0.1-0.3,0.2c-0.2,0.2-0.41,0.41-0.5,0.62c-0.3,0.41-0.7,0.82-1.01,1.22
				c-0.1,0.1-0.1,0.1-0.1,0.2c0,0.21-0.1,0.41-0.3,0.51c-0.2,0.1-0.2,0.21-0.2,0.41c0.2,0,0.3,0,0.41-0.2
				c0.2-0.21,0.3-0.41,0.5-0.62C22.68,47.02,23.08,46.42,23.59,45.8z M23.68,44.67c0-0.1,0.1-0.1,0.1-0.2c-0.2-0.1-0.3-0.1-0.3,0.1
				c0.1,0.1,0.1,0.2,0.1,0.3c-0.1,0-0.2-0.1-0.3-0.1c-0.1,0.1-0.2,0.31-0.41,0.41c-0.2,0.2-0.5,0.41-0.6,0.72
				c-0.1,0.2-0.3,0.3-0.41,0.51c-0.1,0.2-0.1,0.3-0.1,0.51c0.1-0.1,0.2-0.21,0.3-0.31c0.2-0.2,0.41-0.41,0.6-0.71
				c0.3-0.31,0.5-0.62,0.8-0.82c0-0.1,0.1-0.1,0.1-0.21C23.59,44.78,23.68,44.78,23.68,44.67z M23.48,40.08c0.1-0.1,0.1-0.31,0-0.41
				c0-0.1-0.1-0.1-0.1-0.2c-0.3,0.31-0.71,0.92-0.8,1.22c0.1,0.1,0.1,0,0,0C22.98,40.59,23.28,40.28,23.48,40.08z M23.48,54.39
				c0.1-0.2-0.1-0.41-0.2-0.51c0,0-0.1-0.1-0.2-0.1c-0.2,0-0.41,0.2-0.41,0.61C23.08,54.39,23.28,54.39,23.48,54.39z M23.48,38.75
				c0-0.1,0-0.1,0-0.21c-0.1,0-0.1,0-0.2,0c-0.1,0-0.1,0.1-0.1,0.1c-0.2,0.2-0.4,0.41-0.6,0.71c-0.4,0.62-1.1,1.02-1.41,1.74
				c-0.2,0.31-0.3,0.41-0.2,0.71c0.1-0.1,0.2-0.1,0.3-0.2c0.3-0.31,0.5-0.62,0.8-1.02c0.3-0.51,0.71-0.92,1.01-1.33
				C23.18,39.05,23.48,38.95,23.48,38.75z M23.18,48.05c0.1,0,0.1-0.1,0.1-0.2c-0.41,0.2-0.71,0.51-0.91,0.92l-0.1,0.1
				c-0.1,0.1-0.1,0.21,0,0.31C22.58,49.07,22.78,48.66,23.18,48.05z M22.98,37.31c0.31,0.1,0.31,0.1,0.31-0.31
				C23.08,37,23.08,37,22.98,37.31z M23.18,34.96c0-0.1,0-0.1,0-0.2c-0.1,0-0.2,0-0.2,0c-0.1,0.1-0.2,0.31-0.3,0.31
				c-0.3,0.2-0.4,0.61-0.7,0.81c0,0.21,0,0.31,0,0.41c0.1,0,0.1-0.1,0.2-0.1c0.3-0.31,0.5-0.61,0.8-0.92
				C23.08,35.16,23.08,35.06,23.18,34.96z M22.88,34.45c0.1-0.2,0.3-0.41,0.2-0.62c-0.2,0.1-0.2,0.2-0.3,0.41
				c-0.2,0.31-0.5,0.61-0.71,0.92c-0.2,0.2-0.4,0.51-0.6,0.71c-0.2,0.21-0.4,0.41-0.5,0.72c0,0.1-0.1,0.1-0.1,0.2
				c-0.1-0.1-0.1,0-0.2,0.1c0.2,0,0.3-0.1,0.41-0.21c0.3-0.41,0.7-0.92,1-1.33C22.38,35.06,22.58,34.76,22.88,34.45z M23.08,32.71
				c0-0.2,0.1-0.41,0.1-0.71c-0.4,0.1-0.6,0.51-0.8,0.82c-0.3,0.31-0.5,0.62-0.7,0.92c-0.2,0.3-0.5,0.61-0.6,1.12
				c0.1-0.1,0.2-0.1,0.2-0.1c0.2-0.2,0.3-0.31,0.5-0.51C22.18,33.73,22.68,33.22,23.08,32.71z M22.78,28.62c0.1,0.1,0.1,0-0.1-0.1
				c-0.1,0.1-0.1,0.1-0.2,0.21c-0.2,0.2-0.3,0.41-0.5,0.51c-0.1,0-0.1,0.1-0.1,0.2c-0.3,0.51-0.8,0.82-1,1.33
				c-0.1,0.1-0.2,0.2-0.3,0.31c-0.1,0.1-0.1,0.2,0,0.31c0.1-0.1,0.2-0.1,0.2-0.21c0.2-0.2,0.31-0.41,0.5-0.61
				c0.3-0.31,0.5-0.72,0.8-1.03C22.38,29.24,22.48,28.82,22.78,28.62z M22.98,38.23c-0.1,0-0.2,0-0.2,0.1
				c-0.1,0.2-0.3,0.31-0.41,0.51c-0.1,0.1-0.1,0.2-0.2,0.2c0,0.1-0.1,0.21-0.2,0.21c-0.2,0.1-0.2,0.31-0.41,0.51c0.1,0,0.1,0,0.1,0
				c0.4-0.41,0.7-0.72,1-1.13C22.88,38.54,22.88,38.33,22.98,38.23z M22.58,25.85c0.1,0.21,0.1,0.1,0.1,0.1c0-0.2-0.1-0.31-0.2-0.2
				c-0.1,0.1-0.3,0.31-0.41,0.41c-0.1,0.1-0.2,0.31-0.3,0.41c-0.2,0.31-0.5,0.61-0.7,0.92c-0.31,0.41-0.5,0.82-0.91,1.02
				c0,0-0.1,0-0.1,0.1s0,0.2,0,0.2c0.1,0,0.2,0.1,0.2,0c0.1,0,0.1-0.1,0.2-0.2c0.2-0.31,0.5-0.71,0.71-1.02
				c0.1-0.1,0.2-0.2,0.3-0.31c0.2-0.2,0.4-0.41,0.5-0.71C22.18,26.37,22.38,26.16,22.58,25.85z M22.48,30.97
				c-0.1-0.2,0.2-0.1,0.1-0.41c-0.1,0.2-0.2,0.3-0.2,0.41C22.38,30.97,22.38,30.97,22.48,30.97z M22.58,31.68c0,0,0-0.1,0-0.2h-0.1
				c-0.3,0.31-0.61,0.51-0.8,0.82c-0.2,0.2-0.41,0.51-0.6,0.71c-0.31,0.21-0.31,0.31-0.2,0.62c0.1-0.1,0.2-0.2,0.3-0.31
				c0.4-0.51,0.8-1.02,1.31-1.53L22.58,31.68z M22.28,25.34c0.3-0.2,0.3-0.41,0.2-0.61c-0.1,0.1-0.2,0.2-0.2,0.2
				c-0.3,0.41-0.6,0.71-0.9,1.13c-0.2,0.2-0.41,0.51-0.61,0.71c-0.2,0.2-0.4,0.51-0.6,0.82c-0.1,0.1-0.1,0.31-0.2,0.51
				c0,0,0,0.1,0,0.2c0.1-0.1,0.1-0.1,0.2-0.1c0.2-0.21,0.3-0.41,0.41-0.62c0.3-0.41,0.6-0.82,0.9-1.22
				C21.77,26.06,22.07,25.65,22.28,25.34z M22.48,27.49c0.1,0,0.1-0.2,0.2-0.31c-0.2,0.1-0.4,0.21-0.5,0.41
				c-0.41,0.51-0.91,1.13-1.31,1.64c-0.1,0.1-0.2,0.2-0.2,0.41h0.1c0.2-0.31,0.41-0.51,0.71-0.82c0.2-0.2,0.4-0.31,0.5-0.51
				C22.18,28,22.28,27.8,22.48,27.49z M22.28,41.92c0.1,0,0-0.1,0-0.21c-0.2,0.21-0.41,0.31-0.6,0.51c0,0,0,0.1,0,0.21
				c0.1,0,0.1,0,0.2,0C22.07,42.22,22.18,42.12,22.28,41.92z M22.18,22.28c-0.01,0.01-0.01,0.03-0.02,0.04
				c-0.03,0-0.08-0.07-0.08-0.15c-0.4,0.31-0.6,0.72-0.9,1.03c-0.6,0.61-1.1,1.22-1.71,1.84c-0.1,0.1-0.1,0.3,0,0.41
				c0.1,0.1,0.2,0,0.3,0c0.1,0,0.1-0.1,0.1-0.2c0.3-0.41,0.6-0.82,1.01-1.23c0.2-0.2,0.4-0.51,0.6-0.71c0.1-0.1,0.2-0.2,0.3-0.41
				c0.09-0.2,0.27-0.38,0.38-0.57C22.17,22.32,22.18,22.31,22.18,22.28z M21.98,24.32c0.2-0.2,0.2-0.31,0.1-0.51
				c-0.2,0.31-0.5,0.51-0.7,0.71c-0.2,0.31-0.5,0.62-0.71,1.03c-0.1,0.2-0.3,0.41-0.4,0.61l-0.2,0.1c-0.1,0-0.1-0.1-0.1-0.2
				c0-0.1,0.1-0.21-0.1-0.31c-0.2,0.2-0.4,0.31-0.4,0.71c0,0.2,0,0.41,0.1,0.62c0.1,0.2,0.2,0.31,0.41,0.1
				c0.4-0.51,0.8-1.12,1.3-1.63c0,0,0,0,0-0.1C21.47,25.04,21.68,24.63,21.98,24.32z M21.87,53.06c0-0.1,0-0.1,0-0.2
				c-0.2,0.1-0.2,0.2-0.2,0.2C21.77,53.06,21.77,53.06,21.87,53.06z M21.47,31.08c0.1-0.1,0.2-0.21,0.3-0.31
				C21.47,30.87,21.38,30.87,21.47,31.08z M21.77,34.96c0-0.1,0-0.2-0.1-0.31c-0.1,0.1-0.2,0.2-0.3,0.31c-0.2,0.2-0.3,0.51-0.5,0.71
				c0,0,0,0.1,0,0.2h0.1C21.27,35.58,21.47,35.27,21.77,34.96z M21.47,22.38c0.1-0.1,0.2-0.21,0.1-0.41c-0.1,0-0.1,0.1-0.2,0.1
				c-0.1,0.1-0.2,0.31-0.41,0.41c-0.5,0.51-1,1.13-1.61,1.64c0,0.1,0,0.1,0.1,0.31c0.3-0.2,0.5-0.41,0.7-0.62
				C20.57,23.3,21.07,22.79,21.47,22.38z M21.57,49.48c0-0.1,0-0.2-0.1-0.31c-0.1,0-0.1,0.2-0.1,0.41
				C21.47,49.59,21.57,49.59,21.57,49.48z M21.47,43.76c0.1,0,0.1-0.21,0.2-0.41c-0.41,0-0.5,0.41-0.6,0.62
				c-0.1,0.2-0.1,0.51,0.1,0.71c0.1-0.1,0.1-0.2,0.2-0.2C21.27,44.16,21.27,44.16,21.47,43.76z M21.17,43.34
				c0.1-0.1,0.1-0.2,0.1-0.31c-0.1,0-0.2,0.1-0.2,0.21L21.17,43.34z"/>
			<path class="st3" d="M45.41,91.64c-0.35,0.28-0.7,0.62-1.05,0.89c-0.2,0.1-0.2,0.2,0.1,0.51c-0.3,0-0.6,0-0.8,0
				c0-0.1,0-0.2,0.1-0.2c0.1-0.2,0.3-0.31,0.5-0.51C44.48,92.15,44.93,91.9,45.41,91.64z"/>
			<path class="st2" d="M29.65,37.09c0,0.03,0,0.08,0,0.13c0.07,0,0.07,0,0.07,0c0.27-0.2,0.47-0.48,0.66-0.75c0,0,0-0.06,0-0.13
				C30.12,36.55,29.86,36.82,29.65,37.09z M44.27,37.31c0.1,0.62,0.1,1.13,0.1,1.74c0,0.62-0.1,1.33-0.1,1.95
				c0,0.41-0.1,0.92-0.2,1.43c0,0.61-0.1,1.12-0.2,1.74c0,0.41,0,0.92-0.2,1.33v0.1c0.1,0.51,0,1.02,0,1.53c0,0.71,0,1.33,0,2.04
				c-0.1,0.41-0.1,0.71-0.2,1.13c0,0.1-0.1,0.2-0.2,0.2c-0.3,0-0.7,0-1,0c-0.1,0-0.2,0-0.3,0c-0.3,0-0.6,0-0.9,0
				c-0.31,0-0.5,0-0.8,0s-0.61,0-0.91,0c-0.4,0-0.5-0.1-0.5-0.51c-0.1-0.51-0.1-0.92-0.1-1.43c0-0.2-0.1-0.3-0.1-0.41
				c0-0.2-0.1-0.41-0.1-0.62c-0.1-0.3-0.1-0.71-0.1-1.02c-0.1-0.31-0.1-0.61-0.1-0.92c0-0.51,0-0.92,0-1.33c0-0.1,0-0.31,0-0.51
				c0-0.31,0.1-0.51,0.1-0.72c0-0.41,0-0.92,0.1-1.43c0.1-0.2,0.1-0.51,0.2-0.82c0-0.2,0.1-0.31,0.1-0.51c0-0.41,0.1-0.82,0.2-1.13
				c0.1-0.31,0.1-0.71,0-1.02c-0.1-0.31-0.3-0.41-0.6-0.41c-0.4,0-0.6,0.1-0.9,0.3c-0.2,0.1-0.41,0.21-0.6,0.21
				c-1.21,0-2.31,0-3.52,0c-0.1,0-0.2,0-0.3,0c-0.1,0-0.2,0-0.3-0.1c-0.3-0.2-0.6-0.31-0.9-0.41c-0.5-0.21-1.01,0-1.41,0.3
				c-0.1,0-0.1,0.1-0.2,0.1c-0.41,0.31-0.5,0.71-0.41,1.22c0.2,0.62,0.1,1.23,0.1,1.84c0,0.31,0,0.62,0,0.92
				c0,0.41,0.1,0.92,0.1,1.33c0,0.1,0,0.1,0,0.2c0,0.62,0.1,1.22,0.1,1.84c0.1,0.41,0.1,0.92,0.1,1.33c0,0.2,0.1,0.41,0.1,0.62
				c0.1,0.31,0.1,0.51,0.1,0.71c0,0.31,0.1,0.71,0.1,1.02c0,0.41,0.1,0.82-0.1,1.22c-0.2,0-0.41-0.1-0.91-0.51c-0.1,0-0.1,0-0.2,0
				c-0.41,0-0.91,0-1.41,0.1c-0.1,0-0.2,0.1-0.41,0.1c-0.2,0.1-0.4,0.1-0.6,0.1c-0.41,0.1-0.9,0.1-1.31,0.1c-0.2,0.1-0.5,0-0.7-0.2
				c-0.2-0.21-0.3-0.51-0.3-0.82c0-0.41,0.1-0.82,0-1.23c-0.1-0.71,0-1.43,0-2.14c0-0.41,0.1-0.92,0.1-1.33c0-0.41,0-0.72,0-1.13
				c0-0.1,0-0.2,0-0.31c0-0.31,0-0.51,0-0.82c0-0.2,0-0.41,0-0.62c0-0.61-0.1-1.33-0.1-1.94c-0.1-0.51-0.1-1.02-0.1-1.53
				c0-0.41-0.1-0.82-0.1-1.23c0-0.1,0-0.2,0-0.31c0.1-0.51,0.1-1.12,0-1.63c-0.1-0.1-0.1-0.21-0.1-0.31c0-0.1,0-0.1,0-0.2
				c0.1-0.52-0.1-1.13-0.1-1.64c0-0.21,0-0.41,0-0.62c0-0.62,0-1.33-0.1-1.95c0-0.61-0.1-1.33-0.1-1.94c0-0.41-0.1-0.82-0.1-1.23
				c0-0.1,0-0.3,0-0.41c0-0.2-0.1-0.41-0.1-0.62c0-0.41-0.1-0.71-0.1-1.12c0-0.72,0-1.33-0.1-2.05c0-0.1-0.1-0.31-0.1-0.51
				c-0.1-0.61-0.2-1.13-0.2-1.74c0-0.51-0.1-1.13,0.1-1.64c0-0.2,0.1-0.31,0.3-0.31c0.2,0,0.3,0,0.41,0c0.4,0.1,0.6,0,0.8-0.31
				c0.1-0.1,0.2-0.1,0.3-0.1c0.9,0.1,1.91,0,2.91,0.31c0.3,0,0.6,0.2,0.91,0.3c0,0,0.1,0,0.1,0.1c0.3,0.41,0.5,0.92,0.5,1.43
				c0.1,0.71,0.1,1.43,0.1,2.14c0,0.41,0.1,0.82,0.1,1.23c0,0.2,0,0.31,0,0.51c0,0.51-0.1,1.02-0.1,1.53c0,0.31,0,0.62,0,0.92
				c0,0.71,0.1,1.33,0.1,2.04c0,0.51,0.1,0.92,0.1,1.43c0,0.41,0,0.72,0,1.13c-0.1,0.31,0,0.51,0.1,0.71c0.1,0.21,0.3,0.31,0.5,0.31
				c0.5,0,0.9-0.1,1.41-0.31c0.4-0.2,0.9-0.3,1.41-0.3c0.1,0,0.3,0,0.41,0c0.5-0.1,0.9-0.1,1.41-0.1c0.2,0,0.5,0.1,0.7,0.2
				c0.41,0.2,0.9,0.1,1.31-0.2c0.1-0.1,0.2-0.31,0.2-0.51c-0.1-0.51,0-1.13,0-1.64c0-0.62,0-1.33,0-2.04c0-0.31,0-0.62,0-0.92
				c0-0.82,0-1.63,0-2.45c0-0.72,0.1-1.33,0.1-2.05c0-0.41,0.1-0.71,0.1-1.02c0-0.2,0-0.31,0.1-0.41c0.1-0.2,0.1-0.41,0.1-0.71
				c0-0.31,0.1-0.62,0.3-0.92c0.3,0,0.71,0,1.01,0c0.5,0,1-0.1,1.5-0.1c0.1,0,0.3,0,0.41,0c0.6,0,1.2,0,1.8,0c0.2-0.1,0.4,0,0.6,0
				c0.1,0,0.2,0,0.2,0.1c0,0.2,0.1,0.31,0.1,0.51c0,0.41,0,0.82,0,1.22c-0.1,0.72,0,1.43-0.1,2.05c-0.1,0.71,0.1,1.53,0,2.25
				c0,0.62,0,1.13,0,1.74c0,0.41,0.1,0.71,0.1,1.12c0,0.21,0,0.41,0,0.62c0.1,0.31,0.1,0.51,0.1,0.82c0,0.2,0,0.41,0,0.62
				c0,0.3,0,0.71,0,1.02c0,0.41,0.1,0.92,0.1,1.33c0,0.61,0.1,1.12,0.2,1.74c0.1,0.62,0.1,1.13,0.1,1.74
				C44.17,36.29,44.27,36.8,44.27,37.31z M40.51,35.39c-0.07,0-0.13,0-0.2,0.07c-0.4,0.34-0.8,0.75-1.2,1.08
				c-0.06,0-0.06,0.07-0.06,0.13c0,0.07,0,0.07,0,0.14c0.06,0,0.06,0,0.13,0c0.06-0.07,0.2-0.14,0.27-0.2
				c0.27-0.2,0.53-0.48,0.73-0.68C40.3,35.74,40.44,35.6,40.51,35.39z M30.52,35.26l-0.06-0.07c-0.07,0-0.13,0.07-0.07,0.2
				C30.46,35.33,30.46,35.33,30.52,35.26z M30.46,35.74c-0.07,0-0.07,0-0.13,0.07c-0.27,0.27-0.6,0.47-0.87,0.74
				c-0.2,0.2-0.4,0.41-0.53,0.61c-0.07,0.14-0.13,0.27-0.07,0.41c0.13,0.07,0.13,0,0.2-0.06c0.2-0.27,0.4-0.48,0.53-0.75
				c0.2-0.27,0.47-0.54,0.66-0.74C30.39,35.87,30.46,35.81,30.46,35.74z"/>
			<path class="st3" d="M41.16,80.77C41.25,80.77,41.25,80.87,41.16,80.77L41.16,80.77z"/>
			<path class="st3" d="M40.92,54.34c-0.08,0.06-0.17,0.1-0.27,0.15c-0.06-0.07-0.08-0.17-0.09-0.3c0.03-0.01,0.06-0.01,0.09-0.01
				C40.79,54.18,40.88,54.23,40.92,54.34z"/>
			<path class="st2" d="M40.3,35.46c0.07-0.07,0.13-0.07,0.2-0.07c-0.07,0.21-0.2,0.34-0.34,0.55c-0.2,0.2-0.46,0.48-0.73,0.68
				c-0.07,0.06-0.2,0.13-0.27,0.2c-0.07,0-0.07,0-0.13,0c0-0.07,0-0.07,0-0.14c0-0.06,0-0.13,0.06-0.13
				C39.51,36.21,39.91,35.81,40.3,35.46z"/>
			<path class="st1" d="M39.55,109.51c0.1,0.2,0.1,0.31,0,0.51c-0.1,0.2-0.3,0.31-0.4,0.51c-0.1,0.1-0.71,0.1-0.91,0
				c-0.4-0.2-0.7-0.51-0.7-1.02c0-0.41,0-0.82-0.1-1.23c-0.1-0.51-0.31-1.02-0.2-1.63c0-0.1-0.1-0.31-0.1-0.41
				c-0.1-0.2-0.2-0.41-0.1-0.71c0-0.1,0-0.2-0.1-0.2c-0.1-0.21-0.2-0.41-0.3-0.52c-0.1-0.1-0.3-0.2-0.41-0.3
				c-0.4-0.1-0.9,0-1.31,0.1c-0.2,0.1-0.3,0.2-0.3,0.41c0,0.51,0.1,1.02,0.1,1.53c0,0.71,0.2,1.33,0.3,1.95c0.1,0.3,0,0.61-0.1,0.92
				c-0.1,0.31-0.3,0.51-0.7,0.41c-0.2,0-0.5,0-0.71-0.1c-0.1-0.1-0.3-0.2-0.3-0.41c-0.1-0.3-0.2-0.71-0.2-1.12
				c-0.1-0.62-0.2-1.13-0.3-1.74c-0.2-0.71-0.2-1.33-0.1-2.04c0-0.62,0.2-1.13,0.2-1.74c0-0.55,0-1.18,0-1.74h1.31
				c0,0.2,0,0.41,0.1,0.51c0.1,0.31,0.4,0.41,0.5,0.72c0,0.1,0.2,0.2,0.3,0.1c0.4,0,0.8-0.2,1-0.51c0.41-0.62,0.5-1.33,0.5-2.04
				c0-0.41-0.3-0.62-0.7-0.62l0.13-1.25c0.21,0.02,0.44,0.02,0.67,0.02c0.6,0,1,0.31,1.3,0.82c0.41,0.61,0.41,1.22,0.41,1.84
				c0,0.61-0.1,1.12-0.1,1.74c-0.1,0-0.2,0.1-0.2,0.2c-0.2,0.51-0.1,0.92,0.3,1.33c0.1,0.1,0.2,0.31,0.3,0.51
				c0.1,0.31,0.3,0.62,0.4,0.92c0.3,0.62,0.2,1.22,0.1,1.95c0,0.3,0,0.61,0.1,0.92c0.1,0.41,0.3,0.71,0.2,1.13
				C39.45,109.3,39.55,109.41,39.55,109.51z"/>
			<path class="st3" d="M38.84,54.2c-0.05,0.22-0.22,0.31-0.4,0.4c-0.3,0.1-0.6,0.1-0.9,0c0-0.1,0.1-0.1,0.1-0.21
				c0.01-0.02,0.03-0.04,0.05-0.06c0.06-0.02,0.11-0.03,0.15-0.03c0.1,0,0.2,0,0.3,0C38.36,54.23,38.6,54.2,38.84,54.2z"/>
			<path class="st3" d="M36.03,54.49c0.03,0,0.06,0,0.09,0c-0.03,0.04-0.06,0.08-0.09,0.1c-0.1,0.2-0.3,0.3-0.5,0.2
				c-0.06-0.13-0.09-0.21-0.07-0.28C35.58,54.56,35.74,54.53,36.03,54.49z"/>
			<path class="st1" d="M35.97,97.83l-0.13,1.25c-0.3,0-0.6,0.1-0.91,0.2c-0.3,0.1-0.4,0.31-0.5,0.51c-0.1,0.31-0.1,0.52-0.2,0.62
				c0,0.1-0.1,0.31-0.1,0.51h-1.31c0-0.07,0-0.13,0-0.2c0-0.2-0.1-0.51-0.2-0.71c-0.2-0.51-0.1-0.72,0.3-1.02
				c0.5-0.41,1.01-0.82,1.51-1.03c0.4-0.2,0.7-0.2,1.1-0.2C35.66,97.79,35.81,97.82,35.97,97.83z"/>
			<path class="st3" d="M35.78,46.41c0.02,0.22,0.02,0.42-0.02,0.61c-0.04,0-0.08,0.01-0.13,0.01
				C35.63,46.65,35.58,46.5,35.78,46.41z"/>
			<path class="st3" d="M35.51,43.01l-0.08-0.08c0-0.1,0-0.2,0-0.31c0.01-0.01,0.01-0.03,0.01-0.03
				C35.47,42.73,35.5,42.87,35.51,43.01z"/>
			<path class="st3" d="M35.09,41.62c-0.06,0.03-0.15,0.04-0.26-0.01c0-0.05,0-0.12,0-0.18C34.93,41.45,35.02,41.52,35.09,41.62z"/>
			<path class="st3" d="M33.75,69.03c0.03,0.08,0.06,0.17,0.08,0.27c-0.06-0.11-0.17-0.36-0.1-0.29
				C33.73,69.02,33.74,69.03,33.75,69.03z"/>
			<path class="st3" d="M33.29,41.41c-0.08,0.2-0.11,0.2-0.37,0.2c-0.03-0.06-0.06-0.1-0.08-0.14
				C32.97,41.42,33.12,41.41,33.29,41.41z"/>
			<path class="st1" d="M31.31,104.8c0,0.1,0,0.21-0.1,0.21c-0.4,0.71-0.4,1.53-0.5,2.25c-0.1,0.41-0.3,0.82-0.4,1.23
				c-0.5,1.12-1.51,1.43-2.62,1.74c-0.1,0-0.3,0-0.5-0.1c-0.8-0.51-1.41-1.12-1.71-2.04c-0.2-0.51-0.3-1.13-0.4-1.74
				c0-0.1,0-0.21,0-0.21c0.1-0.3,0.2-0.81,0.3-1.33c0.03-0.31,0.1-0.61,0.17-0.92c0.11-0.52,0.23-1.05,0.23-1.63
				c0-0.51-0.1-1.13-0.31-1.64c-0.07-0.29-0.1-0.54-0.07-0.73c0.05-0.35,0.3-0.57,0.87-0.69c0.2-0.1,0.41-0.1,0.61-0.31
				c0.4-0.2,0.7-0.51,1.2-0.51c0.4,0,0.7,0,1.1,0.1c0.3,0.1,0.6,0.31,0.7,0.62c0.1,0.31,0.41,0.62,0.61,0.82
				c0.4,0.41,0.7,1.33,0.7,1.84c0,0.41,0,0.82,0,1.22C31.21,103.58,31.21,104.19,31.31,104.8z M29.81,104.6c0-0.51,0-1.12,0-1.64
				c0-0.71,0-1.33-0.3-1.94c-0.3-0.51-0.6-1.02-1.31-1.23c-0.3-0.1-0.6,0-0.7,0.21c-0.1,0.1-0.1,0.31-0.2,0.51c0,0.31,0,0.61,0,0.92
				c0,0.51-0.1,0.92-0.2,1.43c-0.1,0.62-0.2,1.33-0.3,1.94c-0.2,0.62-0.2,1.23,0,1.85c0.1,0.61,0.41,1.22,0.71,1.74
				c0.2,0.51,0.7,0.51,1.1,0.2c0.4-0.41,0.6-0.82,0.7-1.33c0.1-0.51,0.2-1.13,0.3-1.64C29.71,105.32,29.81,105.01,29.81,104.6z"/>
			<path class="st2" d="M30.46,35.19l0.06,0.07c-0.06,0.07-0.06,0.07-0.13,0.13C30.33,35.26,30.39,35.19,30.46,35.19z"/>
			<path class="st2" d="M30.39,36.35c0,0.07,0,0.13,0,0.13c-0.2,0.27-0.4,0.55-0.66,0.75c0,0,0,0-0.07,0c0-0.06,0-0.1,0-0.13
				C29.86,36.82,30.12,36.55,30.39,36.35z"/>
			<path class="st2" d="M30.33,35.81c0.06-0.07,0.06-0.07,0.13-0.07c0,0.07-0.07,0.13-0.2,0.27c-0.2,0.2-0.46,0.47-0.66,0.74
				c-0.13,0.27-0.34,0.48-0.53,0.75c-0.07,0.06-0.07,0.13-0.2,0.06c-0.06-0.13,0-0.27,0.07-0.41c0.13-0.2,0.33-0.41,0.53-0.61
				C29.72,36.28,30.06,36.07,30.33,35.81z"/>
			<path class="st1" d="M29.42,113.18H18.68c-0.01-0.03-0.01-0.06-0.01-0.09c0-0.41,0.5-0.71,0.9-0.51
				c0.71,0.41,1.41,0.31,2.11,0.31c0.8,0.1,1.61,0.1,2.41,0.1c0.8,0,1.51,0.1,2.31,0.1C27.37,113.09,28.41,113.14,29.42,113.18z"/>
			<path class="st3" d="M27.82,54.37c-0.01,0.01-0.01,0.01-0.01,0.02c0,0-0.1,0.1-0.2,0.1c-0.1,0-0.2-0.1-0.3-0.1
				c-0.01-0.03-0.03-0.06-0.03-0.08C27.45,54.32,27.64,54.34,27.82,54.37z"/>
			<path class="st3" d="M26.39,54.23c-0.04,0.01-0.09,0-0.14-0.02C26.3,54.21,26.34,54.22,26.39,54.23z"/>
			<path class="st1" d="M24.79,98.98c0.07,0.21,0.04,0.47-0.01,0.75c-0.02,0.12-0.06,0.24-0.08,0.37c-0.1,0.31-0.91,0.51-1.21,0.21
				c-0.5-0.41-1-0.41-1.61-0.41c-0.6,0-1.2,0.1-1.71,0.51c-0.1,0.1-0.1,0.1-0.2,0.2c-0.2,0.41-0.41,0.92-0.5,1.33
				c-0.2,0.51,0.1,0.82,0.7,0.82c0.41,0,0.8-0.1,1.21-0.1c0.4,0,0.8,0,1.2,0.1c0.71,0.1,0.9,0.31,1.1,0.92
				c0.01,0.05,0.02,0.1,0.02,0.15c0,0.24-0.2,0.45-0.62,0.45c-0.9,0-1.81,0.1-2.71,0.31c-0.6,0.2-0.9,0.51-0.9,1.02
				c0,0.51,0,1.03,0.1,1.54c0.1,0.61,0.1,1.12,0.1,1.74c0,0.2,0,0.41-0.1,0.71c0,0.51-0.4,0.62-1,0.51c-0.1-0.2-0.31-0.3-0.61-0.41
				c-0.3-0.71-0.2-1.33-0.1-1.95c0.1-0.51,0.1-1.02,0.1-1.43c0-0.51-0.1-1.02-0.1-1.64c0-1.02,0-2.04,0-3.07c0-0.1,0.1-0.2,0-0.3
				c-0.2-0.51-0.1-1.02,0.1-1.43c0.1-0.2,0.2-0.41,0.41-0.51c0.9-0.51,2.01-0.71,3.11-0.82c0.71-0.1,1.5-0.2,2.31-0.31
				c0.1,0.1,0.2,0.1,0.3,0.2C24.28,98.67,24.69,98.77,24.79,98.98z"/>
			<path class="st3" d="M22.58,40.68C22.68,40.68,22.68,40.79,22.58,40.68L22.58,40.68z"/>
			<path class="st3" d="M17.56,67.66c0,0.15,0,0.3,0,0.43c-0.03,0.03-0.06,0.06-0.1,0.1c-0.1-0.1-0.1-0.31-0.1-0.41l0.1-0.1
				C17.49,67.68,17.53,67.68,17.56,67.66z"/>
			<path class="st3" d="M17.46,70.75c0,0.05,0.01,0.1,0.01,0.15c-0.03,0.03-0.06,0.06-0.12,0.06c-0.08-0.25-0.03-0.44,0.11-0.62
				C17.46,70.48,17.46,70.62,17.46,70.75z"/>
			<path class="st3" d="M17.46,72.1c0,0.03,0.01,0.08,0.01,0.12C17.43,72.18,17.44,72.14,17.46,72.1z"/>
			<path class="st3" d="M17.46,74.02c0,0.17,0,0.34,0,0.52c-0.2-0.2-0.1-0.31-0.1-0.51C17.39,74.02,17.42,74.02,17.46,74.02z"/>
			<path class="st3" d="M17.36,75.86c0.01-0.01,0.01-0.01,0.01-0.01c-0.01,0.2-0.03,0.4-0.04,0.6c-0.02,0.03-0.05,0.08-0.07,0.13
				C17.15,76.28,17.15,76.07,17.36,75.86z"/>
			<path class="st3" d="M17.26,82.62c0,0.14,0,0.27,0,0.4c0,0.03,0,0.06-0.01,0.1C17.1,82.95,17.13,82.79,17.26,82.62z"/>
			<path class="st3" d="M17.26,77.51c0,0.34,0,0.67,0,1.01c-0.2-0.41-0.1-0.71-0.1-1.02C17.19,77.5,17.23,77.5,17.26,77.51z"/>
			<path class="st3" d="M16.96,87.61c-0.01,0.07-0.01,0.14-0.01,0.22C16.93,87.74,16.94,87.66,16.96,87.61z"/>
			<path class="st3" d="M16.77,89.05c0.03,0.15,0.02,0.29,0,0.43c-0.01,0-0.01,0-0.02-0.01C16.75,89.34,16.75,89.19,16.77,89.05z"/>
		</g>
	</g>
	<g>
		<path class="st4" d="M117,130H0V0h117V130z M17,113h83V17H17V113z"/>
	</g>
</g>
</svg>
